<?xml version="1.0" encoding="UTF-8" standalone="no"?><!DOCTYPE svg PUBLIC "-//W3C//DTD SVG 1.1//EN" "http://www.w3.org/Graphics/SVG/1.1/DTD/svg11.dtd"><svg width="100%" height="100%" viewBox="0 0 1746 617" version="1.1" xmlns="http://www.w3.org/2000/svg" xmlns:xlink="http://www.w3.org/1999/xlink" xml:space="preserve" xmlns:serif="http://www.serif.com/" style="fill-rule:evenodd;clip-rule:evenodd;stroke-linejoin:round;stroke-miterlimit:2;"><g id="Image"><g id="g8"><path id="path14" d="M1051,508.777c0,-15.557 -0.239,-15.849 -13.005,-15.849c-9.543,-0 -22.763,-6.478 -49.647,-24.324c-20.153,-13.379 -41.081,-27.743 -46.509,-31.921c-9.359,-7.205 -22.746,-7.812 -259.968,-11.799c-204.144,-3.431 -250.831,-5.203 -254.079,-9.64c-3.233,-4.416 -31.844,-5.63 -152.552,-6.471c-95.25,-0.664 -148.897,-2.457 -149.475,-4.997c-0.587,-2.582 51.622,-4.323 149.844,-4.997l150.746,-1.034l-0,-154.443l-149.843,0c-147.436,0 -149.843,-0.127 -149.843,-7.925c0,-7.797 2.407,-7.924 149.542,-7.924c95.344,-0 149.978,-1.42 150.746,-3.918c0.757,-2.464 84.922,-5.512 226.87,-8.216c243.301,-4.633 289.233,-6.946 291.582,-14.679c0.816,-2.687 3.051,-4.886 4.967,-4.886c1.916,0 12.748,-6.514 24.071,-14.477c36.738,-25.833 50.635,-33.07 63.501,-33.07c12.286,-0 12.668,-0.468 13.748,-16.84l1.11,-16.84l411.616,-0l1.87,410.099l-415.292,0l0,-15.849Zm154.929,3.962l2.136,-53.491l178.728,-2.12l-0,-182.127l-180.534,-0l0,-59.435l249.136,-0l0,-87.171l-389.952,0l0,384.344l140.486,0Zm249.466,-11.887l0,-27.736l-238.304,0l0,27.736l238.304,0Zm0,-43.585l0,-182.266l-57.77,-0l-0,182.266l57.77,-0Zm-404.395,-43.07c0,-10.359 -1.367,-11.587 -15.345,-13.784c-8.44,-1.326 -24.194,-4.18 -35.009,-6.342c-10.815,-2.162 -20.216,-3.325 -20.891,-2.584c-0.676,0.741 8.985,8.564 21.469,17.383c15.631,11.044 26.912,16.139 36.236,16.367c12.572,0.308 13.54,-0.482 13.54,-11.04Zm-155.258,3.447l-0,-195.343l-65.895,2.558c-36.242,1.407 -138.481,3.736 -227.199,5.176c-159.679,2.592 -161.324,2.702 -163.333,10.914c-3.114,12.728 -2.398,154.246 0.809,159.785c2.145,3.706 52.16,5.718 207.645,8.35c112.65,1.907 205.863,4.613 207.139,6.014c1.276,1.4 10.986,2.546 21.577,2.546l19.257,-0Zm155.258,-97.077c0,-13.448 -0.42,-13.868 -13.903,-13.868c-7.648,0 -18.615,1.651 -24.372,3.669c-5.758,2.019 -18.593,4.989 -28.522,6.601l-18.053,2.931l14.442,3.504c33.237,8.066 44.027,10.065 56.868,10.535c13.154,0.482 13.54,0.1 13.54,-13.372Zm404.395,-57.453l0,-31.699l-238.304,0l0,31.699l238.304,-0Zm-425.156,-22.203c20.664,-2.687 20.761,-2.763 20.761,-16.004c0,-12.105 -0.964,-13.303 -10.703,-13.303c-8.495,-0 -65.121,32.443 -65.121,37.31c0,0.581 7.718,-0.374 17.151,-2.123c9.433,-1.749 26.493,-4.394 37.912,-5.88Z" style="fill:#d9d9d9;fill-rule:nonzero;"/><path id="path13" d="M1053.4,521.985c-1.324,-1.453 -2.408,-8.585 -2.408,-15.85c0,-12.573 -0.637,-13.207 -13.275,-13.207c-9.583,-0 -19.877,-4.762 -37.009,-17.12c-13.054,-9.416 -32.774,-23.478 -43.823,-31.249l-20.089,-14.129l-136.975,-4.43c-75.336,-2.437 -188.364,-4.423 -251.172,-4.412c-97.118,0.015 -114.869,-0.871 -118.692,-5.925c-3.862,-5.108 -25.499,-5.944 -153.895,-5.944c-130.394,0 -149.401,-0.756 -149.401,-5.943c0,-5.188 19.057,-5.944 149.843,-5.944l149.843,0l-0,-154.53l-149.843,0c-130.786,0 -149.843,-0.756 -149.843,-5.943c0,-5.188 19.014,-5.944 149.457,-5.944c129.519,0 149.733,-0.793 151.535,-5.943c1.73,-4.95 11.905,-5.934 60.865,-5.883c32.332,0.034 145.61,-2.054 251.728,-4.639l192.942,-4.699l45.709,-31.022c36.634,-24.863 48.507,-31.022 59.805,-31.02c13.882,0.003 14.096,-0.222 14.096,-14.859l-0,-14.861l206.711,-1.023l206.71,-1.023l0,408.183l-205.206,0c-112.863,0 -206.29,-1.188 -207.613,-2.641Zm152.851,-9.246l0,-51.51l180.534,0l-0,-186.228l-180.85,-0l2.122,-57.454l123.665,-1.043l123.665,-1.042l0,-91.029l-393.563,-0l0,388.306l144.427,0Zm249.136,-7.924l0,-35.661l-238.304,-0l0,35.661l238.304,-0Zm0,-43.586l0,-186.228l-57.77,-0l-0,186.228l57.77,0Zm-404.395,-47.548l0,-15.849l-15.345,-0.062c-8.44,-0.034 -25.094,-2.645 -37.009,-5.802c-33.211,-8.8 -33.682,-7.502 -4.788,13.198c30.944,22.167 33.815,23.63 47.213,24.052c9.225,0.291 9.929,-0.812 9.929,-15.537Zm-155.258,3.963l-0,-197.918l-9.93,1.886c-13.507,2.566 -293.023,9.794 -378.926,9.799l-69.311,0.004l1.417,172.361l93.878,2.948c51.632,1.621 145.058,4.456 207.613,6.3c62.555,1.843 123.079,3.636 134.497,3.985l20.762,0.635Zm155.944,-97.077c-1.444,-13.567 -1.83,-13.868 -17.812,-13.868c-8.986,0 -22.212,1.711 -29.393,3.802c-7.181,2.091 -19.556,5.024 -27.499,6.518l-14.443,2.716l27.08,6.966c14.894,3.831 35.284,7.139 45.311,7.35l18.231,0.384l-1.475,-13.868Zm403.709,-57.453l0,-35.661l-238.304,-0l0,35.661l238.304,-0Zm-458.555,-16.367c6.951,-1.791 21.98,-3.298 33.399,-3.35l20.761,-0.095l0,-15.849c0,-15.043 -0.562,-15.849 -11.065,-15.849c-6.977,-0 -22.32,7.546 -41.523,20.424c-31.314,20.999 -36.475,25.813 -22.333,20.835c4.468,-1.573 13.811,-4.325 20.761,-6.116Z" style="fill:#a2a2a2;fill-rule:nonzero;"/><path id="path12" d="M1053.91,507.819c-1.111,-16.851 -1.133,-16.875 -17.444,-18.854c-12.104,-1.468 -27.99,-9.811 -61.381,-32.237l-45.05,-30.256l-129.984,-2.412c-296.44,-5.501 -370.094,-7.674 -370.094,-10.922c0,-1.88 -67.333,-3.419 -149.629,-3.419c-94.748,0 -150.439,-1.437 -151.837,-3.919c-1.438,-2.553 50.383,-4.279 148.727,-4.952l150.934,-1.035l0,-158.492l-150.745,-1.034c-96.34,-0.661 -150.746,-2.449 -150.746,-4.953c0,-2.521 54.078,-3.919 151.648,-3.919c83.407,0 151.648,-1.475 151.648,-3.278c0,-3.244 191.159,-10.344 397.174,-14.752c105.125,-2.25 106.69,-2.405 119.977,-11.936c7.405,-5.311 15.123,-9.657 17.151,-9.657c2.028,-0 3.688,-1.783 3.688,-3.962c0,-2.18 1.714,-3.963 3.809,-3.963c2.095,0 13.774,-7.426 25.953,-16.502c16.164,-12.046 26.836,-16.997 39.519,-18.335l17.375,-1.832l0,-30.69l411.682,0l-1.871,406.137l-409.393,2.046l-1.111,-16.872Zm152.341,4.92l0,-51.51l180.279,0l1.03,-93.451c0.567,-51.398 0.353,-94.191 -0.474,-95.095c-0.828,-0.905 -41.928,-1.645 -91.335,-1.645l-89.83,0l2.136,-53.491l123.665,-1.043l123.665,-1.042l0,-91.029l-393.563,-0l0,388.306l144.427,0Zm249.136,-7.924l0,-35.661l-238.304,-0l0,35.661l238.304,-0Zm0,-43.586l0,-190.191l-57.77,0l-0,190.191l57.77,0Zm-400.784,-46.979l0,-15.28l-24.638,-2.513c-13.552,-1.382 -29.704,-4.45 -35.894,-6.818c-6.191,-2.369 -15.007,-3.705 -19.592,-2.97c-6.93,1.11 -4.376,3.94 15.132,16.762c36.451,23.959 40.721,26.049 53.257,26.075c11.215,0.024 11.735,-0.653 11.735,-15.256Zm-158.869,3.394l0.006,-196.135l-94.783,0.932c-52.131,0.512 -115.732,2.74 -141.336,4.952c-25.605,2.212 -86.128,4.022 -134.498,4.022l-87.944,0l-0,178.304l134.497,0.498c73.974,0.274 158.057,1.744 186.852,3.268c28.795,1.523 71.446,3.082 94.78,3.464l42.426,0.695Zm158.869,-97.201c0,-9.229 -1.986,-14.829 -5.835,-16.45c-5.465,-2.301 -29.651,1.552 -71.79,11.438l-18.049,4.235l18.049,5.032c26.57,7.409 33.945,8.602 56.864,9.198l20.761,0.539l0,-13.992Zm400.784,-57.329l0,-35.661l-238.304,-0l0,35.661l238.304,-0Zm-453.139,-16.084c7.944,-1.861 23.067,-3.46 33.607,-3.555l19.163,-0.173l-1.11,-16.84c-1.086,-16.476 -1.385,-16.832 -13.829,-16.468c-7.372,0.216 -19.515,5.158 -28.885,11.757c-8.892,6.261 -21.854,14.746 -28.804,18.854c-6.951,4.108 -14.262,9.306 -16.248,11.551c-3.599,4.068 -2.452,3.905 36.106,-5.126Z" style="fill:#ff0003;fill-rule:nonzero;"/><path id="path10" d="M1053.91,507.819c-1.111,-16.851 -1.133,-16.875 -17.444,-18.854c-12.104,-1.468 -27.99,-9.811 -61.381,-32.237l-45.05,-30.256l-129.984,-2.412c-296.44,-5.501 -370.094,-7.674 -370.094,-10.922c0,-1.88 -67.333,-3.419 -149.629,-3.419c-94.748,0 -150.439,-1.437 -151.837,-3.919c-1.438,-2.553 50.383,-4.279 148.727,-4.952l150.934,-1.035l0,-158.492l-150.745,-1.034c-96.34,-0.661 -150.746,-2.449 -150.746,-4.953c0,-2.521 54.078,-3.919 151.648,-3.919c83.407,0 151.648,-1.475 151.648,-3.278c0,-3.244 191.159,-10.344 397.174,-14.752c105.125,-2.25 106.69,-2.405 119.977,-11.936c7.405,-5.311 15.123,-9.657 17.151,-9.657c2.028,-0 3.688,-1.783 3.688,-3.962c0,-2.18 1.714,-3.963 3.809,-3.963c2.095,0 13.774,-7.426 25.953,-16.502c16.164,-12.046 26.836,-16.997 39.519,-18.335l17.375,-1.832l0,-30.69l411.682,0l-1.871,406.137l-409.393,2.046l-1.111,-16.872Zm152.341,4.92l0,-51.51l180.279,0l1.03,-93.451c0.567,-51.398 0.353,-94.191 -0.474,-95.095c-0.828,-0.905 -41.928,-1.645 -91.335,-1.645l-89.83,0l2.136,-53.491l123.665,-1.043l123.665,-1.042l0,-91.029l-393.563,-0l0,388.306l144.427,0Zm249.136,-7.924l0,-35.661l-238.304,-0l0,35.661l238.304,-0Zm0,-43.586l0,-190.191l-57.77,0l-0,190.191l57.77,0Zm-400.784,-46.979l0,-15.28l-24.638,-2.513c-13.552,-1.382 -29.704,-4.45 -35.894,-6.818c-6.191,-2.369 -15.007,-3.705 -19.592,-2.97c-6.93,1.11 -4.376,3.94 15.132,16.762c36.451,23.959 40.721,26.049 53.257,26.075c11.215,0.024 11.735,-0.653 11.735,-15.256Zm-158.869,3.394l0.006,-196.135l-94.783,0.932c-52.131,0.512 -115.732,2.74 -141.336,4.952c-25.605,2.212 -86.128,4.022 -134.498,4.022l-87.944,0l-0,178.304l134.497,0.498c73.974,0.274 158.057,1.744 186.852,3.268c28.795,1.523 71.446,3.082 94.78,3.464l42.426,0.695Zm159.247,-31.699l-2.183,-41.604l-28.886,-2.631c-15.886,-1.447 -44.206,-6.351 -62.932,-10.897c-18.725,-4.545 -38.629,-8.265 -44.23,-8.265c-10.04,0 -10.184,0.336 -10.184,23.774l-0,23.774l24.372,0.379c13.404,0.209 36.558,3.549 51.452,7.423c14.894,3.873 37.32,7.268 49.835,7.545l22.756,0.502Zm-0.378,-65.502c0,-9.229 -1.986,-14.829 -5.835,-16.45c-5.465,-2.301 -29.651,1.552 -71.79,11.438l-18.049,4.235l18.049,5.032c26.57,7.409 33.945,8.602 56.864,9.198l20.761,0.539l0,-13.992Zm-75.824,-15.648c24.823,-5.389 52.039,-9.839 60.479,-9.89l15.345,-0.093l0,-44.723l-26.177,2.661c-14.398,1.464 -31.052,4.296 -37.01,6.293c-16.739,5.612 -65.963,15.958 -75.926,15.958c-8.302,-0 -8.924,1.381 -8.924,19.811l-0,19.812l13.54,-0.015c7.447,-0.009 33.85,-4.425 58.673,-9.814l0,0Zm476.608,-41.681l0,-35.661l-238.304,-0l0,35.661l238.304,-0Zm-453.139,-16.084c7.944,-1.861 23.067,-3.46 33.607,-3.555l19.163,-0.173l-1.11,-16.84c-1.086,-16.476 -1.385,-16.832 -13.829,-16.468c-7.372,0.216 -19.515,5.158 -28.885,11.757c-8.892,6.261 -21.854,14.746 -28.804,18.854c-6.951,4.108 -14.262,9.306 -16.248,11.551c-3.599,4.068 -2.452,3.905 36.106,-5.126Z" style="fill:#606060;fill-rule:nonzero;"/><path d="M906.57,292.831c0.054,-16.55 0.929,-17.83 8.923,-17.83c6.665,-0 30.904,-4.631 51.231,-9.377c6.621,-1.431 13.163,-3.089 19.232,-4.902c2.065,-0.593 3.905,-1.156 5.463,-1.679c5.958,-1.997 22.612,-4.829 37.01,-6.293l26.177,-2.661l0,44.723l-15.345,0.093c-8.44,0.051 -35.656,4.502 -60.479,9.89c-24.823,5.389 -51.226,9.805 -58.673,9.814l-13.54,0.015l-0,-19.812c-0,-0.672 0,-1.332 0.001,-1.981Z" style="fill:#e2ee16;"/><path id="path9" d="M1054.61,520.664l0,-31.699l-16.291,0c-16.422,0 -29.493,-7.582 -84.808,-49.193l-16.248,-12.222l-79.434,-2.546c-43.689,-1.4 -157.832,-3.881 -253.65,-5.512c-142.385,-2.425 -174.215,-3.942 -174.215,-8.308c0,-4.379 -27.486,-5.535 -152.55,-6.419l-152.551,-1.078l305.101,-1.892l0,-162.455l-151.648,-0c-98.691,-0 -151.648,-1.384 -151.648,-3.963c0,-2.578 52.856,-3.962 151.347,-3.962c98.194,0 151.772,-1.398 152.557,-3.982c0.77,-2.535 75.37,-5.601 205.207,-8.434c112.198,-2.448 225.606,-5.211 252.017,-6.14l48.021,-1.689l38.116,-25.608c20.964,-14.085 41.554,-28.251 45.757,-31.482c4.203,-3.23 13.779,-5.873 21.281,-5.873c13.505,-0 13.639,-0.156 13.639,-15.85l0,-15.849l408.006,0l-0,404.156l-408.006,-0Zm155.259,-7.925l-0,-51.51l180.533,0l0,-190.191l-180.533,0l-0,-51.406l123.665,-1.042l123.666,-1.043l1.017,-46.557l1.017,-46.557l-397.403,-0l0,388.306l148.038,0Zm249.136,-7.924l0,-35.661l-245.525,-0l-0,35.661l245.525,-0Zm0.131,-43.586l-1.936,-188.21l-61.382,0l-1.936,188.21l65.254,0Zm-404.526,-47.043c0,-15.345 -0,-15.346 -17.151,-17.628c-9.432,-1.255 -30.089,-4.965 -45.902,-8.245c-15.814,-3.279 -29.243,-5.424 -29.843,-4.765c-0.6,0.658 9.089,8.017 21.531,16.352c12.441,8.336 26.496,18.413 31.232,22.393c5.306,4.46 14.66,7.238 24.372,7.238l15.761,-0l0,-15.345Zm-158.869,7.42l-0,-202.078l-29.788,0.063c-16.384,0.035 -75.283,1.71 -130.887,3.721c-55.604,2.012 -145.375,4.869 -199.489,6.349l-98.391,2.691l-0,176.098l89.364,2.607c49.15,1.434 131.609,2.844 183.241,3.134c51.633,0.289 106.064,1.788 120.958,3.33c14.894,1.542 35.61,3.092 46.036,3.444l18.956,0.641Zm158.869,-36.493l0,-41.914l-27.983,-1.999c-15.39,-1.099 -44.23,-5.74 -64.089,-10.312c-19.859,-4.572 -40.424,-8.319 -45.702,-8.327c-9.095,-0.012 -9.659,1.14 -10.832,22.119c-0.68,12.172 -0.56,22.87 0.268,23.774c0.827,0.903 11.388,1.713 23.469,1.801c12.081,0.087 38.646,4.143 59.035,9.013c20.388,4.871 43.541,8.178 51.452,7.35l14.382,-1.505Zm0,-46.715l0,-35.661l-14.926,-0c-8.21,-0 -20.802,1.692 -27.983,3.76c-7.181,2.068 -23.316,6.028 -35.856,8.799l-22.799,5.038l33.361,7.084c18.348,3.896 34.159,7.96 35.136,9.032c0.976,1.071 8.815,1.948 17.421,1.948l15.646,-0Zm-75.824,-33.603c24.823,-5.389 52.039,-9.839 60.479,-9.89l15.345,-0.093l0,-44.723l-26.177,2.661c-14.398,1.464 -31.052,4.278 -37.01,6.253c-20.806,6.899 -49.432,12.035 -67.072,12.035l-17.778,0l-0,43.586l13.54,-0.015c7.447,-0.009 33.85,-4.425 58.673,-9.814l0,0Zm478.414,-39.7l2.201,-37.642l-245.921,-0l-0,17.17c-0,9.443 1.104,18.382 2.455,19.864c1.35,1.482 56.187,2.225 121.86,1.651l119.405,-1.043Zm-450.379,-17.921c8.468,-2.13 22.685,-3.872 31.593,-3.872l16.196,0l0,-17.83c0,-17.489 -0.225,-17.83 -11.735,-17.766c-6.454,0.036 -17.727,4.048 -25.052,8.916c-7.325,4.867 -22.32,14.754 -33.323,21.97c-32.436,21.274 -30.742,21.925 22.321,8.582Z" style="fill:#303393;fill-rule:nonzero;"/><path id="path8" d="M1054.61,520.664l0,-31.699l-16.291,0c-16.422,0 -29.493,-7.582 -84.808,-49.193l-16.248,-12.222l-79.434,-2.546c-43.689,-1.4 -157.832,-3.881 -253.65,-5.512c-142.385,-2.425 -174.215,-3.942 -174.215,-8.308c0,-4.379 -27.486,-5.535 -152.55,-6.419l-152.551,-1.078l305.101,-1.892l0,-162.455l-151.648,-0c-98.691,-0 -151.648,-1.384 -151.648,-3.963c0,-2.578 52.856,-3.962 151.347,-3.962c98.194,0 151.772,-1.398 152.557,-3.982c0.77,-2.535 75.37,-5.601 205.207,-8.434c112.198,-2.448 225.606,-5.211 252.017,-6.14l48.021,-1.689l38.116,-25.608c20.964,-14.085 41.554,-28.251 45.757,-31.482c4.203,-3.23 13.779,-5.873 21.281,-5.873c13.505,-0 13.639,-0.156 13.639,-15.85l0,-15.849l408.006,0l-0,404.156l-408.006,-0Zm155.259,-7.925l-0,-51.51l180.533,0l0,-190.191l-180.533,0l-0,-51.406l123.665,-1.042l123.666,-1.043l1.017,-46.557l1.017,-46.557l-397.403,-0l0,388.306l148.038,0Zm249.136,-7.924l0,-35.661l-245.525,-0l-0,35.661l245.525,-0Zm0.131,-43.586l-1.936,-188.21l-61.382,0l-1.936,188.21l65.254,0Zm-404.526,-47.043c0,-15.345 -0,-15.346 -17.151,-17.628c-9.432,-1.255 -30.089,-4.965 -45.902,-8.245c-15.814,-3.279 -29.243,-5.424 -29.843,-4.765c-0.6,0.658 9.089,8.017 21.531,16.352c12.441,8.336 26.496,18.413 31.232,22.393c5.306,4.46 14.66,7.238 24.372,7.238l15.761,-0l0,-15.345Zm-158.869,7.42l-0,-202.078l-29.788,0.063c-16.384,0.035 -75.283,1.71 -130.887,3.721c-55.604,2.012 -145.375,4.869 -199.489,6.349l-98.391,2.691l-0,176.098l89.364,2.607c49.15,1.434 131.609,2.844 183.241,3.134c51.633,0.289 106.064,1.788 120.958,3.33c14.894,1.542 35.61,3.092 46.036,3.444l18.956,0.641Zm158.869,-36.493l0,-41.914l-27.983,-1.999c-15.39,-1.099 -44.23,-5.74 -64.089,-10.312c-19.859,-4.572 -40.424,-8.319 -45.702,-8.327c-9.095,-0.012 -9.659,1.14 -10.832,22.119c-0.68,12.172 -0.56,22.87 0.268,23.774c0.827,0.903 11.388,1.713 23.469,1.801c12.081,0.087 38.646,4.143 59.035,9.013c20.388,4.871 43.541,8.178 51.452,7.35l14.382,-1.505Zm0,-46.715l0,-35.661l-14.926,-0c-8.21,-0 -20.802,1.692 -27.983,3.76c-7.181,2.068 -23.316,6.028 -35.856,8.799l-22.799,5.038l33.361,7.084c18.348,3.896 34.159,7.96 35.136,9.032c0.976,1.071 8.815,1.948 17.421,1.948l15.646,-0Zm-75.824,-33.603c24.823,-5.389 52.039,-9.839 60.479,-9.89l15.345,-0.093l0,-44.723l-26.177,2.661c-14.398,1.464 -31.052,4.278 -37.01,6.253c-20.806,6.899 -49.432,12.035 -67.072,12.035l-17.778,0l-0,43.586l13.54,-0.015c7.447,-0.009 33.85,-4.425 58.673,-9.814l0,0Zm478.414,-39.7l2.201,-37.642l-245.921,-0l-0,17.17c-0,9.443 1.104,18.382 2.455,19.864c1.35,1.482 56.187,2.225 121.86,1.651l119.405,-1.043Zm-516.227,-7.445c3.917,-3.006 12.809,-9.038 19.76,-13.407c6.95,-4.368 25.002,-16.174 40.115,-26.234c19.34,-12.875 31.371,-18.292 40.62,-18.292l13.142,-0l0,-39.624l-14.06,0c-11.128,0 -23.355,6.198 -58.631,29.718c-37.018,24.682 -47.178,29.717 -59.958,29.717l-15.388,0l-0,43.586l13.639,-0c7.502,-0 16.844,-2.459 20.761,-5.464Zm65.848,-10.476c8.468,-2.13 22.685,-3.872 31.593,-3.872l16.196,0l0,-17.83c0,-17.489 -0.225,-17.83 -11.735,-17.766c-6.454,0.036 -17.727,4.048 -25.052,8.916c-7.325,4.867 -22.32,14.754 -33.323,21.97c-32.436,21.274 -30.742,21.925 22.321,8.582Z" style="fill:#080808;fill-rule:nonzero;"/><path d="M940.969,257.65c-3.917,3.005 -13.259,5.464 -20.761,5.464l-13.639,-0l-0,-43.586l15.388,0c12.78,0 22.94,-5.035 59.958,-29.717c35.276,-23.52 47.503,-29.718 58.631,-29.718l14.06,0l0,39.624l-13.142,-0c-9.249,-0 -21.28,5.417 -40.62,18.292c-15.113,10.06 -33.165,21.866 -40.115,26.234c-6.951,4.369 -15.843,10.401 -19.76,13.407Z" style="fill:#0300ff;"/><path d="M1036.83,451.999c3.122,-4.717 1.827,-11.082 -2.89,-14.204l-73.149,-48.413c-4.717,-3.122 -11.082,-1.827 -14.204,2.891l-11.314,17.094c-3.122,4.717 -1.827,11.082 2.891,14.204l73.148,48.413c4.717,3.122 11.082,1.827 14.204,-2.89l11.314,-17.095Z"/><path d="M1055.41,448.561c-0,-5.131 -4.166,-9.297 -9.297,-9.297l-25.743,0c-5.131,0 -9.296,4.166 -9.296,9.297l-0,18.592c-0,5.131 4.165,9.296 9.296,9.296l25.743,0c5.131,0 9.297,-4.165 9.297,-9.296l-0,-18.592Z"/><path d="M960.544,393.379c-0,-5.459 -4.433,-9.892 -9.893,-9.892l-31.702,0c-5.46,0 -9.892,4.433 -9.892,9.892l-0,19.784c-0,5.46 4.432,9.893 9.892,9.893l31.702,-0c5.46,-0 9.893,-4.433 9.893,-9.893l-0,-19.784Z"/></g></g></svg>