<?xml version="1.0" encoding="UTF-8"?>
<svg id="Layer_1" data-name="Layer 1" xmlns="http://www.w3.org/2000/svg" viewBox="0 0 140.33 74.75">
  <defs>
    <style>
      .cls-1 {
        stroke: blue;
      }

      .cls-1, .cls-2, .cls-3, .cls-4 {
        fill: none;
        stroke-linecap: round;
        stroke-linejoin: round;
        stroke-width: .46px;
      }

      .cls-5 {
        letter-spacing: -.04em;
      }

      .cls-6 {
        letter-spacing: .04em;
      }

      .cls-7 {
        letter-spacing: .09em;
      }

      .cls-2 {
        stroke: #c04040;
      }

      .cls-8 {
        letter-spacing: -.02em;
      }

      .cls-9 {
        letter-spacing: .02em;
      }

      .cls-3 {
        stroke: #000;
      }

      .cls-10 {
        letter-spacing: .03em;
      }

      .cls-4 {
        stroke: #d0d0d0;
      }

      .cls-11 {
        fill: #c04040;
        font-family: ArialMT, Arial;
        font-size: 4.57px;
      }
    </style>
  </defs>
  <line class="cls-3" x1="102.92" y1="36.1" x2="101.1" y2="38.84"/>
  <line class="cls-3" x1="91.97" y1="34.73" x2="99.27" y2="34.73"/>
  <line class="cls-3" x1="91.97" y1="41.58" x2="99.27" y2="41.58"/>
  <line class="cls-3" x1="95.62" y1="41.58" x2="95.62" y2="46.15"/>
  <line class="cls-3" x1="99.27" y1="34.73" x2="95.62" y2="41.58"/>
  <line class="cls-3" x1="95.62" y1="41.58" x2="91.97" y2="34.73"/>
  <line class="cls-3" x1="99.73" y1="37.47" x2="101.1" y2="38.84"/>
  <line class="cls-3" x1="102.92" y1="36.1" x2="99.73" y2="37.47"/>
  <line class="cls-3" x1="102.47" y1="36.56" x2="97.9" y2="40.21"/>
  <line class="cls-3" x1="95.62" y1="30.16" x2="95.62" y2="34.73"/>
  <line class="cls-3" x1="102.01" y1="37.01" x2="100.64" y2="38.38"/>
  <line class="cls-3" x1="101.55" y1="37.01" x2="100.18" y2="37.47"/>
  <line class="cls-3" x1="100.18" y1="37.47" x2="100.64" y2="37.93"/>
  <text class="cls-11" transform="translate(105.2 33.36)"><tspan class="cls-6" x="0" y="0">L</tspan><tspan class="cls-10" x="2.74" y="0">E</tspan><tspan x="5.93" y="0">D</tspan></text>
  <line class="cls-3" x1="66.88" y1="56.19" x2="63.23" y2="56.19"/>
  <line class="cls-3" x1="80.11" y1="56.19" x2="83.76" y2="56.19"/>
  <rect class="cls-3" x="66.88" y="53" width="12.77" height="6.39"/>
  <text class="cls-11" transform="translate(63.23 51.62)"><tspan x="0" y="0">R</tspan></text>
  <line class="cls-3" x1="60.04" y1="62.59" x2="66.88" y2="62.59"/>
  <line class="cls-3" x1="63.23" y1="56.19" x2="63.23" y2="62.59"/>
  <path class="cls-3" d="m71.9,24.45c0-1.14.91-2.06,2.05-2.06s2.05.91,2.05,2.06-.91,2.06-2.05,2.06-2.05-.91-2.05-2.06h0Z"/>
  <line class="cls-3" x1="58.21" y1="24.68" x2="76.46" y2="17.83"/>
  <line class="cls-2" x1="53.65" y1="24.68" x2="58.21" y2="24.68"/>
  <line class="cls-2" x1="44.53" y1="24.68" x2="53.65" y2="24.68"/>
  <rect class="cls-4" x="44.53" y="24.22" height=".91"/>
  <line class="cls-2" x1="81.02" y1="24.68" x2="76.46" y2="24.68"/>
  <line class="cls-2" x1="90.15" y1="24.68" x2="81.02" y2="24.68"/>
  <rect class="cls-4" x="90.15" y="24.22" height=".91"/>
  <text class="cls-11" transform="translate(44.53 16.46)"><tspan class="cls-10" x="0" y="0">S</tspan><tspan class="cls-5" x="3.2" y="0">W</tspan><tspan class="cls-9" x="7.31" y="0">I</tspan><tspan class="cls-7" x="8.68" y="0">T</tspan><tspan class="cls-8" x="11.88" y="0">C</tspan><tspan x="15.07" y="0">H</tspan></text>
  <line class="cls-1" x1="90.15" y1="24.68" x2="95.62" y2="24.68"/>
  <line class="cls-1" x1="95.62" y1="24.68" x2="95.62" y2="30.16"/>
  <line class="cls-1" x1="95.62" y1="46.15" x2="95.62" y2="56.19"/>
  <line class="cls-1" x1="95.62" y1="56.19" x2="81.48" y2="56.19"/>
  <path class="cls-3" d="m34.95,24.68c0-2.28,2.03-4.11,4.56-4.11s4.56,1.83,4.56,4.11-2.03,4.11-4.56,4.11-4.56-1.83-4.56-4.11h0Z"/>
</svg>