<?xml version="1.0" encoding="UTF-8"?>
<svg id="Layer_1" data-name="Layer 1" xmlns="http://www.w3.org/2000/svg" viewBox="0 0 108.99 72.49">
  <defs>
    <style>
      .cls-1 {
        letter-spacing: -.02em;
      }

      .cls-2 {
        letter-spacing: .01em;
      }

      .cls-3 {
        letter-spacing: 0em;
      }

      .cls-4 {
        letter-spacing: .06em;
      }

      .cls-5 {
        letter-spacing: -.03em;
      }

      .cls-6 {
        letter-spacing: .06em;
      }

      .cls-7 {
        stroke: #c04040;
      }

      .cls-7, .cls-8, .cls-9 {
        fill: none;
      }

      .cls-7, .cls-8, .cls-9, .cls-10 {
        stroke-linecap: round;
        stroke-linejoin: round;
        stroke-width: .46px;
      }

      .cls-11 {
        letter-spacing: .04em;
      }

      .cls-12 {
        letter-spacing: -.02em;
      }

      .cls-8, .cls-10 {
        stroke: #000;
      }

      .cls-13 {
        letter-spacing: .03em;
      }

      .cls-14 {
        letter-spacing: .03em;
      }

      .cls-15 {
        letter-spacing: .03em;
      }

      .cls-16 {
        letter-spacing: .03em;
      }

      .cls-9 {
        stroke: #d0d0d0;
      }

      .cls-17 {
        letter-spacing: -.02em;
      }

      .cls-18 {
        font-size: 5.94px;
      }

      .cls-18, .cls-19 {
        font-family: ArialMT, Arial;
      }

      .cls-20 {
        letter-spacing: 0em;
      }

      .cls-19 {
        fill: #c04040;
        font-size: 4.57px;
      }
    </style>
  </defs>
  <line class="cls-7" x1="37.05" y1="34.67" x2="39.78" y2="34.67"/>
  <line class="cls-7" x1="32.94" y1="34.67" x2="37.05" y2="34.67"/>
  <rect class="cls-9" x="32.94" y="34.21" height=".91"/>
  <line class="cls-7" x1="51.19" y1="46.54" x2="51.19" y2="43.8"/>
  <line class="cls-7" x1="51.19" y1="50.65" x2="51.19" y2="46.54"/>
  <rect class="cls-9" x="51.19" y="50.2" height=".91"/>
  <line class="cls-7" x1="51.19" y1="22.79" x2="51.19" y2="25.53"/>
  <line class="cls-7" x1="51.19" y1="18.68" x2="51.19" y2="22.79"/>
  <rect class="cls-9" x="51.19" y="18.23" height=".91"/>
  <line class="cls-8" x1="46.63" y1="30.1" x2="46.63" y2="39.23"/>
  <line class="cls-8" x1="46.63" y1="32.38" x2="51.19" y2="27.82"/>
  <line class="cls-8" x1="46.63" y1="36.95" x2="51.19" y2="41.52"/>
  <line class="cls-8" x1="51.19" y1="27.82" x2="51.19" y2="25.53"/>
  <line class="cls-8" x1="51.19" y1="41.52" x2="51.19" y2="43.8"/>
  <line class="cls-8" x1="46.63" y1="34.67" x2="39.78" y2="34.67"/>
  <path class="cls-8" d="m39.78,34.44c0-4.95,3.95-8.91,8.9-8.91s8.9,3.96,8.9,8.91-3.95,8.91-8.9,8.91-8.9-3.96-8.9-8.91h0Z"/>
  <polygon class="cls-10" points="51.19 39.23 48.91 41.52 51.19 41.52 51.19 39.23 51.19 39.23"/>
  <text class="cls-19" transform="translate(32.94 17.32)"><tspan class="cls-12" x="0" y="0">N</tspan><tspan class="cls-14" x="3.2" y="0">P</tspan><tspan x="6.39" y="0">N</tspan></text>
  <text class="cls-18" transform="translate(14.7 35.13)"><tspan class="cls-16" x="0" y="0">B</tspan><tspan class="cls-17" x="4.11" y="0">a</tspan><tspan class="cls-11" x="7.31" y="0">s</tspan><tspan x="10.5" y="0">e</tspan></text>
  <text class="cls-18" transform="translate(50.73 58.86)"><tspan class="cls-16" x="0" y="0">E</tspan><tspan class="cls-2" x="4.11" y="0">m</tspan><tspan class="cls-20" x="9.13" y="0">i</tspan><tspan class="cls-13" x="10.5" y="0">tt</tspan><tspan class="cls-1" x="14.14" y="0">e</tspan><tspan x="17.34" y="0">r</tspan></text>
  <text class="cls-18" transform="translate(51.19 15.94)"><tspan class="cls-5" x="0" y="0">C</tspan><tspan class="cls-4" x="4.12" y="0">o</tspan><tspan class="cls-3" x="7.77" y="0">ll</tspan><tspan class="cls-17" x="10.5" y="0">e</tspan><tspan class="cls-11" x="13.7" y="0">c</tspan><tspan class="cls-15" x="16.9" y="0">t</tspan><tspan class="cls-6" x="18.72" y="0">o</tspan><tspan x="22.37" y="0">r</tspan></text>
</svg>