<svg width="195" height="48" viewBox="0 0 195 48" xmlns="http://www.w3.org/2000/svg"><g fill-rule="nonzero" fill="none"><g fill="#00A1E1"><path d="M16.07.287h7.94v19.826h-7.94zM16.07 28.045h7.94v19.828h-7.94zM.195.287h7.94v47.586H.195z"/></g><path d="M55.77 24.08V.287h-7.94V24.08c0 2.19-1.783 3.966-3.97 3.966-2.2 0-3.97-1.776-3.97-3.966V.287h-7.94l-.003 23.793c0 6.586 5.325 11.898 11.914 11.898 6.59 0 11.912-5.312 11.912-11.898h-.003z" fill="#E6302B"/><g><path fill="#00A1E1" d="M77.15 19.98v-8.508h-3.234v8.508h-3.234V.28h3.234v8.166h3.233V.28h3.233v19.7H77.15M88.637 20.208c-2.695 0-4.85-1.656-4.85-4.797V4.964c0-3.284 2.155-4.91 4.85-4.91s4.85 1.626 4.85 4.796v10.447c0 3.255-2.155 4.91-4.85 4.91zm1.616-15.36c0-1.084-.623-1.74-1.616-1.74-.993 0-1.617.656-1.617 1.74v10.563c0 1.086.624 1.714 1.617 1.714s1.616-.627 1.616-1.713V4.85zM101.628 20.208c-2.695 0-4.85-1.656-4.85-4.797V4.964c0-3.284 2.155-4.91 4.85-4.91 2.694 0 4.85 1.626 4.85 4.796v1.426h-3.234V4.85c0-1.086-.624-1.743-1.616-1.743-.993 0-1.617.657-1.617 1.742v10.56c0 1.086.625 1.714 1.618 1.714.992 0 1.616-.627 1.616-1.713v-3.596h-1.815v-2.94h5.048v6.423c0 3.255-2.156 4.91-4.85 4.91zM109.88 19.98V.28h8.738v3.027h-5.503v5.14h4.652v3.024h-4.652v5.483h5.503v3.026h-8.737M126.107 20.208c-2.724 0-4.88-1.856-4.88-4.51v-1.372h3.234v1.085c0 1.2.767 1.714 1.647 1.714.965 0 1.617-.627 1.617-1.713v-.684c0-.97-.256-1.54-.993-2.17l-3.858-3.254c-.652-.543-1.645-1.827-1.645-3.597v-.97c0-2.74 1.93-4.683 4.88-4.683 2.922 0 4.88 1.856 4.88 4.683v1.313h-3.263V4.735c0-.97-.652-1.628-1.617-1.628-.88 0-1.646.657-1.646 1.628v.656c0 .886.34 1.37.91 1.857l3.858 3.254c1.19 1 1.758 2.028 1.758 3.598v1.542c0 2.626-2.185 4.568-4.88 4.568zM138.785 20.208c-2.694 0-4.85-1.656-4.85-4.797V4.964c0-3.284 2.156-4.91 4.85-4.91 2.695 0 4.85 1.626 4.85 4.796v2.168h-3.233v-2.17c0-1.084-.624-1.74-1.617-1.74-.992 0-1.616.656-1.616 1.74v10.563c0 1.086.623 1.714 1.615 1.714.993 0 1.617-.627 1.617-1.713v-2.397h3.234v2.284c0 3.255-2.156 4.91-4.85 4.91zM153.507 19.98v-8.508h-3.234v8.508h-3.233V.28h3.233v8.166h3.234V.28h3.234v19.7h-3.233M164.994 20.208c-2.695 0-4.85-1.656-4.85-4.797V4.964c0-3.284 2.156-4.91 4.85-4.91 2.695 0 4.85 1.626 4.85 4.796v10.447c0 3.255-2.155 4.91-4.85 4.91zm1.617-15.36c0-1.084-.623-1.74-1.616-1.74-.992 0-1.616.656-1.616 1.74v10.563c0 1.086.624 1.714 1.616 1.714.993 0 1.617-.627 1.617-1.713V4.85zM177.985 20.208c-2.695 0-4.85-1.656-4.85-4.797V4.964c0-3.284 2.156-4.91 4.85-4.91 2.695 0 4.85 1.626 4.85 4.796v10.447c0 3.255-2.155 4.91-4.85 4.91zm1.617-15.36c0-1.084-.624-1.74-1.617-1.74-.992 0-1.616.656-1.616 1.74v10.563c0 1.086.623 1.714 1.615 1.714.993 0 1.617-.627 1.617-1.713V4.85zM186.24 19.98V.28h3.232v16.673h5.503v3.026h-8.736"/><path d="M75.504 47.797c-2.666 0-4.822-1.655-4.822-4.796V27.87h3.234V43c0 1.086.624 1.714 1.588 1.714.993 0 1.646-.628 1.646-1.713V27.87h3.234v15.017c0 3.255-2.156 4.91-4.88 4.91zM89.403 30.782V47.57H86.17V30.78H82.48V27.87H93.09v2.912h-3.687M101.6 47.57v-6.11c0-1.427-.34-2.17-1.73-2.17h-1.504v8.28h-3.234v-19.7h4.936c3.15 0 4.765 1.827 4.765 4.996v1.4c0 1.712-.51 2.854-1.616 3.482 1.106.57 1.616 1.656 1.616 3.483v6.34H101.6zm0-14.504c0-1.4-.34-2.17-1.73-2.17h-1.504v5.368h1.503c1.39 0 1.73-.8 1.73-2.2v-.998zM108.236 47.57v-19.7h8.737v3.026h-5.503v5.14h4.652v3.026h-4.652v5.48h5.503v3.027M125 47.797c-2.695 0-4.85-1.655-4.85-4.796V32.553c0-3.284 2.155-4.91 4.85-4.91 2.696 0 4.85 1.626 4.85 4.796v2.17h-3.232v-2.17c0-1.085-.624-1.742-1.618-1.742-.993 0-1.617.657-1.617 1.742V43c0 1.086.624 1.714 1.617 1.714.994 0 1.618-.628 1.618-1.713v-2.397h3.233v2.284c0 3.255-2.155 4.91-4.85 4.91zM139.722 47.57V39.06h-3.234v8.507h-3.234v-19.7h3.234v8.166h3.234V27.87h3.233v19.7M151.975 30.782V47.57h-3.233V30.78h-3.688V27.87h10.61v2.912h-3.69" fill="#E6302B"/></g></g></svg>