<?xml version="1.0" encoding="UTF-8" standalone="no"?>
<!DOCTYPE svg PUBLIC "-//W3C//DTD SVG 1.1//EN" "http://www.w3.org/Graphics/SVG/1.1/DTD/svg11.dtd">
<svg width="100%" height="100%" viewBox="0 0 152 128" version="1.1" xmlns="http://www.w3.org/2000/svg" xmlns:xlink="http://www.w3.org/1999/xlink" xml:space="preserve" xmlns:serif="http://www.serif.com/" style="fill-rule:evenodd;clip-rule:evenodd;stroke-linejoin:round;stroke-miterlimit:2;">
    <g transform="matrix(1,0,0,1,-4147,-119)">
        <path d="M4191.01,193.525L4212,193.525L4212,246L4191.01,246L4191.01,193.525ZM4191.01,120L4212,120L4212,172.47L4191.01,172.47L4191.01,120ZM4149,120L4169.99,120L4169.99,245.94L4149,245.94L4149,120Z" style="fill:white;fill-opacity:0.49;"/>
        <path d="M4295.99,182.662L4295.99,120L4275,120L4275,182.662C4275,188.429 4270.28,193.111 4264.5,193.111C4258.68,193.111 4254.01,188.429 4254.01,182.662L4254.01,120L4233.01,120L4233,182.662C4233,200.013 4247.08,214 4264.5,214C4281.92,214 4296,200.013 4296,182.662L4295.99,182.662Z" style="fill:white;"/>
    </g>
</svg>
