<?xml version="1.0" encoding="UTF-8"?>
<svg id="s1" xmlns="http://www.w3.org/2000/svg" version="1.1" viewBox="0 0 230 253">
  <!-- Generator: Adobe Illustrator 29.1.0, SVG Export Plug-In . SVG Version: 2.1.0 Build 142)  -->
  <defs>
    <style>
      .st0 {
        stroke-width: .2px;
      }

      .st0, .st1 {
        font-family: Helvetica, Helvetica;
        font-size: 10px;
      }

      .st0, .st1, .st2, .st3 {
        isolation: isolate;
      }

      .st0, .st4, .st2, .st5, .st6, .st7 {
        stroke: #000;
      }

      .st0, .st4, .st2, .st5, .st7 {
        fill: none;
      }

      .st4 {
        stroke-linejoin: bevel;
      }

      .st4, .st5 {
        stroke-width: 3px;
      }

      .st2 {
        stroke-width: .3px;
      }

      .st2, .st3 {
        font-family: Helvetica-Oblique, Helvetica;
        font-size: 18px;
        font-style: oblique;
      }

      .st6 {
        fill: #fff;
        stroke-width: 1.8px;
      }

      .st7 {
        stroke-width: 6px;
      }
    </style>
  </defs>
  <g id="g1">
    <path class="st5" d="M55,20h40v25M95,105v25h70M95,130v25M95,215v25"/>
    <path class="st7" d="M77,240h36"/>
    <path id="rstr2" class="st4" d="M95,43v4h-8v54h16v-54h-8M95,101v4"/>
    <path id="rstr21" data-name="rstr2" class="st4" d="M95,153v4h-8v54h16v-54h-8M95,211v4"/>
  </g>
  <g>
    <circle class="st6" cx="50" cy="20" r="5"/>
    <circle class="st6" cx="160" cy="130" r="5"/>
  </g>
  <g>
    <g>
      <text class="st3" transform="translate(20 28)"><tspan x="0" y="0">V</tspan></text>
      <text class="st2" transform="translate(20 28)"><tspan x="0" y="0">V</tspan></text>
      <text class="st3" transform="translate(173 137)"><tspan x="0" y="0">V</tspan></text>
      <text class="st2" transform="translate(173 137)"><tspan x="0" y="0">V</tspan></text>
      <text class="st3" transform="translate(117 85)"><tspan x="0" y="0">R</tspan></text>
      <text class="st2" transform="translate(117 85)"><tspan x="0" y="0">R</tspan></text>
      <text class="st3" transform="translate(117 195)"><tspan x="0" y="0">R</tspan></text>
      <text class="st2" transform="translate(117 195)"><tspan x="0" y="0">R</tspan></text>
    </g>
    <g>
      <text class="st1" transform="translate(29 34)"><tspan x="0" y="0">in</tspan></text>
      <text class="st0" transform="translate(29 34)"><tspan x="0" y="0">in</tspan></text>
      <text class="st1" transform="translate(182 143)"><tspan x="0" y="0">out</tspan></text>
      <text class="st0" transform="translate(182 143)"><tspan x="0" y="0">out</tspan></text>
      <text class="st1" transform="translate(132 91)"><tspan x="0" y="0">1</tspan></text>
      <text class="st0" transform="translate(132 91)"><tspan x="0" y="0">1</tspan></text>
      <text class="st1" transform="translate(132 201)"><tspan x="0" y="0">2</tspan></text>
      <text class="st0" transform="translate(132 201)"><tspan x="0" y="0">2</tspan></text>
    </g>
  </g>
  <g>
    <path d="M28.4,44.1h-3l-.3,2c.2,0,.3,0,.6,0,.6,0,1.2.1,1.7.4.6.3,1.1,1,1.1,2,0,1.5-1.2,2.7-2.9,2.7s-1.6-.2-1.9-.5l.3-.8c.3.2,1,.4,1.7.4s1.8-.7,1.8-1.7c0-1-.7-1.7-2.2-1.7s-.8,0-1.1,0l.5-3.7h3.7v.9Z"/>
    <path d="M32,51l-2.6-8.1h1.1l1.3,4c.3,1.1.6,2.1.9,3h0c.2-.9.6-2,.9-3l1.4-4h1.1l-2.9,8.1h-1.2Z"/>
  </g>
  <g>
    <path d="M177,160.2c.3.2,1,.5,1.7.5,1.3,0,1.8-.9,1.8-1.5,0-1.1-1-1.6-2-1.6h-.6v-.8h.6c.8,0,1.7-.4,1.7-1.3s-.4-1.2-1.4-1.2-1.2.3-1.6.5l-.3-.8c.4-.3,1.2-.6,2-.6,1.5,0,2.2.9,2.2,1.9s-.5,1.5-1.4,1.8h0c1,.2,1.7.9,1.7,2s-1,2.3-2.8,2.3-1.6-.3-2-.5l.3-.8Z"/>
    <path d="M182.5,162.9c.3-.7.6-2,.7-2.9h1.2c-.3.9-.8,2.2-1.1,2.8h-.7Z"/>
    <path d="M185.6,160.2c.3.2,1,.5,1.7.5,1.3,0,1.8-.9,1.8-1.5,0-1.1-1-1.6-2-1.6h-.6v-.8h.6c.8,0,1.7-.4,1.7-1.3s-.4-1.2-1.4-1.2-1.2.3-1.6.5l-.3-.8c.4-.3,1.2-.6,2-.6,1.5,0,2.2.9,2.2,1.9s-.5,1.5-1.4,1.8h0c1,.2,1.7.9,1.7,2s-1,2.3-2.8,2.3-1.6-.3-2-.5l.3-.8Z"/>
    <path d="M193.7,161.4l-2.6-8.1h1.1l1.3,4c.3,1.1.6,2.1.9,3h0c.2-.9.6-2,.9-3l1.4-4h1.1l-2.9,8.1h-1.2Z"/>
  </g>
  <g>
    <path d="M121.4,98.2h0l-1.4.7-.2-.8,1.7-.9h.9v7.8h-1v-6.8Z"/>
    <path d="M130.5,101c0,2.6-1,4.1-2.7,4.1s-2.6-1.4-2.6-4c0-2.6,1.1-4.1,2.7-4.1s2.6,1.5,2.6,4ZM126.2,101.1c0,2,.6,3.2,1.6,3.2s1.6-1.3,1.6-3.2-.5-3.2-1.6-3.2-1.6,1.1-1.6,3.2Z"/>
    <path d="M132.8,101.9h0c.1-.2.3-.5.5-.7l1.7-2h1.3l-2.2,2.4,2.6,3.4h-1.3l-2-2.8-.5.6v2.2h-1v-8.5h1v5.4Z"/>
    <path d="M136.9,105v-.8h1.7c-.8-.7-1.6-1.9-1.6-3.5,0-2.3,1.6-3.9,3.8-3.9s3.6,1.7,3.6,3.8-.8,2.8-1.6,3.5h0s1.8,0,1.8,0v.8h-3v-.7c1-.7,1.8-1.9,1.8-3.6s-.9-3.1-2.6-3.1-2.7,1.6-2.7,3.2.8,3,1.8,3.5v.7h-3Z"/>
  </g>
  <g>
    <path d="M120.4,215v-.6l.8-.8c2-1.9,2.9-2.9,2.9-4.1,0-.8-.4-1.5-1.5-1.5s-1.3.4-1.7.7l-.3-.7c.5-.5,1.3-.8,2.2-.8,1.7,0,2.4,1.2,2.4,2.3s-1,2.6-2.7,4.2l-.6.6h0s3.5,0,3.5,0v.9h-5Z"/>
    <path d="M131.7,211c0,2.6-1,4.1-2.7,4.1s-2.6-1.4-2.6-4c0-2.6,1.1-4.1,2.7-4.1s2.6,1.5,2.6,4ZM127.5,211.1c0,2,.6,3.2,1.6,3.2s1.6-1.3,1.6-3.2-.5-3.2-1.6-3.2-1.6,1.1-1.6,3.2Z"/>
    <path d="M134.1,211.9h0c.1-.2.3-.5.5-.7l1.7-2h1.3l-2.2,2.4,2.6,3.4h-1.3l-2-2.8-.5.6v2.2h-1v-8.5h1v5.4Z"/>
    <path d="M138.1,215v-.8h1.7c-.8-.7-1.6-1.9-1.6-3.5,0-2.3,1.6-3.9,3.8-3.9s3.6,1.7,3.6,3.8-.8,2.8-1.6,3.5h0s1.8,0,1.8,0v.8h-3v-.7c1-.7,1.8-1.9,1.8-3.6s-.9-3.1-2.6-3.1-2.7,1.6-2.7,3.2.8,3,1.8,3.5v.7h-3Z"/>
  </g>
</svg>