<?xml version="1.0" encoding="UTF-8"?>
<svg width="200px" height="200px" viewBox="0 0 200 200" version="1.1" xmlns="http://www.w3.org/2000/svg" xmlns:xlink="http://www.w3.org/1999/xlink">
    <!-- Generator: Sketch 52.2 (67145) - http://www.bohemiancoding.com/sketch -->
    <title>Artboard</title>
    <desc>Created with Sketch.</desc>
    <g id="Artboard" stroke="none" stroke-width="1" fill="none" fill-rule="evenodd">
        <rect fill="#FFFFFF" x="0" y="0" width="200" height="200"></rect>
        <path d="M23,132 L41.9946408,132 L41.9946408,95.3343031 L61.0041225,118.854707 L79.8503547,95.5433734 L80.0152531,95.6038078 L80.0152531,131.9902 L99,131.9902 L99,68.0620677 C98.8235588,68.0457341 98.7147259,68.0261338 98.6058929,68.0261338 C92.5904012,68.0245004 86.5699625,68.0163336 80.5528217,68.0457341 C80.1922773,68.0835383 79.8609109,68.2593743 79.629391,68.5357425 C75.3805102,73.7766548 71.1360267,79.0202894 66.8959405,84.2666462 C64.9583849,86.6644208 63.0191803,89.060562 61.0123674,91.5400046 C60.7122524,91.175765 60.4830437,90.904627 60.2604309,90.6302223 C54.3306863,83.3084076 48.4108356,75.9773371 42.5008787,68.6370109 C42.1430493,68.1911033 41.7951138,68 41.2064267,68 C35.4086008,68.0228671 29.6107748,68.0147003 23.8129489,68.0147003 C23.5458135,68.0163336 23.2803272,68.0392007 23,68.0539009 L23,24 L176,24 L176,177 L23,177 L23,132 Z M141.461272,132 L170,100.893836 L150.980224,100.893836 L150.980224,68 L131.917599,68 L131.917599,100.977174 L113,100.977174 L141.461272,132 Z" id="Combined-Shape" fill="#000000"></path>
        <g id="Group" transform="translate(23.000000, 68.000000)"></g>
    </g>
</svg>