<?xml version="1.0" encoding="UTF-8"?>
<svg xmlns="http://www.w3.org/2000/svg" viewBox="0 0 120.46 82.17">
  <defs>
    <style>
      .cls-1, .cls-2, .cls-3, .cls-4 {
        fill: #00a14b;
      }

      .cls-1, .cls-3, .cls-5, .cls-4, .cls-6, .cls-7 {
        stroke-miterlimit: 10;
      }

      .cls-1, .cls-3, .cls-4 {
        font-family: BaskOldFace, 'Baskerville Old Face';
      }

      .cls-1, .cls-3, .cls-4, .cls-6 {
        stroke: #00a14b;
      }

      .cls-1, .cls-4 {
        font-size: 6px;
      }

      .cls-1, .cls-4, .cls-6 {
        stroke-width: .25px;
      }

      .cls-2 {
        stroke-width: 0px;
      }

      .cls-3 {
        font-size: 7.45px;
      }

      .cls-5 {
        fill: #fff;
        stroke: #fff;
      }

      .cls-4 {
        letter-spacing: 0em;
      }

      .cls-6, .cls-7 {
        fill: none;
      }

      .cls-7 {
        stroke: #7f3f98;
        stroke-width: 2px;
      }
    </style>
  </defs>
  <g id="Layer_2" data-name="Layer 2">
    <rect class="cls-5" x=".5" y=".5" width="119.46" height="81.17"/>
    <text class="cls-3" transform="translate(78.12 25.94)"><tspan x="0" y="0">I </tspan></text>
    <text class="cls-4" transform="translate(82.66 27.94) scale(.58)"><tspan x="0" y="0">2</tspan></text>
    <text class="cls-3" transform="translate(51.17 65.14)"><tspan x="0" y="0">I </tspan></text>
    <text class="cls-4" transform="translate(55.72 67.14) scale(.58)"><tspan x="0" y="0">3</tspan></text>
    <text class="cls-1" transform="translate(22.96 37.08)"><tspan x="0" y="0">1A</tspan></text>
    <text class="cls-1" transform="translate(77 43.3)"><tspan x="0" y="0">5A</tspan></text>
    <g>
      <path class="cls-2" d="m28.02,28.85l5.2,3.22"/>
      <g>
        <path class="cls-6" d="m28.02,28.85c1.94,1.2,3.16,1.96,3.92,2.43"/>
        <path class="cls-2" d="m33.22,32.07c-.74-.15-1.73-.23-2.44-.11l.99-.78.26-1.24c.21.69.73,1.54,1.19,2.14Z"/>
      </g>
    </g>
    <g>
      <path class="cls-2" d="m80.7,36.75l6.06-.82"/>
      <g>
        <path class="cls-6" d="m80.7,36.75c2.26-.31,3.68-.5,4.57-.62"/>
        <path class="cls-2" d="m86.76,35.93c-.67.36-1.48.92-1.96,1.47l.27-1.24-.59-1.12c.61.4,1.54.73,2.28.89Z"/>
      </g>
    </g>
    <text class="cls-1" transform="translate(59.33 63.55)"><tspan x="0" y="0">?</tspan></text>
  </g>
  <g id="Layer_1" data-name="Layer 1">
    <text class="cls-3" transform="translate(32.25 20.38)"><tspan x="0" y="0">I </tspan></text>
    <text class="cls-4" transform="translate(36.79 22.38) scale(.58)"><tspan x="0" y="0">1</tspan></text>
    <path class="cls-7" d="m45.98,37.85c.61,1.33.63,2.89.6,4.41-.14,8.06-1.23,16.2-3.24,24.17"/>
    <path class="cls-7" d="m45.04,37.85c12.73-4.77,27.84-3.98,41.66-6.59"/>
    <path class="cls-7" d="m45.98,37.85c-4.57-5.59-10.79-10.22-17.95-13.37"/>
  </g>
</svg>