<?xml version="1.0" encoding="UTF-8"?>
<svg id="Layer_1" data-name="Layer 1" xmlns="http://www.w3.org/2000/svg" viewBox="0 0 109.72 120.15">
  <defs>
    <style>
      .cls-1 {
        stroke: blue;
      }

      .cls-1, .cls-2, .cls-3, .cls-4 {
        fill: none;
        stroke-linecap: round;
        stroke-linejoin: round;
        stroke-width: .46px;
      }

      .cls-5 {
        letter-spacing: -.02em;
      }

      .cls-2 {
        stroke: #408080;
        stroke-dasharray: 0 0 1.82 1.82;
      }

      .cls-6 {
        letter-spacing: .04em;
      }

      .cls-7 {
        letter-spacing: .06em;
      }

      .cls-8 {
        letter-spacing: 0em;
      }

      .cls-3 {
        stroke: #000;
      }

      .cls-9 {
        letter-spacing: -.02em;
      }

      .cls-10 {
        fill: #008020;
        font-size: 5.94px;
      }

      .cls-10, .cls-11 {
        font-family: ArialMT, Arial;
      }

      .cls-4 {
        stroke: red;
      }

      .cls-11 {
        fill: #c04040;
        font-size: 4.57px;
      }
    </style>
  </defs>
  <line class="cls-3" x1="47.24" y1="38.5" x2="47.24" y2="34.85"/>
  <line class="cls-3" x1="47.24" y1="51.74" x2="47.24" y2="55.4"/>
  <rect class="cls-3" x="43.59" y="38.5" width="6.39" height="12.79"/>
  <text class="cls-11" transform="translate(54.08 43.52)"><tspan class="cls-6" x="0" y="0">100</tspan><tspan x="8.21" y="0">Ω</tspan></text>
  <text class="cls-11" transform="translate(54.08 38.04)"><tspan x="0" y="0">R</tspan></text>
  <line class="cls-3" x1="47.24" y1="65.9" x2="47.24" y2="62.25"/>
  <line class="cls-3" x1="47.24" y1="79.15" x2="47.24" y2="82.8"/>
  <rect class="cls-3" x="43.59" y="65.9" width="6.39" height="12.79"/>
  <text class="cls-11" transform="translate(54.08 70.93)"><tspan class="cls-6" x="0" y="0">50</tspan><tspan x="5.47" y="0">Ω</tspan></text>
  <text class="cls-11" transform="translate(54.08 65.44)"><tspan x="0" y="0">R</tspan></text>
  <line class="cls-1" x1="47.24" y1="53.11" x2="47.24" y2="62.25"/>
  <rect class="cls-2" x="33.55" y="30.28" width="40.6" height="54.35"/>
  <line class="cls-1" x1="47.24" y1="80.52" x2="47.24" y2="89.65"/>
  <line class="cls-1" x1="47.24" y1="34.85" x2="47.24" y2="25.71"/>
  <text class="cls-10" transform="translate(60.93 92.85)"><tspan class="cls-9" x="0" y="0">1</tspan><tspan class="cls-7" x="3.2" y="0">5</tspan><tspan class="cls-5" x="6.85" y="0">0</tspan><tspan class="cls-8" x="10.05" y="0">Ω</tspan></text>
  <rect class="cls-4" x="60.01" y="93.3" width="1.37" height="1.37"/>
</svg>