<?xml version="1.0" encoding="UTF-8"?>
<svg id="Layer_1" data-name="Layer 1" xmlns="http://www.w3.org/2000/svg" viewBox="0 0 127.72 80.71">
  <defs>
    <style>
      .cls-1 {
        stroke: blue;
      }

      .cls-1, .cls-2 {
        fill: none;
        stroke-linecap: round;
        stroke-linejoin: round;
        stroke-width: .46px;
      }

      .cls-3 {
        letter-spacing: .04em;
      }

      .cls-4 {
        letter-spacing: .09em;
      }

      .cls-5 {
        letter-spacing: 0em;
      }

      .cls-6 {
        letter-spacing: -.02em;
      }

      .cls-2 {
        stroke: #000;
      }

      .cls-7 {
        letter-spacing: .03em;
      }

      .cls-8 {
        fill: #c04040;
        font-family: ArialMT, Arial;
        font-size: 4.57px;
      }
    </style>
  </defs>
  <line class="cls-2" x1="36.23" y1="47.69" x2="36.23" y2="54.54"/>
  <line class="cls-2" x1="36.23" y1="45.4" x2="36.23" y2="38.55"/>
  <line class="cls-2" x1="38.51" y1="42.21" x2="41.25" y2="42.21"/>
  <line class="cls-2" x1="33.95" y1="47.69" x2="38.51" y2="47.69"/>
  <line class="cls-2" x1="31.67" y1="45.4" x2="40.79" y2="45.4"/>
  <line class="cls-2" x1="39.88" y1="40.84" x2="39.88" y2="43.58"/>
  <text class="cls-8" transform="translate(43.53 47.22)"><tspan class="cls-3" x="0" y="0">10</tspan><tspan class="cls-5" x="5.47" y="0">V</tspan></text>
  <text class="cls-8" transform="translate(43.53 41.75)"><tspan class="cls-7" x="0" y="0">BA</tspan><tspan class="cls-4" x="6.39" y="0">TT</tspan><tspan class="cls-7" x="12.79" y="0">E</tspan><tspan class="cls-6" x="15.98" y="0">R</tspan><tspan x="19.18" y="0">Y</tspan></text>
  <line class="cls-1" x1="36.23" y1="38.55" x2="36.23" y2="26.68"/>
  <line class="cls-2" x1="33.04" y1="60.93" x2="39.88" y2="60.93"/>
  <line class="cls-2" x1="36.23" y1="54.54" x2="36.23" y2="60.93"/>
  <path class="cls-2" d="m32.12,23.02c0-2.03,1.72-3.65,3.88-3.65s3.88,1.62,3.88,3.65-1.72,3.65-3.88,3.65-3.88-1.62-3.88-3.65h0Z"/>
  <path class="cls-2" d="m79.57,22.11c0-2.03,1.72-3.65,3.88-3.65s3.88,1.62,3.88,3.65-1.72,3.65-3.88,3.65-3.88-1.62-3.88-3.65h0Z"/>
  <line class="cls-2" x1="83.22" y1="35.81" x2="83.22" y2="32.16"/>
  <line class="cls-2" x1="83.22" y1="49.06" x2="83.22" y2="52.71"/>
  <rect class="cls-2" x="79.57" y="35.81" width="6.39" height="12.79"/>
  <text class="cls-8" transform="translate(88.7 40.84)"><tspan class="cls-3" x="0" y="0">200</tspan><tspan x="8.21" y="0">Ω</tspan></text>
  <text class="cls-8" transform="translate(88.7 35.34)"><tspan x="0" y="0">R</tspan></text>
  <line class="cls-1" x1="83.22" y1="32.16" x2="83.22" y2="26.68"/>
  <line class="cls-2" x1="80.03" y1="61.84" x2="86.87" y2="61.84"/>
  <line class="cls-2" x1="83.22" y1="55.45" x2="83.22" y2="61.84"/>
  <line class="cls-1" x1="83.22" y1="50.43" x2="83.22" y2="49.97"/>
  <line class="cls-1" x1="83.22" y1="49.97" x2="83.22" y2="55.45"/>
  <line class="cls-1" x1="36.23" y1="54.54" x2="36.23" y2="54.54"/>
</svg>