<?xml version="1.0" encoding="UTF-8"?>
<svg id="Layer_1" data-name="Layer 1" xmlns="http://www.w3.org/2000/svg" viewBox="0 0 158 104">
  <defs>
    <style>
      .cls-1 {
        stroke: blue;
      }

      .cls-1, .cls-2, .cls-3, .cls-4, .cls-5 {
        stroke-linecap: round;
        stroke-linejoin: round;
        stroke-width: .46px;
      }

      .cls-1, .cls-3, .cls-4, .cls-5 {
        fill: none;
      }

      .cls-6 {
        letter-spacing: -.02em;
      }

      .cls-7 {
        letter-spacing: 0em;
      }

      .cls-2 {
        fill-rule: evenodd;
      }

      .cls-2, .cls-4 {
        stroke: #000;
      }

      .cls-8 {
        letter-spacing: .04em;
      }

      .cls-9 {
        letter-spacing: .06em;
      }

      .cls-10 {
        letter-spacing: -.05em;
      }

      .cls-11 {
        letter-spacing: .09em;
      }

      .cls-3 {
        stroke: #c04040;
      }

      .cls-12 {
        letter-spacing: 0em;
      }

      .cls-13 {
        letter-spacing: -.02em;
      }

      .cls-14 {
        letter-spacing: .03em;
      }

      .cls-5 {
        stroke: #d0d0d0;
      }

      .cls-15 {
        letter-spacing: -.02em;
      }

      .cls-16 {
        letter-spacing: .09em;
      }

      .cls-17 {
        font-size: 5.94px;
      }

      .cls-17, .cls-18 {
        font-family: ArialMT, Arial;
      }

      .cls-18 {
        fill: #c04040;
        font-size: 4.57px;
      }
    </style>
  </defs>
  <line class="cls-4" x1="73.85" y1="53.05" x2="73.85" y2="49.39"/>
  <line class="cls-4" x1="73.85" y1="66.29" x2="73.85" y2="69.94"/>
  <rect class="cls-4" x="70.2" y="53.05" width="6.39" height="12.79"/>
  <text class="cls-18" transform="translate(79.32 58.07)"><tspan class="cls-8" x="0" y="0">200</tspan><tspan x="8.21" y="0">Ω</tspan></text>
  <text class="cls-18" transform="translate(79.32 52.59)"><tspan x="0" y="0">R</tspan></text>
  <line class="cls-4" x1="105.78" y1="53.05" x2="105.78" y2="49.39"/>
  <line class="cls-4" x1="105.78" y1="66.29" x2="105.78" y2="69.94"/>
  <rect class="cls-4" x="102.13" y="53.05" width="6.39" height="12.79"/>
  <text class="cls-18" transform="translate(111.26 58.07)"><tspan class="cls-8" x="0" y="0">200</tspan><tspan x="8.21" y="0">Ω</tspan></text>
  <text class="cls-18" transform="translate(111.26 52.59)"><tspan x="0" y="0">R</tspan></text>
  <line class="cls-4" x1="32.79" y1="58.98" x2="32.79" y2="65.83"/>
  <line class="cls-4" x1="32.79" y1="56.7" x2="32.79" y2="49.85"/>
  <line class="cls-4" x1="35.07" y1="53.5" x2="37.81" y2="53.5"/>
  <line class="cls-4" x1="30.51" y1="58.98" x2="35.07" y2="58.98"/>
  <line class="cls-4" x1="28.23" y1="56.7" x2="37.35" y2="56.7"/>
  <line class="cls-4" x1="36.44" y1="52.13" x2="36.44" y2="54.87"/>
  <text class="cls-18" transform="translate(40.09 58.52)"><tspan class="cls-8" x="0" y="0">10</tspan><tspan class="cls-12" x="5.47" y="0">V</tspan></text>
  <text class="cls-18" transform="translate(40.09 53.05)"><tspan class="cls-14" x="0" y="0">BA</tspan><tspan class="cls-11" x="6.39" y="0">TT</tspan><tspan class="cls-14" x="12.79" y="0">E</tspan><tspan class="cls-13" x="15.98" y="0">R</tspan><tspan x="19.18" y="0">Y</tspan></text>
  <line class="cls-1" x1="32.79" y1="49.85" x2="32.79" y2="40.72"/>
  <line class="cls-1" x1="32.79" y1="40.72" x2="73.85" y2="40.72"/>
  <line class="cls-1" x1="73.85" y1="40.72" x2="77.5" y2="41.17"/>
  <line class="cls-1" x1="105.78" y1="67.66" x2="105.78" y2="74.05"/>
  <line class="cls-1" x1="73.85" y1="49.39" x2="73.85" y2="40.72"/>
  <path class="cls-2" d="m72.48,40.72c0-.76.61-1.37,1.37-1.37s1.37.61,1.37,1.37-.61,1.37-1.37,1.37-1.37-.61-1.37-1.37h0Z"/>
  <line class="cls-1" x1="105.78" y1="49.39" x2="105.78" y2="41.17"/>
  <line class="cls-1" x1="77.5" y1="41.17" x2="105.78" y2="41.17"/>
  <line class="cls-1" x1="73.85" y1="67.66" x2="73.85" y2="74.05"/>
  <path class="cls-2" d="m72.48,74.05c0-.76.61-1.37,1.37-1.37s1.37.61,1.37,1.37-.61,1.37-1.37,1.37-1.37-.61-1.37-1.37h0Z"/>
  <line class="cls-1" x1="105.78" y1="74.05" x2="73.85" y2="74.05"/>
  <line class="cls-1" x1="73.85" y1="74.05" x2="32.79" y2="74.05"/>
  <line class="cls-1" x1="32.79" y1="65.83" x2="32.79" y2="74.05"/>
  <polyline class="cls-4" points="51.49 29.76 51.49 36.61 56.06 33.41 51.49 29.76"/>
  <line class="cls-3" x1="48.76" y1="33.41" x2="51.49" y2="33.41"/>
  <line class="cls-3" x1="46.93" y1="33.41" x2="48.76" y2="33.41"/>
  <rect class="cls-5" x="46.93" y="32.95" height=".91"/>
  <polyline class="cls-4" points="89.82 66.75 82.97 66.75 86.17 71.31 89.82 66.75"/>
  <line class="cls-3" x1="86.17" y1="64.01" x2="86.17" y2="66.75"/>
  <line class="cls-3" x1="86.17" y1="62.18" x2="86.17" y2="64.01"/>
  <rect class="cls-5" x="86.17" y="62.18"/>
  <polyline class="cls-4" points="120.38 67.2 113.54 67.2 116.73 71.77 120.38 67.2"/>
  <line class="cls-3" x1="116.73" y1="64.46" x2="116.73" y2="67.2"/>
  <line class="cls-3" x1="116.73" y1="62.64" x2="116.73" y2="64.46"/>
  <rect class="cls-5" x="116.73" y="62.64"/>
  <text class="cls-17" transform="translate(33.71 26.09)"><tspan class="cls-15" x="0" y="0">1</tspan><tspan class="cls-9" x="3.2" y="0">0</tspan><tspan class="cls-6" x="6.85" y="0">0</tspan><tspan class="cls-16" x="10.05" y="0">m</tspan><tspan class="cls-7" x="15.53" y="0">A</tspan></text>
  <text class="cls-17" transform="translate(80.69 83.65)"><tspan class="cls-15" x="0" y="0">5</tspan><tspan class="cls-9" x="3.2" y="0">0</tspan><tspan class="cls-10" x="6.85" y="0"> </tspan><tspan class="cls-16" x="8.22" y="0">m</tspan><tspan class="cls-7" x="13.7" y="0">A</tspan></text>
  <text class="cls-17" transform="translate(113.08 83.65)"><tspan class="cls-15" x="0" y="0">5</tspan><tspan class="cls-9" x="3.2" y="0">0</tspan><tspan class="cls-10" x="6.85" y="0"> </tspan><tspan class="cls-16" x="8.22" y="0">m</tspan><tspan class="cls-7" x="13.7" y="0">A</tspan></text>
</svg>