<?xml version="1.0" encoding="UTF-8"?>
<svg id="Layer_1" data-name="Layer 1" xmlns="http://www.w3.org/2000/svg" viewBox="0 0 125.43 94.01">
  <defs>
    <style>
      .cls-1 {
        stroke: blue;
      }

      .cls-1, .cls-2, .cls-3, .cls-4 {
        fill: none;
        stroke-linecap: round;
        stroke-linejoin: round;
        stroke-width: .46px;
      }

      .cls-5 {
        letter-spacing: .04em;
      }

      .cls-6 {
        letter-spacing: .06em;
      }

      .cls-2 {
        stroke: #c04040;
      }

      .cls-7 {
        letter-spacing: .04em;
      }

      .cls-8 {
        letter-spacing: .02em;
      }

      .cls-3 {
        stroke: #000;
      }

      .cls-9 {
        letter-spacing: .03em;
      }

      .cls-4 {
        stroke: #d0d0d0;
      }

      .cls-10 {
        letter-spacing: -.02em;
      }

      .cls-11 {
        font-size: 5.94px;
      }

      .cls-11, .cls-12 {
        font-family: ArialMT, Arial;
      }

      .cls-12 {
        fill: #c04040;
        font-size: 4.57px;
      }

      .cls-13 {
        letter-spacing: .02em;
      }
    </style>
  </defs>
  <line class="cls-3" x1="83.83" y1="42.25" x2="83.83" y2="37.22"/>
  <line class="cls-3" x1="77.44" y1="61.43" x2="75.62" y2="59.14"/>
  <line class="cls-3" x1="73.33" y1="63.25" x2="77.44" y2="61.43"/>
  <line class="cls-3" x1="73.33" y1="63.25" x2="75.62" y2="59.14"/>
  <line class="cls-3" x1="87.93" y1="50.01" x2="73.33" y2="63.25"/>
  <line class="cls-3" x1="87.93" y1="50.01" x2="95.69" y2="50.01"/>
  <line class="cls-3" x1="83.83" y1="61.43" x2="83.83" y2="66.45"/>
  <rect class="cls-3" x="79.72" y="42.25" width="8.21" height="18.72"/>
  <text class="cls-12" transform="translate(96.6 39.5)"><tspan class="cls-5" x="0" y="0">0</tspan><tspan class="cls-8" x="2.74" y="0">..</tspan><tspan class="cls-7" x="5.48" y="0">10</tspan><tspan x="10.95" y="0">V</tspan></text>
  <text class="cls-12" transform="translate(96.6 34.04)"><tspan class="cls-9" x="0" y="0">P</tspan><tspan class="cls-13" x="3.2" y="0">O</tspan><tspan x="6.85" y="0">T</tspan></text>
  <rect class="cls-3" x="24.52" y="39.05" width="8.67" height="17.81"/>
  <line class="cls-3" x1="33.65" y1="48.18" x2="35.93" y2="50.47"/>
  <line class="cls-3" x1="33.65" y1="48.18" x2="35.93" y2="45.9"/>
  <line class="cls-3" x1="33.65" y1="48.18" x2="33.65" y2="48.18"/>
  <line class="cls-3" x1="38.21" y1="48.18" x2="33.65" y2="48.18"/>
  <line class="cls-2" x1="42.77" y1="48.18" x2="38.21" y2="48.18"/>
  <line class="cls-2" x1="51.89" y1="48.18" x2="42.77" y2="48.18"/>
  <rect class="cls-4" x="51.44" y="47.73" width=".91" height=".91"/>
  <line class="cls-2" x1="29.08" y1="34.48" x2="29.08" y2="39.05"/>
  <line class="cls-2" x1="29.08" y1="25.35" x2="29.08" y2="34.48"/>
  <rect class="cls-4" x="28.63" y="24.89" width=".91" height=".91"/>
  <line class="cls-2" x1="29.08" y1="61.88" x2="29.08" y2="57.32"/>
  <line class="cls-2" x1="29.08" y1="71.02" x2="29.08" y2="61.88"/>
  <rect class="cls-4" x="28.63" y="70.56" width=".91" height=".91"/>
  <text class="cls-12" transform="translate(54.17 34.04)"><tspan class="cls-5" x="0" y="0">0</tspan><tspan class="cls-8" x="2.74" y="0">..</tspan><tspan class="cls-7" x="5.48" y="0">10</tspan><tspan x="10.95" y="0">V</tspan></text>
  <text class="cls-12" transform="translate(54.17 28.54)"><tspan class="cls-9" x="0" y="0">P</tspan><tspan class="cls-13" x="3.2" y="0">O</tspan><tspan x="6.85" y="0">T</tspan></text>
  <line class="cls-3" x1="25.89" y1="77.41" x2="32.73" y2="77.41"/>
  <line class="cls-3" x1="29.08" y1="71.02" x2="29.08" y2="77.41"/>
  <line class="cls-3" x1="80.63" y1="77.41" x2="87.48" y2="77.41"/>
  <line class="cls-3" x1="83.83" y1="71.02" x2="83.83" y2="77.41"/>
  <path class="cls-3" d="m24.98,21.24c0-2.03,1.72-3.65,3.88-3.65s3.88,1.62,3.88,3.65-1.72,3.65-3.88,3.65-3.88-1.62-3.88-3.65h0Z"/>
  <path class="cls-3" d="m79.72,20.78c0-2.03,1.72-3.65,3.88-3.65s3.88,1.62,3.88,3.65-1.72,3.65-3.88,3.65-3.88-1.62-3.88-3.65h0Z"/>
  <text class="cls-11" transform="translate(32.74 18.5)"><tspan class="cls-10" x="0" y="0">1</tspan><tspan class="cls-6" x="3.2" y="0">0</tspan><tspan x="6.85" y="0">V</tspan></text>
  <text class="cls-11" transform="translate(87.02 18.5)"><tspan class="cls-10" x="0" y="0">1</tspan><tspan class="cls-6" x="3.2" y="0">0</tspan><tspan x="6.85" y="0">V</tspan></text>
  <line class="cls-1" x1="83.83" y1="71.02" x2="83.83" y2="71.02"/>
  <line class="cls-1" x1="83.83" y1="71.02" x2="83.83" y2="66.45"/>
  <line class="cls-1" x1="83.83" y1="40.42" x2="83.83" y2="40.42"/>
  <line class="cls-1" x1="83.83" y1="40.42" x2="83.83" y2="24.89"/>
</svg>