<?xml version="1.0" encoding="UTF-8"?>
<svg id="Layer_1" data-name="Layer 1" xmlns="http://www.w3.org/2000/svg" viewBox="0 0 239.39 184.36">
  <defs>
    <style>
      .cls-1 {
        stroke: blue;
      }

      .cls-1, .cls-2, .cls-3, .cls-4, .cls-5, .cls-6 {
        stroke-linecap: round;
        stroke-linejoin: round;
        stroke-width: .46px;
      }

      .cls-1, .cls-3, .cls-4, .cls-5, .cls-6 {
        fill: none;
      }

      .cls-7 {
        letter-spacing: -.02em;
      }

      .cls-8 {
        letter-spacing: -.04em;
      }

      .cls-9 {
        letter-spacing: .01em;
      }

      .cls-10 {
        letter-spacing: 0em;
      }

      .cls-2 {
        fill-rule: evenodd;
      }

      .cls-2, .cls-4, .cls-5 {
        stroke: #000;
      }

      .cls-11 {
        letter-spacing: .06em;
      }

      .cls-12 {
        letter-spacing: .09em;
      }

      .cls-13 {
        letter-spacing: -.03em;
      }

      .cls-14 {
        letter-spacing: .02em;
      }

      .cls-15 {
        letter-spacing: .06em;
      }

      .cls-3 {
        stroke: #c04040;
      }

      .cls-16 {
        letter-spacing: -.02em;
      }

      .cls-17 {
        letter-spacing: .02em;
      }

      .cls-5 {
        stroke-dasharray: 0 0 1.82 1.82;
      }

      .cls-18 {
        letter-spacing: .03em;
      }

      .cls-19 {
        letter-spacing: .03em;
      }

      .cls-6 {
        stroke: #d0d0d0;
      }

      .cls-20 {
        letter-spacing: -.02em;
      }

      .cls-21 {
        font-size: 5.94px;
      }

      .cls-21, .cls-22 {
        font-family: ArialMT, Arial;
      }

      .cls-23 {
        letter-spacing: 0em;
      }

      .cls-22 {
        fill: #c04040;
        font-size: 4.57px;
      }
    </style>
  </defs>
  <line class="cls-4" x1="72.99" y1="95.72" x2="65.69" y2="95.72"/>
  <line class="cls-4" x1="72.99" y1="88.87" x2="65.69" y2="88.87"/>
  <line class="cls-4" x1="69.34" y1="88.87" x2="69.34" y2="84.3"/>
  <line class="cls-4" x1="65.69" y1="95.72" x2="69.34" y2="88.87"/>
  <line class="cls-4" x1="69.34" y1="88.87" x2="72.99" y2="95.72"/>
  <line class="cls-4" x1="69.34" y1="100.28" x2="69.34" y2="95.72"/>
  <text class="cls-22" transform="translate(75.27 87.5)"><tspan x="0" y="0">D</tspan></text>
  <line class="cls-3" x1="101.73" y1="83.39" x2="101.73" y2="86.13"/>
  <line class="cls-3" x1="101.73" y1="81.56" x2="101.73" y2="83.39"/>
  <rect class="cls-6" x="101.73" y="81.1" height=".91"/>
  <line class="cls-3" x1="101.73" y1="95.72" x2="101.73" y2="92.98"/>
  <line class="cls-3" x1="101.73" y1="97.54" x2="101.73" y2="95.72"/>
  <rect class="cls-6" x="101.73" y="97.09" height=".91"/>
  <line class="cls-4" x1="98.08" y1="92.98" x2="104.92" y2="86.13"/>
  <rect class="cls-4" x="95.8" y="86.13" width="10.95" height="6.39"/>
  <path class="cls-4" d="m122.26,98.23c0-1.14.91-2.06,2.05-2.06s2.05.91,2.05,2.06-.91,2.06-2.05,2.06-2.05-.91-2.05-2.06h0Z"/>
  <line class="cls-4" x1="124.54" y1="82.47" x2="131.38" y2="100.74"/>
  <line class="cls-3" x1="124.54" y1="77.91" x2="124.54" y2="82.47"/>
  <line class="cls-3" x1="124.54" y1="68.77" x2="124.54" y2="77.91"/>
  <rect class="cls-6" x="124.54" y="68.77"/>
  <line class="cls-3" x1="124.54" y1="105.31" x2="124.54" y2="100.74"/>
  <line class="cls-3" x1="124.54" y1="114.44" x2="124.54" y2="105.31"/>
  <rect class="cls-6" x="124.54" y="114.44"/>
  <text class="cls-22" transform="translate(133.67 71.97)"><tspan class="cls-18" x="0" y="0">S</tspan><tspan class="cls-8" x="3.2" y="0">W</tspan><tspan class="cls-17" x="7.31" y="0">I</tspan><tspan class="cls-12" x="8.68" y="0">T</tspan><tspan class="cls-16" x="11.88" y="0">C</tspan><tspan x="15.07" y="0">H</tspan></text>
  <path class="cls-4" d="m159.66,59.87c0-3.68,2.94-6.62,6.61-6.62s6.61,2.94,6.61,6.62-2.94,6.62-6.61,6.62-6.61-2.94-6.61-6.62h0Z"/>
  <line class="cls-4" x1="161.94" y1="55.53" x2="171.07" y2="64.66"/>
  <line class="cls-4" x1="161.94" y1="64.66" x2="171.07" y2="55.53"/>
  <line class="cls-3" x1="156.93" y1="60.1" x2="159.66" y2="60.1"/>
  <line class="cls-3" x1="155.1" y1="60.1" x2="156.93" y2="60.1"/>
  <rect class="cls-6" x="154.65" y="60.1" width=".91"/>
  <line class="cls-3" x1="176.09" y1="60.1" x2="173.35" y2="60.1"/>
  <line class="cls-3" x1="177.91" y1="60.1" x2="176.09" y2="60.1"/>
  <rect class="cls-6" x="177.46" y="60.1" width=".91"/>
  <line class="cls-1" x1="124.54" y1="68.77" x2="124.54" y2="60.1"/>
  <line class="cls-1" x1="124.54" y1="60.1" x2="155.1" y2="60.1"/>
  <line class="cls-1" x1="124.54" y1="114.44" x2="124.54" y2="121.29"/>
  <line class="cls-1" x1="180.19" y1="121.29" x2="181.56" y2="121.29"/>
  <line class="cls-4" x1="31.01" y1="127.23" x2="37.86" y2="127.23"/>
  <line class="cls-4" x1="34.21" y1="120.84" x2="34.21" y2="127.23"/>
  <line class="cls-1" x1="101.73" y1="81.56" x2="101.73" y2="59.18"/>
  <line class="cls-1" x1="101.73" y1="97.54" x2="101.73" y2="120.84"/>
  <line class="cls-1" x1="69.34" y1="120.84" x2="34.21" y2="120.84"/>
  <line class="cls-1" x1="69.34" y1="84.3" x2="69.34" y2="59.18"/>
  <path class="cls-2" d="m67.97,59.18c0-.76.61-1.37,1.37-1.37s1.37.61,1.37,1.37-.61,1.37-1.37,1.37-1.37-.61-1.37-1.37h0Z"/>
  <line class="cls-1" x1="101.73" y1="59.18" x2="69.34" y2="59.18"/>
  <line class="cls-1" x1="69.34" y1="100.28" x2="69.34" y2="120.84"/>
  <path class="cls-2" d="m67.97,120.84c0-.76.61-1.37,1.37-1.37s1.37.61,1.37,1.37-.61,1.37-1.37,1.37-1.37-.61-1.37-1.37h0Z"/>
  <line class="cls-1" x1="70.7" y1="120.84" x2="69.34" y2="120.84"/>
  <line class="cls-1" x1="69.34" y1="120.84" x2="70.7" y2="120.84"/>
  <path class="cls-2" d="m69.34,120.84c0-.76.61-1.37,1.37-1.37s1.37.61,1.37,1.37-.61,1.37-1.37,1.37-1.37-.61-1.37-1.37h0Z"/>
  <line class="cls-1" x1="101.73" y1="120.84" x2="70.7" y2="120.84"/>
  <line class="cls-1" x1="177.91" y1="60.1" x2="179.74" y2="60.1"/>
  <line class="cls-1" x1="179.74" y1="60.1" x2="179.74" y2="79.73"/>
  <path class="cls-2" d="m178.82,121.29c0-.76.61-1.37,1.37-1.37s1.37.61,1.37,1.37-.61,1.37-1.37,1.37-1.37-.61-1.37-1.37h0Z"/>
  <line class="cls-1" x1="180.19" y1="121.29" x2="180.19" y2="99.83"/>
  <line class="cls-1" x1="124.54" y1="121.29" x2="180.19" y2="121.29"/>
  <line class="cls-1" x1="69.34" y1="59.18" x2="35.12" y2="59.18"/>
  <line class="cls-1" x1="35.12" y1="59.18" x2="35.12" y2="45.48"/>
  <path class="cls-4" d="m29.19,40.91c0-2.79,2.33-5.02,5.25-5.02s5.25,2.23,5.25,5.02-2.33,5.02-5.25,5.02-5.25-2.23-5.25-5.02h0Z"/>
  <rect class="cls-5" x="82.57" y="44.11" width="72.08" height="94.08"/>
  <text class="cls-21" transform="translate(83.48 148.24)"><tspan class="cls-13" x="0" y="0">R</tspan><tspan class="cls-11" x="4.12" y="0">e</tspan><tspan class="cls-10" x="7.77" y="0">l</tspan><tspan class="cls-7" x="9.13" y="0">a</tspan><tspan x="12.34" y="0">y</tspan></text>
  <text class="cls-21" transform="translate(178.37 91.6)"><tspan class="cls-20" x="0" y="0">2</tspan><tspan class="cls-11" x="3.2" y="0">3</tspan><tspan class="cls-7" x="6.85" y="0">0</tspan><tspan class="cls-14" x="10.05" y="0">V</tspan><tspan class="cls-19" x="14.16" y="0"> </tspan><tspan class="cls-9" x="15.98" y="0">m</tspan><tspan class="cls-15" x="21.01" y="0">a</tspan><tspan class="cls-23" x="24.66" y="0">i</tspan><tspan class="cls-15" x="26.03" y="0">n</tspan><tspan x="29.68" y="0">s</tspan></text>
  <text class="cls-21" transform="translate(42.42 42.74)"><tspan class="cls-20" x="0" y="0">1</tspan><tspan class="cls-11" x="3.2" y="0">2</tspan><tspan x="6.85" y="0">V</tspan></text>
</svg>