<?xml version="1.0" encoding="UTF-8"?>
<svg id="Layer_1" data-name="Layer 1" xmlns="http://www.w3.org/2000/svg" viewBox="0 0 114.34 54.42">
  <defs>
    <style>
      .cls-1 {
        letter-spacing: .04em;
      }

      .cls-2 {
        letter-spacing: .09em;
      }

      .cls-3 {
        stroke: #c04040;
      }

      .cls-3, .cls-4, .cls-5, .cls-6 {
        stroke-width: .46px;
      }

      .cls-3, .cls-4, .cls-5, .cls-6, .cls-7 {
        fill: none;
        stroke-linecap: round;
        stroke-linejoin: round;
      }

      .cls-8 {
        letter-spacing: .04em;
      }

      .cls-9 {
        letter-spacing: -.02em;
      }

      .cls-4, .cls-5, .cls-7 {
        stroke: #000;
      }

      .cls-5 {
        stroke-dasharray: 0 0 1.82 1.82;
      }

      .cls-10 {
        letter-spacing: .03em;
      }

      .cls-6 {
        stroke: #d0d0d0;
      }

      .cls-7 {
        stroke-width: .91px;
      }

      .cls-11 {
        fill: #c04040;
        font-family: ArialMT, Arial;
        font-size: 4.57px;
      }
    </style>
  </defs>
  <path class="cls-7" d="m46.88,31.74c0-1.14.91-2.06,2.05-2.06s2.05.91,2.05,2.06-.91,2.06-2.05,2.06-2.05-.91-2.05-2.06h0Z"/>
  <line class="cls-4" x1="35.02" y1="31.05" x2="46.88" y2="27.4"/>
  <line class="cls-3" x1="24.07" y1="31.97" x2="28.63" y2="31.97"/>
  <line class="cls-3" x1="17.23" y1="31.97" x2="24.07" y2="31.97"/>
  <rect class="cls-6" x="16.77" y="31.51" width=".91" height=".91"/>
  <line class="cls-3" x1="56.46" y1="31.97" x2="53.72" y2="31.97"/>
  <line class="cls-3" x1="62.85" y1="31.97" x2="56.46" y2="31.97"/>
  <rect class="cls-6" x="62.39" y="31.51" width=".91" height=".91"/>
  <path class="cls-7" d="m30.91,31.74c0-1.14.91-2.06,2.05-2.06s2.05.91,2.05,2.06-.91,2.06-2.05,2.06-2.05-.91-2.05-2.06h0Z"/>
  <line class="cls-4" x1="30.91" y1="31.97" x2="28.63" y2="31.97"/>
  <polyline class="cls-4" points="51.44 31.97 51.44 31.97 51.44 31.97 51.44 31.97 51.44 31.97 51.44 31.97 51.44 31.97 51.44 31.97 51.9 31.97 51.9 31.97 51.9 31.97 51.9 31.97 52.35 31.97 52.35 31.97 52.35 31.97 52.35 31.97 52.81 31.97 52.81 31.97 53.27 31.97 53.27 31.97 53.27 31.97 53.72 31.97 53.72 31.97"/>
  <line class="cls-5" x1="40.04" y1="25.12" x2="40.04" y2="41.1"/>
  <line class="cls-3" x1="56" y1="18.27" x2="51.44" y2="18.27"/>
  <line class="cls-3" x1="62.85" y1="18.27" x2="56" y2="18.27"/>
  <rect class="cls-6" x="62.39" y="17.81" width=".91" height=".91"/>
  <line class="cls-3" x1="24.07" y1="18.27" x2="28.63" y2="18.27"/>
  <line class="cls-3" x1="17.23" y1="18.27" x2="24.07" y2="18.27"/>
  <rect class="cls-6" x="16.77" y="17.81" width=".91" height=".91"/>
  <polyline class="cls-4" points="49.16 15.98 49.16 15.98 49.16 15.98 49.16 15.98 49.16 16.44 49.16 16.44 49.16 16.44 49.16 16.9 48.7 16.9 48.7 17.35 48.7 17.35 48.7 17.35 48.25 17.35 48.25 17.81 48.25 17.81 48.25 17.81 47.79 17.81 47.79 18.27 47.34 18.27 47.34 18.27 47.34 18.27 46.88 18.27 46.88 18.27"/>
  <polyline class="cls-4" points="49.16 15.98 49.16 15.98 49.16 15.98 49.16 15.98 49.16 16.44 49.16 16.44 49.16 16.44 49.16 16.9 49.62 16.9 49.62 17.35 49.62 17.35 49.62 17.35 50.07 17.35 50.07 17.81 50.07 17.81 50.07 17.81 50.53 17.81 50.53 18.27 50.98 18.27 50.98 18.27 50.98 18.27 51.44 18.27 51.44 18.27"/>
  <polyline class="cls-4" points="44.6 15.98 44.6 15.98 44.6 15.98 44.6 15.98 44.6 16.44 44.6 16.44 44.6 16.44 44.6 16.9 44.14 16.9 44.14 17.35 44.14 17.35 44.14 17.35 43.69 17.35 43.69 17.81 43.69 17.81 43.69 17.81 43.23 17.81 43.23 18.27 42.77 18.27 42.77 18.27 42.77 18.27 42.32 18.27 42.32 18.27"/>
  <polyline class="cls-4" points="44.6 15.98 44.6 15.98 44.6 15.98 44.6 15.98 44.6 16.44 44.6 16.44 44.6 16.44 44.6 16.9 45.05 16.9 45.05 17.35 45.05 17.35 45.05 17.35 45.51 17.35 45.51 17.81 45.51 17.81 45.51 17.81 45.97 17.81 45.97 18.27 46.42 18.27 46.42 18.27 46.42 18.27 46.88 18.27 46.88 18.27"/>
  <polyline class="cls-4" points="40.04 15.98 40.04 15.98 40.04 15.98 40.04 15.98 40.04 16.44 40.04 16.44 40.04 16.44 40.04 16.9 39.58 16.9 39.58 17.35 39.58 17.35 39.58 17.35 39.12 17.35 39.12 17.81 39.12 17.81 39.12 17.81 38.67 17.81 38.67 18.27 38.21 18.27 38.21 18.27 38.21 18.27 37.75 18.27 37.75 18.27"/>
  <polyline class="cls-4" points="40.04 15.98 40.04 15.98 40.04 15.98 40.04 15.98 40.04 16.44 40.04 16.44 40.04 16.44 40.04 16.9 40.49 16.9 40.49 17.35 40.49 17.35 40.49 17.35 40.95 17.35 40.95 17.81 40.95 17.81 40.95 17.81 41.4 17.81 41.4 18.27 41.86 18.27 41.86 18.27 41.86 18.27 42.32 18.27 42.32 18.27"/>
  <polyline class="cls-4" points="35.47 15.98 35.47 15.98 35.47 15.98 35.47 15.98 35.47 16.44 35.47 16.44 35.47 16.44 35.47 16.9 35.02 16.9 35.02 17.35 35.02 17.35 35.02 17.35 34.56 17.35 34.56 17.81 34.56 17.81 34.56 17.81 34.11 17.81 34.11 18.27 33.65 18.27 33.65 18.27 33.65 18.27 33.19 18.27 33.19 18.27"/>
  <polyline class="cls-4" points="35.47 15.98 35.47 15.98 35.47 15.98 35.47 15.98 35.47 16.44 35.47 16.44 35.47 16.44 35.47 16.9 35.93 16.9 35.93 17.35 35.93 17.35 35.93 17.35 36.39 17.35 36.39 17.81 36.39 17.81 36.39 17.81 36.84 17.81 36.84 18.27 37.3 18.27 37.3 18.27 37.3 18.27 37.75 18.27 37.75 18.27"/>
  <polyline class="cls-4" points="30.91 15.98 30.91 15.98 30.91 15.98 30.91 15.98 30.91 16.44 30.91 16.44 30.91 16.44 30.91 16.9 30.46 16.9 30.46 17.35 30.46 17.35 30.46 17.35 30 17.35 30 17.81 30 17.81 30 17.81 29.54 17.81 29.54 18.27 29.09 18.27 29.09 18.27 29.09 18.27 28.63 18.27 28.63 18.27"/>
  <polyline class="cls-4" points="30.91 15.98 30.91 15.98 30.91 15.98 30.91 15.98 30.91 16.44 30.91 16.44 30.91 16.44 30.91 16.9 31.37 16.9 31.37 17.35 31.37 17.35 31.37 17.35 31.82 17.35 31.82 17.81 31.82 17.81 31.82 17.81 32.28 17.81 32.28 18.27 32.74 18.27 32.74 18.27 32.74 18.27 33.19 18.27 33.19 18.27"/>
  <line class="cls-4" x1="49.16" y1="22.83" x2="30.91" y2="22.83"/>
  <polyline class="cls-4" points="49.16 20.55 49.16 20.55 49.16 20.55 49.16 20.55 48.7 20.55 48.7 20.55 48.25 20.55 47.79 20.55 46.88 20.55 46.42 20.55 45.51 20.55 44.6 20.55 43.69 20.55 42.32 20.55 41.4 20.55 40.04 20.55 38.67 20.55 37.75 20.55 36.39 20.55 35.02 20.55 33.65 20.55 32.28 20.55 30.91 20.55"/>
  <rect class="cls-4" x="24.07" y="13.7" width="31.48" height="29.23"/>
  <text class="cls-11" transform="translate(65.12 16.9)"><tspan class="cls-9" x="0" y="0">R</tspan><tspan class="cls-10" x="3.2" y="0">E</tspan><tspan class="cls-1" x="6.39" y="0">L</tspan><tspan class="cls-10" x="9.13" y="0">AY</tspan><tspan class="cls-8" x="15.52" y="0">_</tspan><tspan class="cls-10" x="18.26" y="0">SPS</tspan><tspan class="cls-2" x="27.85" y="0">T</tspan><tspan class="cls-1" x="31.05" y="0">_</tspan><tspan class="cls-9" x="33.78" y="0">N</tspan><tspan x="36.98" y="0">O</tspan></text>
</svg>