<?xml version="1.0" encoding="UTF-8" standalone="no"?>
<!-- Created with Inkscape (http://www.inkscape.org/) -->

<svg
   xmlns:dc="http://purl.org/dc/elements/1.1/"
   xmlns:cc="http://creativecommons.org/ns#"
   xmlns:rdf="http://www.w3.org/1999/02/22-rdf-syntax-ns#"
   xmlns:svg="http://www.w3.org/2000/svg"
   xmlns="http://www.w3.org/2000/svg"
   version="1.1"
   width="103.3225"
   height="112.81875"><title>I²C logo</title>
  <metadata>
    <rdf:RDF>
      <cc:Work rdf:about="">
        <dc:format>image/svg+xml</dc:format>
        <dc:type rdf:resource="http://purl.org/dc/dcmitype/StillImage" />
        <dc:title>I²C logo</dc:title>
        <dc:date>2014-11-10</dc:date>
        <dc:creator><cc:Agent><dc:title>https://commons.wikimedia.org/wiki/User:Xoneca</dc:title></cc:Agent></dc:creator>
        <cc:license rdf:resource="http://creativecommons.org/licenses/publicdomain/" />
        <dc:rights><cc:Agent><dc:title>I²C bus -- logo is a trademark of NXP Semiconductors N.V.</dc:title></cc:Agent></dc:rights>
        <dc:source>http://www.nxp.com/documents/data_sheet/PCA9540B.pdf</dc:source>
        <dc:description>I²C logo extracted from an NXP datasheet as-is.</dc:description>
      </cc:Work>
      <cc:License rdf:about="http://creativecommons.org/licenses/publicdomain/">
        <cc:permits rdf:resource="http://creativecommons.org/ns#Reproduction" />
        <cc:permits rdf:resource="http://creativecommons.org/ns#Distribution" />
        <cc:permits rdf:resource="http://creativecommons.org/ns#DerivativeWorks" />
      </cc:License>
    </rdf:RDF>
  </metadata>
  <defs/>

  <g transform="matrix(1.25,0,0,-1.25,-562.7125,874.3825)">
    <path
       d="m 524.069,655.824 0,-33.166 c 0,-2.319 -1.875,-4.203 -4.195,-4.212 l 0,-0.04 -56.75,0 c -2.325,0 -4.212,1.888 -4.212,4.213 0,0.013 0,0.026 0,0.039 l 0.017,0 0,63.496 c 0,2.32 1.876,4.203 4.195,4.213 l 0,-0.017 56.75,0 c 2.32,0 4.203,-1.876 4.212,-4.196 l -0.017,0 0,-24.151"
       style="fill:#fff;fill-opacity:1;fill-rule:evenodd;stroke:none" />
    <path
       d="m 524.069,655.824 0,-33.166 c 0,-2.319 -1.875,-4.203 -4.195,-4.212 l 0,-0.04 -56.75,0 c -2.325,0 -4.212,1.888 -4.212,4.213 0,0.013 0,0.026 0,0.039 l 0.017,0 0,63.496 c 0,2.32 1.876,4.203 4.195,4.213 l 0,-0.017 56.75,0 c 2.32,0 4.203,-1.876 4.212,-4.196 l -0.017,0 0,-24.151"
       style="fill:none;stroke:#231f20;stroke-width:0.227;stroke-linecap:round;stroke-linejoin:round;stroke-miterlimit:10;stroke-opacity:1" />
    <path
       d="m 521.802,655.824 -11.226,0 0,-5.613 c 0,-1.383 -1.11,-2.511 -2.494,-2.532 l 0,0.038 c -1.384,0 -2.511,1.111 -2.532,2.494 l -0.019,0 0,17.405 c 0,1.397 1.134,2.532 2.532,2.532 0.006,0 0.012,0 0.019,0 l 0,0.019 c 1.398,0 2.532,-1.134 2.532,-2.532 0,-0.007 0,-0.013 0,-0.02 l -0.038,10e-4 0,-5.613 11.226,0 0,23.981 c 0,0.559 -0.222,1.095 -0.617,1.49 -0.393,0.393 -0.925,0.615 -1.481,0.617 l 0,-0.009 -56.41,0 c -0.558,0 -1.094,-0.222 -1.489,-0.617 -0.393,-0.393 -0.615,-0.925 -0.617,-1.481 l -0.048,0 0,-63.212 c 0,-0.559 0.222,-1.095 0.617,-1.49 0.407,-0.407 0.962,-0.63 1.538,-0.616 l -0.001,0.008 56.41,0 c 0.559,0 1.095,0.222 1.49,0.617 0.392,0.393 0.614,0.925 0.617,1.481 l -0.009,0"
       style="fill:#f8f8f8;fill-opacity:1;fill-rule:evenodd;stroke:none" />
    <path
       d="m 521.802,655.824 -11.226,0 0,-5.613 c 0,-1.383 -1.11,-2.511 -2.494,-2.532 l 0,0.038 c -1.384,0 -2.511,1.111 -2.532,2.494 l -0.019,0 0,17.405 c 0,1.397 1.134,2.532 2.532,2.532 0.006,0 0.012,0 0.019,0 l 0,0.019 c 1.398,0 2.532,-1.134 2.532,-2.532 0,-0.007 0,-0.013 0,-0.02 l -0.038,10e-4 0,-5.613 11.226,0 0,23.981 c 0,0.559 -0.222,1.095 -0.617,1.49 -0.393,0.393 -0.925,0.615 -1.481,0.617 l 0,-0.009 -56.41,0 c -0.558,0 -1.094,-0.222 -1.489,-0.617 -0.393,-0.393 -0.615,-0.925 -0.617,-1.481 l -0.048,0 0,-63.212 c 0,-0.559 0.222,-1.095 0.617,-1.49 0.407,-0.407 0.962,-0.63 1.538,-0.616 l -0.001,0.008 56.41,0 c 0.559,0 1.095,0.222 1.49,0.617 0.392,0.393 0.614,0.925 0.617,1.481 l -0.009,0 0,33.052 z m 2.267,6.179 -13.493,0 0,5.613 c 0,1.384 -1.111,2.511 -2.494,2.532 l 0,0.019 c -1.398,0 -2.532,-1.134 -2.532,-2.532 0,-0.006 0,-0.013 0,-0.019 l -0.019,0 0,-17.405 c 0,-1.398 1.134,-2.532 2.532,-2.532 0.006,0 0.013,0 0.019,0 l 0,0.038 c 1.383,0 2.511,1.11 2.532,2.494 l -0.038,0 0,5.613 13.493,0"
       style="fill:none;stroke:#231f20;stroke-width:0.227;stroke-linecap:round;stroke-linejoin:round;stroke-miterlimit:10;stroke-opacity:1" />
    <path
       d="m 519.874,639.836 c 2.32,0 4.203,1.876 4.212,4.195 l -0.017,0.001 0,11.792 -13.493,0 0,-5.613 c 0,-1.383 -1.11,-2.511 -2.494,-2.532 l 0,0.038 c -1.384,0 -2.511,1.111 -2.532,2.494 l -0.019,0 0,17.405 c 0,1.397 1.134,2.532 2.532,2.532 0.006,0 0.012,0 0.019,0 l 0,0.019 c 1.398,0 2.532,-1.134 2.532,-2.532 0,-0.007 0,-0.013 0,-0.02 l -0.038,10e-4 0,-5.613 13.493,0 0,11.792 c 0,1.118 -0.444,2.189 -1.234,2.979 -0.785,0.786 -1.85,1.229 -2.961,1.234 l 0,0.039 -23.584,0 c -1.118,0 -2.189,-0.443 -2.979,-1.234 -0.8,-0.799 -1.244,-1.887 -1.234,-3.017 l -0.039,-0.001 0,-29.763 c 0,-2.325 1.887,-4.212 4.212,-4.212 0.013,0 0.027,0 0.04,0 l 0,0.016"
       style="fill:#fff;fill-opacity:1;fill-rule:evenodd;stroke:none" />
    <path
       d="m 519.874,639.836 c 2.32,0 4.203,1.876 4.212,4.195 l -0.017,0.001 0,11.792 -13.493,0 0,-5.613 c 0,-1.383 -1.11,-2.511 -2.494,-2.532 l 0,0.038 c -1.384,0 -2.511,1.111 -2.532,2.494 l -0.019,0 0,17.405 c 0,1.397 1.134,2.532 2.532,2.532 0.006,0 0.012,0 0.019,0 l 0,0.019 c 1.398,0 2.532,-1.134 2.532,-2.532 0,-0.007 0,-0.013 0,-0.02 l -0.038,10e-4 0,-5.613 13.493,0 0,11.792 c 0,1.118 -0.444,2.189 -1.234,2.979 -0.785,0.786 -1.85,1.229 -2.961,1.234 l 0,0.039 -23.584,0 c -1.118,0 -2.189,-0.443 -2.979,-1.234 -0.8,-0.799 -1.244,-1.887 -1.234,-3.017 l -0.039,-0.001 0,-29.763 c 0,-2.325 1.887,-4.212 4.212,-4.212 0.013,0 0.027,0 0.04,0 l 0,0.016 23.584,0 z"
       style="fill:none;stroke:#231f20;stroke-width:0.227;stroke-linecap:round;stroke-linejoin:round;stroke-miterlimit:10;stroke-opacity:1" />
    <path
       d="m 519.704,642.104 c 0.559,0 1.094,0.222 1.489,0.617 0.393,0.393 0.615,0.925 0.617,1.481 l -0.008,0 0,9.411 -8.958,0 0,-6.066 c 0,-1.16 -0.938,-2.102 -2.097,-2.107 l -0.001,0.009 -5.329,0 c -1.16,0 -2.101,0.938 -2.106,2.097 l 0.009,10e-4 0,22.733 c 0,1.16 0.938,2.102 2.097,2.106 l 0,-0.008 5.329,0 c 1.16,0 2.102,-0.938 2.106,-2.098 l -0.008,0 0,-6.009 9.071,0 0,9.298 c 0,1.207 -0.98,2.186 -2.187,2.186 -0.008,0 -0.016,0 -0.024,0 l 0,0.025 -23.301,0 c -0.558,0 -1.094,-0.222 -1.489,-0.617 -0.393,-0.393 -0.615,-0.925 -0.617,-1.481 l 0.008,0 0,-29.48 c 0,-1.16 0.938,-2.102 2.098,-2.107"
       style="fill:#f8f8f8;fill-opacity:1;fill-rule:evenodd;stroke:none" />
    <path
       d="m 519.704,642.104 c 0.559,0 1.094,0.222 1.489,0.617 0.393,0.393 0.615,0.925 0.617,1.481 l -0.008,0 0,9.411 -8.958,0 0,-6.066 c 0,-1.16 -0.938,-2.102 -2.097,-2.107 l -0.001,0.009 -5.329,0 c -1.16,0 -2.101,0.938 -2.106,2.097 l 0.009,10e-4 0,22.733 c 0,1.16 0.938,2.102 2.097,2.106 l 0,-0.008 5.329,0 c 1.16,0 2.102,-0.938 2.106,-2.098 l -0.008,0 0,-6.009 9.071,0 0,9.298 c 0,1.207 -0.98,2.186 -2.187,2.186 -0.008,0 -0.016,0 -0.024,0 l 0,0.025 -23.301,0 c -0.558,0 -1.094,-0.222 -1.489,-0.617 -0.393,-0.393 -0.615,-0.925 -0.617,-1.481 l 0.008,0 0,-29.48 c 0,-1.16 0.938,-2.102 2.098,-2.107 m 0,0.009 23.301,0"
       style="fill:none;stroke:#231f20;stroke-width:0.227;stroke-linecap:round;stroke-linejoin:round;stroke-miterlimit:10;stroke-opacity:1" />
    <path
       d="m 458.929,639.78 13.493,0 0,38.211 -13.493,0 0,-38.211 z"
       style="fill:#fff;fill-opacity:1;fill-rule:evenodd;stroke:none" />
    <path
       d="m 458.929,639.78 13.493,0 0,38.211 -13.493,0 0,-38.211 z"
       style="fill:none;stroke:#231f20;stroke-width:0.227;stroke-linecap:round;stroke-linejoin:round;stroke-miterlimit:10;stroke-opacity:1" />
    <path
       d="m 461.14,642.047 9.014,0 0,33.676 -9.014,0 0,-33.676 z"
       style="fill:#f8f8f8;fill-opacity:1;fill-rule:evenodd;stroke:none" />
    <path
       d="m 461.14,642.047 9.014,0 0,33.676 -9.014,0 0,-33.676 z m 49.436,19.956 13.493,0 m -13.493,-6.179 13.493,0"
       style="fill:none;stroke:#231f20;stroke-width:0.227;stroke-linecap:round;stroke-linejoin:round;stroke-miterlimit:10;stroke-opacity:1" />
    <path
       d="m 474.917,678.047 c 0,1.132 0.449,2.217 1.249,3.017 0.81,0.81 1.913,1.26 3.059,1.249 l 0,-0.014 6.066,0 c 1.132,0 2.217,-0.449 3.017,-1.249 0.796,-0.797 1.245,-1.876 1.249,-3.003 l -0.014,0 0,-0.68 c 0,-1.132 -0.449,-2.216 -1.249,-3.017 -0.797,-0.796 -1.876,-1.245 -3.003,-1.249 l 0,-0.043 -6.009,0 c -0.51,0 -0.932,-0.398 -0.961,-0.907 l -0.003,0 11.225,0 0,-3.401 -14.626,0 0,3.401 c 0,1.132 0.449,2.217 1.249,3.017 0.81,0.81 1.913,1.26 3.059,1.249 l 0,-0.014 5.726,0 c 0.675,0 1.222,0.548 1.222,1.222 0,0.008 0,0.017 0,0.025 l 0.025,0 c 0,0.675 -0.547,1.223 -1.222,1.223 -0.008,0 -0.017,0 -0.025,-0.001 l 0,-0.031 -5.726,0 c -0.475,0 -0.868,-0.348 -0.898,-0.794 l -0.009,0"
       style="fill:#fff;fill-opacity:1;fill-rule:evenodd;stroke:none" />
    <path
       d="m 474.917,678.047 c 0,1.132 0.449,2.217 1.249,3.017 0.81,0.81 1.913,1.26 3.059,1.249 l 0,-0.014 6.066,0 c 1.132,0 2.217,-0.449 3.017,-1.249 0.796,-0.797 1.245,-1.876 1.249,-3.003 l -0.014,0 0,-0.68 c 0,-1.132 -0.449,-2.216 -1.249,-3.017 -0.797,-0.796 -1.876,-1.245 -3.003,-1.249 l 0,-0.043 -6.009,0 c -0.51,0 -0.932,-0.398 -0.961,-0.907 l -0.003,0 11.225,0 0,-3.401 -14.626,0 0,3.401 c 0,1.132 0.449,2.217 1.249,3.017 0.81,0.81 1.913,1.26 3.059,1.249 l 0,-0.014 5.726,0 c 0.675,0 1.222,0.548 1.222,1.222 0,0.008 0,0.017 0,0.025 l 0.025,0 c 0,0.675 -0.547,1.223 -1.222,1.223 -0.008,0 -0.017,0 -0.025,-0.001 l 0,-0.031 -5.726,0 c -0.475,0 -0.868,-0.348 -0.898,-0.794 l -0.009,0 -3.401,0 z"
       style="fill:none;stroke:#231f20;stroke-width:0.227;stroke-linecap:round;stroke-linejoin:round;stroke-miterlimit:10;stroke-opacity:1" />
    <path
       d="m 476.957,632.523 c 0,-0.471 -0.402,-0.855 -0.906,-0.864 l -10e-4,0.013 -7.767,0 0,1.701 7.767,0 c 0.512,0 0.927,-0.387 0.927,-0.865 0,-0.014 0,-0.028 -10e-4,-0.043 m -0.019,-5.044 0,0 c 0,0.47 -0.403,0.854 -0.906,0.863 l -10e-4,-0.013 -7.767,0 0,-1.644 7.767,0 c 0.506,0 0.918,0.378 0.926,0.85 m 3.326,0.794 0,0 c 0,0.002 0,0.004 0,0.006 -0.003,0.939 -0.81,1.702 -1.814,1.718 l 0,0.033 c 1.01,0 1.832,0.758 1.847,1.701 l -0.033,0 0.057,1.701 c 0,0.002 0,0.004 0,0.006 -0.004,1.865 -1.627,3.376 -3.625,3.372 -10e-4,0 -0.002,0 -0.003,0 l 0,-0.033 -12.019,0 0,-13.55 12.019,0 c 1.996,0 3.615,1.511 3.617,3.375 0,0.009 0,0.018 0,0.027"
       style="fill:#231f20;fill-opacity:1;fill-rule:evenodd;stroke:#231f20;stroke-width:0.227;stroke-linecap:round;stroke-linejoin:round;stroke-miterlimit:10;stroke-opacity:1" />
    <path
       d="m 487.162,636.775 -3.571,0 0,-9.354 c 0,-0.001 0,-0.002 0,-0.003 10e-4,-2.313 2.001,-4.191 4.478,-4.205 l 0,0.012 6.633,0 c 2.484,0 4.499,1.876 4.505,4.196 l 0.031,0 0,9.354 -3.629,0 0,-8.504 c 0,-0.933 -0.81,-1.69 -1.809,-1.69 -0.002,0 -0.003,0 -0.005,0 l 0,0.046 -4.819,0 c -0.98,0 -1.782,0.729 -1.808,1.644 l -0.006,0 0,8.504 z"
       style="fill:#231f20;fill-opacity:1;fill-rule:evenodd;stroke:#231f20;stroke-width:0.227;stroke-linecap:round;stroke-linejoin:round;stroke-miterlimit:10;stroke-opacity:1" />
    <path
       d="m 513.411,636.832 c 2.483,0 4.498,-1.877 4.505,-4.196 l -3.598,0 m 0,0 0,0 c 0,0.419 -0.363,0.758 -0.811,0.758 -0.013,0 -0.025,0 -0.038,-10e-4 l -0.001,0.037 -6.803,0 c -0.511,0 -0.926,-0.387 -0.926,-0.864 0,-0.014 0,-0.028 0.001,-0.041 l -0.039,-0.002 c 0,-0.477 0.414,-0.864 0.925,-0.864 0.013,0 0.026,10e-4 0.039,10e-4 l 0,0.012 6.689,0 c 2.474,0 4.482,-1.868 4.491,-4.178 0,-0.006 0,-0.011 0,-0.017 l -0.012,0 c 0,-10e-4 0,-10e-4 0,-0.002 -10e-4,-2.336 -2.033,-4.231 -4.535,-4.23 l 0,0.037 -6.69,0 c -2.483,0 -4.498,1.876 -4.505,4.195 l 3.598,0 c 0,-0.463 0.403,-0.839 0.899,-0.839 0.003,0 0.005,0 0.008,0 l 0,-0.011 6.973,0 c 0.316,0 0.574,0.378 0.58,0.85 l -0.013,0 c 0,0.457 -0.353,0.827 -0.789,0.827 -0.001,0 -0.003,0 -0.005,0 l 0,0.024 -6.689,0 c -2.488,0 -4.51,1.872 -4.532,4.195 l -0.004,0 c 0,0.004 0,0.008 0,0.012 0.007,2.368 2.057,4.287 4.593,4.301 l -10e-4,0.052 6.69,0"
       style="fill:#231f20;fill-opacity:1;fill-rule:evenodd;stroke:#231f20;stroke-width:0.227;stroke-linecap:round;stroke-linejoin:round;stroke-miterlimit:10;stroke-opacity:1" />
    <path
       d="m 480.302,626.627 0,1.644"
       style="fill:none;stroke:#231f20;stroke-width:0.227;stroke-linecap:round;stroke-linejoin:round;stroke-miterlimit:10;stroke-opacity:1" />
  </g>
</svg>
