<?xml version="1.0" encoding="UTF-8"?>
<svg id="Layer_1" data-name="Layer 1" xmlns="http://www.w3.org/2000/svg" viewBox="0 0 132.38 70.62">
  <defs>
    <style>
      .cls-1 {
        stroke: blue;
      }

      .cls-1, .cls-2, .cls-3 {
        stroke-linecap: round;
        stroke-linejoin: round;
        stroke-width: .46px;
      }

      .cls-1, .cls-3 {
        fill: none;
      }

      .cls-4 {
        letter-spacing: 0em;
      }

      .cls-5 {
        font-size: 5.94px;
      }

      .cls-5, .cls-6 {
        font-family: ArialMT, Arial;
      }

      .cls-2 {
        fill-rule: evenodd;
      }

      .cls-2, .cls-3 {
        stroke: #000;
      }

      .cls-7 {
        letter-spacing: 0em;
      }

      .cls-8 {
        letter-spacing: -.03em;
      }

      .cls-6 {
        fill: #c04040;
        font-size: 4.57px;
      }

      .cls-9 {
        letter-spacing: 0em;
      }

      .cls-10 {
        letter-spacing: .06em;
      }
    </style>
  </defs>
  <line class="cls-3" x1="45.82" y1="34.36" x2="48.55" y2="34.36"/>
  <line class="cls-3" x1="47.18" y1="46.69" x2="47.18" y2="49.43"/>
  <line class="cls-3" x1="45.82" y1="48.06" x2="48.55" y2="48.06"/>
  <line class="cls-3" x1="43.54" y1="34.36" x2="38.97" y2="34.36"/>
  <line class="cls-3" x1="43.54" y1="25.23" x2="43.54" y2="57.2"/>
  <line class="cls-3" x1="43.54" y1="57.2" x2="64.06" y2="41.21"/>
  <line class="cls-3" x1="64.06" y1="41.21" x2="68.63" y2="41.21"/>
  <line class="cls-3" x1="64.06" y1="41.21" x2="43.54" y2="25.23"/>
  <line class="cls-3" x1="43.54" y1="48.06" x2="38.97" y2="48.06"/>
  <text class="cls-6" transform="translate(70.91 33.91)"><tspan x="0" y="0">A</tspan></text>
  <text class="cls-5" transform="translate(26.2 48.06)"><tspan class="cls-8" x="0" y="0">U</tspan><tspan class="cls-9" x="4.12" y="0">i</tspan><tspan x="5.48" y="0">n</tspan></text>
  <text class="cls-5" transform="translate(107.41 42.12)"><tspan class="cls-8" x="0" y="0">U</tspan><tspan class="cls-10" x="4.12" y="0">u</tspan><tspan class="cls-7" x="7.77" y="0">i</tspan><tspan class="cls-4" x="9.13" y="0">t</tspan></text>
  <line class="cls-1" x1="38.97" y1="34.36" x2="24.37" y2="34.36"/>
  <line class="cls-1" x1="24.37" y1="34.36" x2="24.37" y2="12.9"/>
  <line class="cls-1" x1="24.37" y1="12.9" x2="84.59" y2="12.9"/>
  <line class="cls-1" x1="84.59" y1="12.9" x2="84.59" y2="41.21"/>
  <line class="cls-1" x1="84.59" y1="41.21" x2="68.63" y2="41.21"/>
  <path class="cls-2" d="m83.22,41.21c0-.76.61-1.37,1.37-1.37s1.37.61,1.37,1.37-.61,1.37-1.37,1.37-1.37-.61-1.37-1.37h0Z"/>
  <line class="cls-1" x1="84.59" y1="41.21" x2="102.84" y2="41.21"/>
</svg>