<?xml version="1.0" encoding="UTF-8"?>
<svg id="Layer_1" data-name="Layer 1" xmlns="http://www.w3.org/2000/svg" viewBox="0 0 162.8 122.9">
  <defs>
    <style>
      .cls-1 {
        stroke: blue;
      }

      .cls-1, .cls-2, .cls-3 {
        stroke-linecap: round;
        stroke-linejoin: round;
        stroke-width: .46px;
      }

      .cls-1, .cls-3 {
        fill: none;
      }

      .cls-4 {
        letter-spacing: 0em;
      }

      .cls-5 {
        letter-spacing: -.02em;
      }

      .cls-6 {
        font-size: 5.94px;
      }

      .cls-6, .cls-7 {
        font-family: ArialMT, Arial;
      }

      .cls-2 {
        fill-rule: evenodd;
      }

      .cls-2, .cls-3 {
        stroke: #000;
      }

      .cls-8 {
        letter-spacing: 0em;
      }

      .cls-9 {
        letter-spacing: -.03em;
      }

      .cls-7 {
        fill: #c04040;
        font-size: 4.57px;
      }

      .cls-10 {
        letter-spacing: 0em;
      }

      .cls-11 {
        letter-spacing: .06em;
      }
    </style>
  </defs>
  <line class="cls-3" x1="66.45" y1="48.95" x2="69.19" y2="48.95"/>
  <line class="cls-3" x1="67.82" y1="36.62" x2="67.82" y2="33.88"/>
  <line class="cls-3" x1="66.45" y1="35.25" x2="69.19" y2="35.25"/>
  <line class="cls-3" x1="64.17" y1="48.95" x2="59.61" y2="48.95"/>
  <line class="cls-3" x1="64.17" y1="58.08" x2="64.17" y2="26.12"/>
  <line class="cls-3" x1="64.17" y1="26.12" x2="84.7" y2="42.1"/>
  <line class="cls-3" x1="84.7" y1="42.1" x2="89.26" y2="42.1"/>
  <line class="cls-3" x1="84.7" y1="42.1" x2="64.17" y2="58.08"/>
  <line class="cls-3" x1="64.17" y1="35.25" x2="59.61" y2="35.25"/>
  <text class="cls-7" transform="translate(91.54 29.31)"><tspan x="0" y="0">A</tspan></text>
  <text class="cls-6" transform="translate(17.18 34.8)"><tspan class="cls-9" x="0" y="0">U</tspan><tspan class="cls-10" x="4.12" y="0">i</tspan><tspan x="5.48" y="0">n</tspan></text>
  <text class="cls-6" transform="translate(124.85 43.01)"><tspan class="cls-9" x="0" y="0">U</tspan><tspan class="cls-11" x="4.12" y="0">u</tspan><tspan class="cls-8" x="7.77" y="0">i</tspan><tspan class="cls-4" x="9.13" y="0">t</tspan></text>
  <line class="cls-1" x1="107.05" y1="42.1" x2="89.26" y2="42.1"/>
  <line class="cls-3" x1="50.48" y1="72.24" x2="50.48" y2="68.59"/>
  <line class="cls-3" x1="50.48" y1="85.49" x2="50.48" y2="89.14"/>
  <rect class="cls-3" x="46.83" y="72.24" width="6.39" height="12.79"/>
  <text class="cls-7" transform="translate(55.96 77.26)"><tspan class="cls-5" x="0" y="0">R</tspan><tspan x="3.2" y="0">2</tspan></text>
  <text class="cls-7" transform="translate(55.96 71.79)"><tspan x="0" y="0">R</tspan></text>
  <line class="cls-3" x1="95.19" y1="65.39" x2="98.84" y2="65.39"/>
  <line class="cls-3" x1="81.96" y1="65.39" x2="78.31" y2="65.39"/>
  <rect class="cls-3" x="81.96" y="61.74" width="12.77" height="6.39"/>
  <text class="cls-7" transform="translate(78.31 71.79)"><tspan class="cls-5" x="0" y="0">R</tspan><tspan x="3.2" y="0">1</tspan></text>
  <text class="cls-7" transform="translate(78.31 60.36)"><tspan x="0" y="0">R</tspan></text>
  <line class="cls-3" x1="47.29" y1="106.49" x2="54.13" y2="106.49"/>
  <line class="cls-3" x1="50.48" y1="100.1" x2="50.48" y2="106.49"/>
  <line class="cls-1" x1="59.61" y1="35.25" x2="28.13" y2="35.25"/>
  <line class="cls-1" x1="59.61" y1="48.95" x2="50.48" y2="48.95"/>
  <line class="cls-1" x1="50.48" y1="65.85" x2="50.48" y2="68.59"/>
  <line class="cls-1" x1="50.48" y1="100.1" x2="50.48" y2="86.86"/>
  <line class="cls-1" x1="80.59" y1="65.39" x2="50.48" y2="65.39"/>
  <path class="cls-2" d="m49.12,65.39c0-.76.61-1.37,1.37-1.37s1.37.61,1.37,1.37-.61,1.37-1.37,1.37-1.37-.61-1.37-1.37h0Z"/>
  <line class="cls-1" x1="50.48" y1="48.95" x2="50.48" y2="65.39"/>
  <line class="cls-1" x1="50.48" y1="65.39" x2="50.48" y2="65.85"/>
  <path class="cls-2" d="m49.12,65.85c0-.76.61-1.37,1.37-1.37s1.37.61,1.37,1.37-.61,1.37-1.37,1.37-1.37-.61-1.37-1.37h0Z"/>
  <line class="cls-1" x1="50.48" y1="65.39" x2="50.48" y2="65.85"/>
  <line class="cls-1" x1="98.84" y1="65.39" x2="107.05" y2="65.39"/>
  <line class="cls-1" x1="107.05" y1="65.39" x2="107.05" y2="42.1"/>
  <path class="cls-2" d="m105.68,42.1c0-.76.61-1.37,1.37-1.37s1.37.61,1.37,1.37-.61,1.37-1.37,1.37-1.37-.61-1.37-1.37h0Z"/>
  <line class="cls-1" x1="120.28" y1="42.1" x2="107.05" y2="42.1"/>
</svg>