<?xml version="1.0" encoding="UTF-8"?>
<svg id="Layer_1" data-name="Layer 1" xmlns="http://www.w3.org/2000/svg" viewBox="0 0 122.9 70.17">
  <defs>
    <style>
      .cls-1 {
        letter-spacing: -.02em;
      }

      .cls-2 {
        letter-spacing: 0em;
      }

      .cls-3 {
        letter-spacing: .03em;
      }

      .cls-4 {
        letter-spacing: -.05em;
      }

      .cls-5 {
        letter-spacing: .06em;
      }

      .cls-6 {
        letter-spacing: .02em;
      }

      .cls-7 {
        letter-spacing: .06em;
      }

      .cls-8 {
        letter-spacing: -.03em;
      }

      .cls-9 {
        letter-spacing: .04em;
      }

      .cls-10 {
        letter-spacing: 0em;
      }

      .cls-11 {
        fill: none;
        stroke: #000;
        stroke-linecap: round;
        stroke-linejoin: round;
        stroke-width: .46px;
      }

      .cls-12 {
        letter-spacing: .03em;
      }

      .cls-13 {
        letter-spacing: .03em;
      }

      .cls-14 {
        letter-spacing: .04em;
      }

      .cls-15 {
        letter-spacing: .03em;
      }

      .cls-16 {
        letter-spacing: -.02em;
      }

      .cls-17 {
        letter-spacing: 0em;
      }

      .cls-18 {
        font-family: ArialMT, Arial;
        font-size: 5.94px;
      }

      .cls-19 {
        letter-spacing: 0em;
      }
    </style>
  </defs>
  <line class="cls-11" x1="48.88" y1="27.86" x2="51.62" y2="27.86"/>
  <line class="cls-11" x1="50.25" y1="40.19" x2="50.25" y2="42.93"/>
  <line class="cls-11" x1="48.88" y1="41.56" x2="51.62" y2="41.56"/>
  <line class="cls-11" x1="46.6" y1="27.86" x2="42.04" y2="27.86"/>
  <line class="cls-11" x1="46.6" y1="18.73" x2="46.6" y2="50.7"/>
  <line class="cls-11" x1="46.6" y1="50.7" x2="67.13" y2="34.71"/>
  <line class="cls-11" x1="67.13" y1="34.71" x2="71.69" y2="34.71"/>
  <line class="cls-11" x1="67.13" y1="34.71" x2="46.6" y2="18.73"/>
  <line class="cls-11" x1="46.6" y1="41.56" x2="42.04" y2="41.56"/>
  <line class="cls-11" x1="61.2" y1="39.74" x2="61.2" y2="50.24"/>
  <line class="cls-11" x1="61.65" y1="19.19" x2="61.65" y2="30.15"/>
  <text class="cls-18" transform="translate(22.88 27.86)"><tspan class="cls-8" x="0" y="0">-</tspan><tspan class="cls-12" x="1.83" y="0"> </tspan><tspan class="cls-2" x="3.65" y="0">i</tspan><tspan class="cls-1" x="5.02" y="0">n</tspan><tspan class="cls-7" x="8.22" y="0">pu</tspan><tspan class="cls-10" x="15.52" y="0">t</tspan></text>
  <text class="cls-18" transform="translate(21.96 41.1)"><tspan class="cls-3" x="0" y="0">+</tspan><tspan class="cls-4" x="3.65" y="0"> </tspan><tspan class="cls-19" x="5.02" y="0">i</tspan><tspan class="cls-7" x="6.39" y="0">n</tspan><tspan class="cls-1" x="10.04" y="0">p</tspan><tspan class="cls-7" x="13.24" y="0">u</tspan><tspan x="16.89" y="0">t</tspan></text>
  <text class="cls-18" transform="translate(60.28 15.99)"><tspan class="cls-3" x="0" y="0">+</tspan><tspan class="cls-6" x="3.65" y="0">V</tspan><tspan class="cls-9" x="7.76" y="0">s</tspan><tspan x="10.95" y="0">s</tspan></text>
  <text class="cls-18" transform="translate(60.74 57.55)"><tspan class="cls-8" x="0" y="0">-</tspan><tspan class="cls-15" x="1.83" y="0">V</tspan><tspan class="cls-14" x="5.94" y="0">s</tspan><tspan x="9.13" y="0">s</tspan></text>
  <text class="cls-18" transform="translate(73.06 34.72)"><tspan class="cls-17" x="0" y="0">O</tspan><tspan class="cls-5" x="4.57" y="0">u</tspan><tspan class="cls-13" x="8.22" y="0">t</tspan><tspan class="cls-16" x="10.04" y="0">p</tspan><tspan class="cls-5" x="13.25" y="0">u</tspan><tspan x="16.9" y="0">t</tspan></text>
</svg>