<?xml version="1.0" encoding="UTF-8"?>
<svg width="600" height="500" version="1.1" viewBox="0 0 600 500" xmlns="http://www.w3.org/2000/svg">
 <g fill="#009edb">
  <path d="m113.19 479.78c-5.1464 6.163-12.421 10.941-21.818 14.34-9.4033 3.3991-19.817 5.1019-31.253 5.1019-12.002 0-22.536-2.624-31.584-7.8594-9.0539-5.2417-16.043-12.847-20.967-22.822-4.924-9.9688-7.4464-21.691-7.5735-35.154v-9.4351c0-13.851 2.3318-25.84 7.0017-35.974 4.6699-10.128 11.398-17.879 20.198-23.248s19.105-8.05 30.917-8.05c16.456 0 29.315 3.9202 38.592 11.767 9.2762 7.8404 14.766 19.264 16.488 34.252h-27.822c-1.2771-7.9419-4.0854-13.749-8.4376-17.434s-10.337-5.5276-17.962-5.5276c-9.7146 0-17.117 3.6533-22.199 10.96s-7.6497 18.165-7.7133 32.588v8.8569c0 14.55 2.7638 25.535 8.2914 32.969 5.5276 7.4337 13.622 11.15 24.296 11.144 10.731 0 18.387-2.2873 22.962-6.8619v-23.915l-26.012 0.01v-21.062h54.596z"/>
  <path d="m306.92 445.58h34.684l-17.441-51.928zm42.398 23.152h-50.117l-9.524 28.585h-30.396l51.636-138.73h26.488l51.934 138.73h-30.396z"/>
  <path d="m426.59 474.38h60.696v22.962h-89.281l-6e-3 -138.72 28.585-0.01z"/>
  <path d="m571.32 460.88c0-5.4006-1.9061-9.5431-5.7182-12.434-3.8122-2.8909-10.674-5.9406-20.579-9.1491-9.9116-3.2023-17.758-6.3663-23.534-9.4796-15.757-8.5075-23.635-19.969-23.635-34.392 0-7.4972 2.1094-14.181 6.3345-20.058s10.293-10.464 18.203-13.768c7.9039-3.3039 16.78-4.9558 26.628-4.9558 9.9116 0 18.737 1.7917 26.488 5.3815s13.768 8.6536 18.057 15.198 6.4362 13.972 6.4362 22.295h-28.585c-6e-3 -6.3472-2.0014-11.29-6.0041-14.816-4.0028-3.5199-9.6257-5.2862-16.869-5.2862-6.989 0-12.421 1.4804-16.291 4.4284-3.8757 2.9544-5.8135 6.8492-5.8135 11.678 0 4.5111 2.2746 8.2851 6.8174 11.335 4.5365 3.0497 11.227 5.9089 20.052 8.5774 16.259 4.8922 28.108 10.954 35.542 18.197 7.4337 7.243 11.151 16.259 11.151 27.06 0 12.002-4.5428 21.424-13.622 28.248-9.0856 6.8301-21.316 10.248-36.686 10.248-10.674 0-20.389-1.9569-29.157-5.858-8.768-3.9075-15.452-9.2572-20.058-16.056-4.6064-6.7984-6.9064-14.677-6.9064-23.629h28.68c0 15.306 9.1428 22.962 27.441 22.962 6.792 0 12.097-1.385 15.909-4.1489 3.8122-2.7638 5.7182-6.6204 5.7182-11.576"/>
 </g>
 <path d="m164.26 409.48c1.7345-2.9481 3.8376-5.6483 6.2519-8.0373l-20.497-22.473c-5.1528 4.924-9.5494 10.636-13.012 16.932z" fill="#56c02b"/>
 <path d="m214.5 393.68c3.1006 1.4232 5.9914 3.234 8.5964 5.3815l20.548-22.434c-5.4133-4.6699-11.551-8.5202-18.216-11.367z" fill="#dda83a"/>
 <path d="m261.56 400.38-27.238 13.578c1.3025 3.037 2.2238 6.2583 2.7257 9.6257l30.3-2.8591c-0.89586-7.1732-2.8782-14.016-5.7881-20.344" fill="#c5192d"/>
 <path d="m232.37 410.08 27.231-13.578c-3.3738-6.2647-7.6751-11.964-12.726-16.894l-20.548 22.428c2.3381 2.408 4.3776 5.1082 6.0423 8.0436" fill="#4c9f38"/>
 <path d="m158.85 429.38c0-0.6099 0.0191-1.2262 0.0508-1.8362l-30.307-2.713c-0.0953 1.5058-0.15249 3.018-0.15249 4.5492 0 5.8135 0.71796 11.462 2.0586 16.856l29.271-8.3995c-0.59724-2.7257-0.92127-5.553-0.92127-8.4566" fill="#3f7e44"/>
 <path d="m228.56 454.28c-2.1539 2.624-4.6381 4.9558-7.3892 6.9508l15.998 25.91c5.9406-4.0219 11.227-8.9395 15.668-14.55z" fill="#fcc30b"/>
 <path d="m237.48 429.38c0 2.8718-0.30497 5.6674-0.90221 8.3613l29.271 8.4058c1.3343-5.3688 2.0395-10.985 2.0395-16.767 0-1.4359-0.0445-2.8591-0.13342-4.2823l-30.3 2.8654c0.0127 0.4766 0.0254 0.9404 0.0254 1.4169" fill="#ff3a21"/>
 <path d="m168.26 454.88-24.22 18.413c4.5047 5.5467 9.8354 10.382 15.814 14.327l15.998-25.878c-2.8146-1.9506-5.3688-4.2633-7.5925-6.8619" fill="#fd9d24"/>
 <path d="m159.34 423.18c0.54006-3.4246 1.5376-6.6967 2.9036-9.7591l-27.225-13.565c-3.0116 6.398-5.0765 13.33-6.0105 20.605z" fill="#0a97d9"/>
 <path d="m233.45 489.48-15.979-25.872c-2.9036 1.6392-6.0296 2.9226-9.3207 3.7867l5.6356 29.932c7.0144-1.6138 13.635-4.2887 19.664-7.8467" fill="#a21942"/>
 <path d="m235.41 441.98c-1.061 3.1133-2.4906 6.0486-4.2506 8.7616l24.296 18.324c3.9456-5.6674 7.0652-11.951 9.1936-18.68z" fill="#26bde2"/>
 <path d="m203.83 468.28c-1.8489 0.2669-3.7423 0.413-5.6674 0.413-1.5503 0-3.0751-0.095-4.5809-0.2732l-5.6356 29.932c3.3356 0.4893 6.7475 0.7498 10.217 0.7498 3.8439 0 7.6243-0.3177 11.303-0.915z" fill="#fd6925"/>
 <path d="m200.68 390.18c3.3801 0.216 6.6395 0.8577 9.7273 1.8807l10.935-28.407c-6.5061-2.3-13.444-3.6597-20.662-3.9138z" fill="#e5243b"/>
 <path d="m189.26 467.68c-3.4055-0.7942-6.6459-2.0331-9.6511-3.647l-16.011 25.891c6.163 3.5263 12.898 6.1312 20.033 7.6561z" fill="#dd1367"/>
 <path d="m186.35 391.88c3.1577-0.9975 6.487-1.6075 9.9307-1.7663v-30.434c-7.313 0.1906-14.346 1.5249-20.935 3.8122z" fill="#19486a"/>
 <path d="m165.6 451.38c-1.9315-2.8528-3.5072-5.9724-4.6381-9.2953l-29.252 8.3931c2.2174 6.9762 5.5022 13.476 9.6638 19.315z" fill="#bf8b2e"/>
 <path d="m173.81 398.58c2.5732-2.0331 5.4006-3.7486 8.4312-5.1019l-10.998-28.375c-6.5506 2.7511-12.586 6.4743-17.943 10.992z" fill="#00689d"/>
 <g fill="#009edb">
  <path d="m36.38 234.05c0-2.2301-0.78785-3.971-2.3699-5.2226-1.582-1.2453-4.3586-2.5351-8.3296-3.8693-3.9773-1.3342-7.224-2.624-9.7464-3.8693-8.2025-4.0282-12.307-9.5685-12.307-16.615 0-3.5135 1.0229-6.6077 3.0688-9.289 2.0395-2.6812 4.9367-4.7716 8.6726-6.2646 3.7423-1.4931 7.9483-2.2428 12.618-2.2428 4.5492 0 8.6345 0.81326 12.243 2.4398 3.6088 1.6202 6.4171 3.9392 8.4185 6.9381s2.9989 6.4298 2.9989 10.286h-15.223c0-2.5796-0.78785-4.5809-2.3699-6.0041-1.582-1.4168-3.7232-2.1284-6.4171-2.1284-2.7257 0-4.8796 0.59724-6.4616 1.8044-1.582 1.2008-2.3699 2.732-2.3699 4.5873 0 1.6265 0.87044 3.0942 2.6113 4.4158 1.7409 1.3215 4.797 2.6812 9.1746 4.0854 4.3776 1.4105 7.9801 2.9227 10.788 4.5492 6.8428 3.9456 10.267 9.3843 10.267 16.31 0 5.5403-2.0903 9.8925-6.2646 13.05-4.1743 3.1641-9.9052 4.7398-17.18 4.7398-5.1337 0-9.7782-0.91492-13.94-2.7575s-7.2939-4.3649-9.397-7.5671c-2.103-3.2086-3.1514-6.9-3.1514-11.074h15.306c0 3.3928 0.88315 5.8961 2.6367 7.5036s4.6 2.4144 8.5456 2.4144c2.5224 0 4.5174-0.5464 5.9787-1.6329 1.4677-1.0865 2.1983-2.6113 2.1983-4.5873"/>
  <path d="m110.04 187.55v41.457c0 4.6953-0.99751 8.7616-2.9989 12.199-2.0014 3.4373-4.8732 6.055-8.6155 7.853-3.7423 1.7981-8.1644 2.6939-13.266 2.6939-7.7133 0-13.787-2.0014-18.228-6.0042-4.4348-4.0028-6.6967-9.4796-6.7856-16.443v-41.756h15.357v42.061c0.17155 6.9318 3.3928 10.401 9.6575 10.401 3.1577 0 5.553-0.87044 7.1796-2.6113 1.6202-1.7409 2.4334-4.5682 2.4334-8.482v-41.368z"/>
  <path d="m153.13 234.05c0-2.2301-0.78784-3.971-2.3699-5.2226-1.582-1.2453-4.3586-2.5351-8.3296-3.8693-3.9773-1.3342-7.224-2.624-9.7464-3.8693-8.2025-4.0282-12.307-9.5685-12.307-16.615 0-3.5135 1.0229-6.6077 3.0688-9.289 2.0395-2.6812 4.9367-4.7716 8.6726-6.2646 3.7423-1.4931 7.9483-2.2428 12.618-2.2428 4.5492 0 8.6345 0.81326 12.243 2.4398 3.6088 1.6202 6.4171 3.9392 8.4185 6.9381s2.9989 6.4298 2.9989 10.286h-15.223c0-2.5796-0.78784-4.5809-2.3699-6.0041-1.582-1.4168-3.7232-2.1284-6.4171-2.1284-2.7257 0-4.8796 0.59724-6.4616 1.8044-1.582 1.2008-2.3699 2.732-2.3699 4.5873 0 1.6265 0.87044 3.0942 2.6113 4.4158 1.7409 1.3215 4.797 2.6812 9.1746 4.0854 4.3776 1.4105 7.9801 2.9227 10.788 4.5492 6.8428 3.9456 10.267 9.3843 10.267 16.31 0 5.5403-2.0903 9.8925-6.2646 13.05-4.1743 3.1641-9.9052 4.7398-17.18 4.7398-5.1337 0-9.7782-0.91492-13.94-2.7575-4.1616-1.8425-7.2939-4.3649-9.397-7.5671-2.103-3.2086-3.1514-6.9-3.1514-11.074h15.306c0 3.3928 0.88315 5.8961 2.6367 7.5036 1.7536 1.6075 4.6 2.4144 8.5456 2.4144 2.5224 0 4.5174-0.5464 5.9787-1.6329 1.4677-1.0865 2.1983-2.6113 2.1983-4.5873"/>
  <path d="m226.84 199.33h-19.01v51.547h-15.268v-51.547h-18.66v-11.786h52.938z"/>
  <path d="m247.65 227.26h13.616l-6.8301-21.964zm17.269 11.786h-20.922l-3.6533 11.837h-16.316l23.229-63.339h14.359l23.4 63.339h-16.399z"/>
  <path d="m306.78 250.88h-15.223v-63.333h15.223z"/>
  <path d="m371.18 250.88h-15.179l-22.447-39.411v39.411h-15.268v-63.333h15.268l22.403 39.411v-39.411h15.223z"/>
  <path d="m401.22 227.26h13.616l-6.8301-21.964zm17.269 11.786h-20.922l-3.6533 11.837h-16.316l23.229-63.339h14.359l23.4 63.339h-16.399z"/>
  <path d="m459.35 223.96v15.179h10.007c2.7511 0 4.8732-0.62901 6.3472-1.887 1.4804-1.2644 2.2238-3.037 2.2238-5.3307 0-5.2798-2.6304-7.9293-7.8784-7.961zm0-10.007h7.961c3.3356-0.0254 5.7119-0.63536 7.1351-1.8298 1.4168-1.1945 2.1284-2.9544 2.1284-5.2798 0-2.6749-0.76878-4.6-2.3064-5.7818-1.5376-1.1754-4.0155-1.7663-7.4337-1.7663h-7.4845zm-15.268 36.933v-63.333h22.752c8.1453 0 14.346 1.4931 18.597 4.4793 4.2442 2.9862 6.3663 7.3193 6.3663 13.006 0 3.2784-0.75607 6.074-2.2619 8.3931-1.5058 2.3254-3.7232 4.0345-6.6522 5.1337 3.3039 0.87044 5.8453 2.497 7.6116 4.8732s2.6558 5.2798 2.6558 8.6981c0 6.2075-1.9696 10.871-5.8961 13.984-3.9329 3.1196-9.7528 4.708-17.466 4.7652z"/>
  <path d="m517.71 239.14h26.577v11.748h-41.845v-63.339h15.268z"/>
  <path d="m590.89 224h-24.01v15.141h28.362v11.741h-43.63v-63.333h43.713v11.786h-28.445v13.355h24.01z"/>
  <path d="m18.61 286.03v38.998h5.1972c4.2887 0 7.5862-1.5249 9.8925-4.5809 2.3-3.0561 3.45-7.5925 3.45-13.616v-2.6876c0-5.9914-1.15-10.515-3.45-13.552-2.3064-3.0434-5.6547-4.5619-10.058-4.5619zm-14.956 50.505v-62.056h19.988c5.4832 0 10.414 1.2453 14.785 3.7296 4.3776 2.4842 7.7958 5.9978 10.248 10.528 2.4588 4.5301 3.7041 9.613 3.7296 15.236v2.8591c0 5.6801-1.1945 10.776-3.5961 15.274-2.4016 4.5047-5.7818 8.0309-10.147 10.572-4.3649 2.5414-9.2254 3.8312-14.594 3.8566z"/>
  <path d="m95.29 310.2h-21.964v14.829h26.228v11.513h-41.19v-62.056h41.273v11.544h-26.31v13.088h21.964z"/>
  <path d="m132.35 319.66 12.358-45.174h16.71l-20.884 62.049h-16.367l-20.713-62.049h16.577z"/>
  <path d="m202.65 310.2h-21.755v14.829h26.018v11.513h-40.974v-62.056h41.057v11.544h-26.101v13.088h21.755z"/>
  <path d="m227.01 325.03h23.673v11.506h-38.63v-62.056h14.956z"/>
  <path d="m291.13 304.19c0-6.163-1.0293-10.846-3.0878-14.041-2.0649-3.1959-5.013-4.797-8.8442-4.797-7.5036 0-11.468 5.6293-11.894 16.881l-0.0445 4.5555c0 6.0804 1.0102 10.757 3.0307 14.022 2.0141 3.2721 5.013 4.905 8.9903 4.905 3.7804 0 6.6903-1.6075 8.7362-4.816 2.0459-3.2149 3.0815-7.8276 3.1133-13.851zm15.217 2.5986c0 6.055-1.1246 11.411-3.3674 16.068-2.2428 4.6635-5.4387 8.247-9.5685 10.763-4.1362 2.516-8.8442 3.7741-14.13 3.7741s-9.9688-1.2136-14.067-3.647c-4.0854-2.4271-7.2812-5.9025-9.5622-10.42-2.2936-4.5174-3.4881-9.7019-3.6025-15.56v-3.4881c0-6.0804 1.1119-11.449 3.342-16.094 2.2301-4.6445 5.426-8.2279 9.5939-10.763 4.1616-2.5287 8.895-3.7931 14.213-3.7931 5.2544 0 9.9434 1.2517 14.06 3.755 4.1235 2.497 7.3257 6.055 9.613 10.674 2.2873 4.6191 3.4436 9.9116 3.4754 15.878z"/>
  <path d="m327.24 303.93h9.8036c2.8972 0 5.1019-0.72431 6.6268-2.1729 1.5185-1.4486 2.2809-3.4945 2.2809-6.1376 0-2.8972-0.7815-5.2163-2.3445-6.9508-1.563-1.7282-3.6914-2.6113-6.3917-2.6367h-9.9751zm0 11.551v21.056h-14.963v-62.055h24.766c4.7461 0 8.9395 0.87044 12.593 2.6177 3.647 1.7472 6.4807 4.2378 8.482 7.4591 2.0014 3.2276 3.0052 6.8809 3.0052 10.973 0 6.055-2.1666 10.89-6.4997 14.518-4.3332 3.6215-10.28 5.4323-17.835 5.4323z"/>
  <path d="m386.26 274.48 13.851 43.173 13.806-43.173h19.696v62.056h-15.007v-14.493l1.4486-29.665-15.001 44.157h-9.8862l-15.045-44.196 1.4486 29.703v14.493h-14.956v-62.056z"/>
  <path d="m477.26 310.2h-22.028v14.829h26.291v11.513h-41.254v-62.056h41.336v11.544h-26.374v13.088h22.028z"/>
  <path d="m538.39 336.58h-14.874l-21.99-38.611v38.611h-14.963v-62.056h14.963l21.945 38.611v-38.611h14.918z"/>
  <path d="m595.33 286.03h-18.629v50.505h-14.956v-50.505h-18.286v-11.551h51.871z"/>
  <path d="m216.53 163.69h-212.53v-4.1362h212.53z"/>
  <path d="m595.33 163.69h-212.53v-4.1362h212.53z"/>
  <path d="m231.51 69.6h10.884c0.38122-14.626 6.2837-27.905 15.693-37.817l-7.726-7.7323c-11.83 12.358-18.476 28.426-18.851 45.549m20.999-47.696 7.7323 7.726c9.918-9.4097 23.191-15.312 37.817-15.693v-10.884c-17.123 0.37486-33.191 7.0207-45.549 18.851m47.067 36.819c-1.2707 0-2.5097 0.18426-3.6978 0.55912-0.15884 0.17155-0.2732 0.31133-0.18425 0.4384 0.29862 0.4384 1.2072-0.47652 1.3343 0.36851 0.089 0.60994-1.0102 0.15884-0.91492 0.60994 0.0826 0.36216 0.84503 0.20967 0.86409 0.70525 0.0191 0.45746-0.46381 1.3533-0.82597 1.5884-0.48923 0.31768-3.1006 0.66077-3.3483 1.2644-0.22238 0.5337-0.4511 1.0102-0.85774 1.4423-0.44475 0.47016-2.5351 1.7091-2.5414 2.0331-0.0127 0.76244 1.0039-0.20966 1.2898-0.50828 0.44475-0.47652 1.061-0.47017 1.7345-0.85774 0.92762-0.52735 1.2834 1.3216 0.29226 1.3851-0.62265 0.0445-1.1436 1.7854-2.1157 1.4486-0.24144-0.0826-0.93398-0.51464-1.0865-0.0699-0.15884 0.47017 1.4486 0.54641 1.9506 0.8768 1.2771 0.84503-0.9721 0.78784-1.3343 1.0166-0.3558 0.22873-0.1779 0.71796 0.30497 0.521 0.47017-0.19696 1.1119-0.68619 1.4041 0.10801 0.39392 1.0801-1.779 5.0257-2.408 4.6127-0.34945-0.22873-0.70525 0.0953-1.0293 0.22873 0.43204 0.89585 0.97845 1.7282 1.6011 2.4906 0.43204-0.70525 1.1055-1.7028 1.3914-1.7091 0.40028-0.0127 0.26685-0.33039 0.41934-0.6163 0.18425-0.3431 0.66713 0.0191 0.6989-0.45111 0.0381-0.47016 1.2326-1.1436 1.3724-1.8298 0.0699-0.36851-0.37486-0.73702-0.19061-1.0483 0.22238-0.36851 0.38757-0.42569 0.62265-0.50829 0.24144-0.0826 0.81326 0.48287 0.98481 0.23508 0.17155-0.24143 1.0166-0.0572 1.6646 0.3558 0.29226 0.18426 0.86409-0.0318 1.2199 0.47017 0.48287 0.68619-0.0254 0.74337 0.0635 0.89586 0.0826 0.15248 0.29862-0.0826 0.42569 0.0381 0.2732 0.26685-1.2707 1.1691-1.0928 1.6646 0.17155 0.48922-1.3088 2.9099-1.7155 3.2975-0.55912 0.50829-1.4804-0.0635-1.8425 0.0445-0.39392 0.10801-0.47017 0.44475-1.0738 0.29862-0.46381-0.11437-1.0229 0.0762-1.5376 0.31767 2.1793 1.9188 5.0384 3.0815 8.158 3.0815 0.67348 0 1.3343-0.0572 1.976-0.1652 0.40028-0.51464 0.56547-1.15 0.65442-1.7981 0.0445-0.34945-0.0127-0.80691 0.17155-1.1182 0.15884-0.26685 1.1691-1.5122 1.5757-1.4931 0.3558 0.0127 0.59724 0.32403 1.1055 0.16519 0.99116-0.31132 1.6011-0.0508 1.6138 0.38122 0.0127 0.59088-1.2453 0.41934-1.1945 0.75608 0.0318 0.23508 0.94668 0.59088 1.2453 0.24779 0.55912-0.62901 0.47652-1.4613 0.33039-1.6392-0.39392-0.50193-0.36851-0.7116 0.20332-0.51464 0.34945 0.12072 0.34309-1.2644 0.67983-1.7981 0.45746-0.71795-0.84503-0.21602-1.3851-0.13978-0.50829 0.0699-0.93398-1.0166-0.94668-1.3978-6e-3 -0.27956 0.9721 0.97209 1.4677 0.99751 0.55912 0.0318 1.2199-0.62265 1.2262-1.0928 0.0127-0.47652-1.0674-0.54005-1.2326-1.1182-0.089-0.31768 0.8768-6e-3 0.80055-0.31133-0.0572-0.2732 0.10166-0.93397-0.50829-1.1945-0.60359-0.2605-1.1627-2.1983-1.6456-2.3318-0.43204-0.12072-0.78785 0.46381-1.0547 0.67984-0.2605 0.20966-0.67983-0.15884-0.45746-0.35581 0.31133-0.29226 1.0293-0.91491 1.1818-1.4041 0.25414-0.81961 1.3088 0.0445 1.1182-1.1055-0.19696-1.239-1.258-1.0039-0.76878-1.6011 0.50193-0.60994 0.12707-1.6011-0.89586-1.4041-0.47016 0.0953-0.96574-0.67348-1.0166-1.3406-0.0318-0.36851-1.0801-0.31133-1.042-0.69889 0.0826-0.78785-1.0992-0.87045-1.8235-0.81962-0.72431 0.0572-2.1285-1.061-2.2873-1.3342-0.15249-0.27321-1.1627 0.24144-0.82597-0.81961 0.32403-1.0484 1.3215 0.18425 1.7345-0.11437 0.4511-0.32403 0.31133-0.65442 0.24144-0.90856-0.0826 0-0.15884-6e-3 -0.24144-6e-3m1.5249-2.9671c1.0356 0.10165 2.0522 0.31132 3.0434 0.6163 0.2605-0.63536 0.90856-0.94669 1.4423-1.3088 0.629-0.42569 1.0865-0.90857 0.99751 0.24779-0.0826 0.81961-0.42569 1.3152-0.84503 1.6456 1.061 0.46381 2.0776 1.0483 3.0243 1.7472 0.20332 0.15249 0.40663 0.31133 0.60359 0.47652l1.0483-1.042c-0.0127-0.0381-0.0191-0.0762-0.0191-0.12071 0.0191-0.59089 0.8768-1.3025 1.868-1.7345l3.3992-3.3928c-0.0762-0.0191-0.15884-0.0318-0.2605-0.0445-0.4511-0.0572-1.1055 0.88951-1.5439 0.62901-0.50193-0.29227 1.4931-2.0586 2.389-1.7155 0.12072 0.0445 0.25414 0.0953 0.39392 0.15249l0.43204-0.43205c-4.3014-3.8376-9.8608-6.2837-15.973-6.6332zm0-13.959c6.9508 0.36215 13.273 3.145 18.127 7.5226l7.7006-7.6942c-6.8428-6.3472-15.878-10.344-25.827-10.718zm0-13.927c9.2381 0.31768 17.739 3.5517 24.639 8.8061-0.78149-1.0356-1.5693-2.103-1.9378-2.4906-0.66713-0.7116-3.1641-1.5884-2.9099-1.995 0.24779-0.40663 2.4715 1.366 2.8591 1.0547 0.47016-0.37486-1.1119-2.4144-0.99751-2.4906 0.16519-0.10801 2.0395 1.7091 2.9608 3.3293 0.38757 0.57182 1.4105 0.28591 2.2047 0.83868 0.6989 0.48922 0.74972 1.2771 1.3343 1.7854 0.0953 0.0826 1.347 0.80056 0.62265 0.71796-0.20967-0.0254-0.5337-0.47017-0.76878-0.24144-0.15249 0.13978 0.0889 0.90857 0.51464 1.7409l3.6152-3.6152c-0.52099-1.0674-1.5566-2.4715-2.2809-2.6494-0.74337-0.1779-1.2008 0.44475-1.7155 0.87044-0.51464 0.42569-1.1564 0.57182-1.2326 0.28591-0.0953-0.32403 0.10166-1.1182 0.0635-1.4486-0.0508-0.41933-0.37486-0.74337-0.48923-1.1436-0.25414-0.94669 0.12707-2.0014-0.44475-2.6304-0.63536-0.68619-1.0547-1.7282-1.5503-2.5224-0.54006-0.86408-1.5122-2.192-1.5693-3.3229-7.0398-3.5644-14.829-5.553-22.917-5.7691zm0-13.933c9.092 0.23508 17.828 2.5796 25.637 6.7983 0.73066-0.11437 1.4486-0.20332 1.9315-0.42569 0.9721-0.45111 2.8782 0.57182 3.7931 1.1055 0.83867 0.48923 1.4931 1.2072 2.4144 1.7218 0.94033 0.52734 2.4588 2.0522 2.7892 3.5834 0.33674 1.5312 1.3088 1.4296 0.81961 2.0459-0.24144 0.31132 0.13342 0.43204 0.59724 0.70525l7.5671-7.5671c-12.358-11.831-28.426-18.477-45.549-18.851zm47.696 10.115-8.0627 8.0627c0.73702 1.2898 2.1221 2.9099 4.079 4.905 0.80691 0.81961 1.6583 1.6265 2.3762 2.3508 0.68618 0.68619 5.0829 6.1566 4.2315 6.9508-0.0635 0.0635-0.12707 0.11436-0.19696 0.17154 3.4246 7.1796 5.3243 15.102 5.534 23.108h10.884c-0.3685-17.123-7.0144-33.191-18.845-45.549m18.845 48.592h-10.877c-0.38757 14.626-6.2901 27.899-15.7 37.817l7.7323 7.7323c11.83-12.358 18.476-28.426 18.845-45.549m-51.877 21.996c0.0254 0.5337-0.51464 0.10801-0.67983 0.28591s4.2823 2.2619 4.9812 2.3826c0.47652 0.0762 1.3851 0.41933 2.9925 0.0953 1.0801-0.20967 1.3787 0.28591 1.8807 0.26685 0.71796-0.0254 1.1818-0.99751 1.6011-1.5948 1.0992-1.5693 0.8895-1.779 1.1818-2.0268 0.37486-0.31132 1.455 2.0903 1.3215 3.6216-0.0254 0.24144-0.0508 0.46381-0.089 0.67983l0.12072 0.11437c6.3409-6.8365 10.344-15.871 10.712-25.821h-8.2724c0.28591 0.47017 0.77514 1.0738 1.2961 2.1475 0.41934 0.86409 0.66713 2.2301 1.366 2.2936 1.1373 0.10801 2.3 1.0483 2.3381 1.8362 0.0635 1.6456-5.0511 2.0458-5.7246 1.8362-0.56547-0.1779-0.94033-0.21602-0.97845 0.66713-0.0381 1.0039-1.8489 1.0166-2.5541 1.6138-0.80055 0.67348-0.8895 1.9061-1.4232 2.7702-0.31768 0.51464-2.211 2.3-2.7257 2.6558-1.2262 0.86409-3.5453 0.90221-2.4843 1.474 0.75608 0.40028 2.4715 0.54641 2.2555 0.14613-0.24779-0.45745 0.12707-0.50193 0.41934-0.12707 0.22238 0.28591 1.0293-0.2732 1.0102-0.78784-0.0191-0.48923-0.12072-1.2898 0.33039-1.3216 0.73702-0.0445 1.5122-0.86409 1.8743-0.78784 0.41934 0.0889 0.97845 1.0102 0.55912 3.8249s-1.7663 4.7779-2.3 5.661c-0.57818 0.94668-1.1564 0.22237-1.9378-0.17791-0.98481-0.50828-2.4779-0.48287-3.5135-0.82596-0.55276-0.1779-3.5707-1.3216-3.558-0.90221m3.971-40.415c-0.36851-6e-3 -0.66713-0.0762-0.93398-0.1779l-2.5478 2.5414c0.48923 0.13342 1.0293-0.0508 1.6392 0.22237 0.67348 0.29862 0.34309-1.8934 1.3787-1.69 1.061 0.20331 1.3279 0.87679 0.45746 1.2072-0.70525 0.22873 0.17155 0.81326-0.67348 1.1055-0.77514 0.26049 0.62265 0.94033 0.6163 1.2453-0.0191 0.41934-1.061 0.57818 0.50829 1.061 1.5566 0.48287 0-1.3152 0.24144-1.563 0.28591-0.31133 1.1246 0.48287 1.3533 0.13342 0.0826-0.12707 0.23508-0.34945 0.42569-0.60994-0.72431-1.2262-1.5566-2.389-2.4652-3.4754m9.3398-10.452-7.7006 7.7006c1.3279 1.4677 2.5033 3.0688 3.5072 4.7842 0.90856 0.13978 2.1412 0.50193 2.9417 1.5249 0.55912 0.73067 2.1856 2.1793 1.9378 2.8337-0.15249 0.40028 0.18425 0.89586 0.55912 1.1564 0.56547 0.39392 0.96574 0.38757 1.2771-0.0127 0.56547-0.72431 0.64807-1.7028 1.4041-2.3191 0.92127-0.76243 2.8083 1.4359 2.8083 1.8362-6e-3 0.40027-0.48923 0.49558-0.629 1.2072-0.19061 0.9721-1.0293 2.1348-0.0762 2.4652 1.3851 0.47017 1.5566-0.0762 2.2238-1.0483 0.30497-0.45111 0.24143-1.1754 0.57182-1.6202 0.20967-0.27955 0.52099-0.39392 0.7942-0.58453-0.521-2.1539-1.2072-4.2506-2.0586-6.2583-0.20332-0.20332-0.44475-0.36216-0.74337-0.46381-0.49558-0.15884-0.21602-0.6036-0.86409-0.81326-0.74337-0.23509-1.0356-0.44476-1.1055-1.7536-0.0508-1.0547 0.8895 0.34309 1.1246 0.16519 0.0508-0.0445 0.0953-0.10801 0.14613-0.1779-1.6646-3.1387-3.7232-6.0359-6.1185-8.6218m2.7765 25.688c-0.0191 0.0445-0.0445 0.0953-0.0826 0.13978h8.0182c-0.0381-1.1564-0.13977-2.3-0.2732-3.4373-0.0635 0.12072-0.13342 0.24143-0.19061 0.3558-0.59723 1.2453-0.68619 0.49558-0.64806-0.0445 0.0572-0.69254 0.32403-1.3406 0.57817-2.0458-0.0635-0.37486-0.12707-0.73702-0.20331-1.1055-0.23508 0.3431-0.58453 0.58453-1.1309 0.85774-0.34945 0.1779-0.68619 1.0102-0.81326 1.3342-0.15884 0.38122-1.042-0.0953-1.7663 0.25415-1.2707 0.61629-2.5732 0.70524-1.6392 2.0268 0.59088 0.83232-1.4232 0.59724-1.8489 1.6646m-1.7981 45.047c-0.28591 0.69255-1.7409 1.9378-1.4931 2.3508 2.9417-1.8743 5.6865-4.0155 8.2088-6.3981l-7.6942-7.6942c-0.54006 0.50193-1.0928 0.98481-1.6583 1.4613-0.13342 0.88314-6e-3 1.5693 1.0738 1.9061 1.1691 0.36216 3.1196 1.5503 2.7066 2.7003-0.45746 1.0293-1.6011 2.5732-2.1475 3.6025-0.47017 0.87045 1.3533 1.2453 1.0039 2.0713m8.266-6.792 0.59723 0.59723c8.8633-9.3652 14.423-21.882 14.804-35.669h-10.89c-0.37486 10.788-4.7144 20.586-11.608 27.975l3.9265 3.9265c0.0318-0.0508 0.0572-0.10801 0.0826-0.16519 0.32403-0.68619 0.18425-1.5884 0.24144-2.2174 0.0318-0.41298 1.5312-0.31133 1.6392 0.36851 0.089 0.57182 0.38756 0.99751 0.90856 2.4271 0.37486 1.0229 0.55276 1.9696 0.29862 2.7575m-6.9064-66.109c-0.0191 0.0635-0.0508 0.10166-0.089 0.12707 1.7917 1.9378 3.4055 4.0409 4.8287 6.2774 0.16519-0.20967 0.29226-0.40027 0.52735-0.13342 0.38122 0.43839-0.40663 1.2326 0.73702 1.0293 0.68618-0.12707 0.5464 0.74972-0.0127 1.2199 0.3558 0.63536 0.69254 1.2771 1.0166 1.9315 0.40028 0.1779 0.70525 0.39392 0.76243 0.65442 0.18426 0.76878 0.53371 1.6138 0.62266 2.4588 0.54005 1.3724 1.0229 2.7765 1.4296 4.2124 0.55912-0.48288 1.1881-0.22238 1.258 0.57817 0.0635 0.80056-0.1906 1.671-0.54005 2.389 0.48923 2.3508 0.7942 4.7716 0.87679 7.2494h10.89c-0.19696-7.0461-1.779-14.022-4.6064-20.427-0.21602 0.17155-0.50828 0.18425-0.87044 0.64806-0.55276 0.6989-1.4423-0.17154-1.9315-0.78149-0.91492-1.1246-3.0624-4.2887-4.0282-4.4475-0.80691-0.13343-1.4105-1.1881-2.2619-1.3597s-1.9061-0.64806-2.0459-1.5503c-0.14613-0.91492-0.47652-1.2961-1.4232-1.4423-1.0674-0.16519-1.8108-0.58453-2.5605-1.3851l-2.605 2.605c0.0191 0.0572 0.0318 0.10801 0.0254 0.14613m15.23 78.734-7.726-7.726c-3.9837 3.774-8.5138 6.989-13.451 9.505-1.6265 1.2326-3.6152 2.1221-5.121 2.8083-0.629 0.27956-1.3088 0.65442-2.0268 0.65442-0.22873 0-0.42569-0.0762-0.629-0.19696-5.2354 1.7536-10.807 2.7702-16.589 2.9226v10.884c17.123-0.37486 33.191-7.0207 45.543-18.851m-40.32-9.5494c-0.3558-0.38121-1.0738-0.41298-1.5884-0.2732-1.7663 0.47652-1.1754-0.92762-3.6343-0.56547v1.3787c1.7727-0.0635 3.5199-0.24779 5.2227-0.54006m-5.2227 3.5834v10.89c4.4094-0.12072 8.6854-0.77514 12.777-1.8997-0.85138-0.71796-1.239-1.8934-2.2873-2.2492-1.8108-0.62265-2.3-1.7409-1.3215-3.3547 0.5337-0.87044 0.32403-1.2199-0.29862-2.1475-0.75608-1.1309-1.7282-1.6456-2.4398-1.9506-2.0967 0.38757-4.2442 0.63536-6.4298 0.7116m-0.68619-18.375c1.1564-0.19696 2.3889-0.52735 3.4309-0.63536 1.1436-0.11437-0.0445 1.5185 0.63536 1.582 0.81326 0.0826 4.1489 0.65442 4.384-0.10801 0.19696-0.62265 0.24144-0.90221 0.95939-1.0547 1.347-0.29226 2.4207-0.25414 3.5644-1.1246 0.41298-0.31768 1.2707-0.43205 1.5122-0.89586 0.24144-0.47016-0.1779-2.6876-0.99751-2.3254-0.40663 0.1779-0.8895 0.74972-1.7472 1.1818-0.77514 0.39392-1.3279 0.57182-1.8743-0.17155-0.50829-0.66713 0.29226-1.1945 0.70525-1.6456 0.63536-0.70525 1.2199-1.4105 1.9315-1.4105 0.2732 0 1.7409-0.73066 1.6138-1.3978-0.15884-0.86409-1.8616 0.0763-2.2619-0.27955-0.2732-0.24779-6e-3 -0.87045-0.21602-0.9594-0.20331-0.0953-0.83232 0.76243-0.34309 1.2326 0.25414 0.24144-0.40663 0.91492-1.15 0.43204-0.57182-0.38121-0.71796 1.6964-0.66713 2.0776 0.0508 0.38121 0.83232 0.2732 0.31133 0.95939-0.521 0.69254-0.71796 0.1779-1.1055 0.51464-0.46381 0.41298-0.57182 0.56547 0 1.1564 0.45746 0.47017-0.26685 1.366-0.4384 0.52735-0.10801-0.55276-1.2771-0.38757-1.4994-1.0166-0.22873-0.64807-1.1818-0.58453-2.3318-1.1754-0.8768-0.44475-0.76243 0.8768 0.71796 1.2135 1.258 0.29226 1.1945 0.4384 0.83232 1.2262-0.29227 0.64807-0.23508-0.49558-1.7345-0.8895-0.95939-0.25414-1.0039-0.76879-1.7599-0.76243-0.76878 0.0127-0.52099 0.73701-1.3279 0.54641-0.6163-0.14614-0.7116 0.67983-1.2771 0.92127-0.68619 0.29862-0.64807 1.5439-1.347 1.887-1.042 0.50829-3.1768 0.12708-3.0815-0.90856 0.0953-1.0293 0.14613-1.8044 0.74337-2.1666 0.52735-0.31768 1.3978 0.60994 2.1285 0.27955 0.76243-0.33674 0.57182-1.15 0.10801-1.6773-0.13978-0.1779-0.6989-0.45111-0.68619-0.62901 0.0127-0.21602 1.1055-0.31768 1.6519-0.69254 0.55276-0.36851 1.15-1.3533 1.4296-1.5757 0.30497-0.23508 0.89586-0.29227 0.94668-0.51464 0.0762-0.27956-0.41298-0.78149-0.36851-1.1246 0.0508-0.33674 0.16519-0.59723 0.43204-0.57817 0.2605 0.0191 0.57818 0.78149 0.40663 0.95939-0.19061 0.20967 0.13978 0.55911 0.49558 0.41298 0.36215-0.14613 1.6456-0.64806 2.0141-0.74972 0.50829-0.13343-0.12072-1.2771 0.0381-1.4804 0.15884-0.19696 0.30497 0.0572 0.50193-0.13342 0.19696-0.19696-0.40028-0.38757-0.30497-0.80691 0.0699-0.31133 1.4105-0.67348 1.042-0.91492-0.36851-0.23508-0.86409 0.45746-1.1627 0.58453-0.66713 0.29862-0.99116-0.43204-0.9721-0.9848 0.0127-0.26685 0.38122-1.2199 0.0572-1.4042-0.4384-0.25414-0.51464 0.8768-0.58453 1.0928-0.10166 0.33674-0.38757 0.76243 0.10166 1.671 0.2605 0.49558 0.12707 2.1602-0.38757 2.3445-0.54641 0.19696-0.78785-0.84503-1.042-1.2771-0.0445-0.0762-0.089-0.12707-0.13343-0.15249-6e-3 -6e-3 -0.0127-6e-3 -0.0191-6e-3 -0.0191-0.0127-0.0381-0.0191-0.0635-0.0127-0.0254 0-0.0508 0.0127-0.0762 0.0318l-0.0191 0.0191c-0.0254 0.0254-0.0445 0.0508-0.0762 0.0953-0.0445 0.0635-0.11436 0.18426-0.16519 0.27956-0.0445 0.0763-0.12707 0.24144-0.22873 0.5337-0.0635 0.18426-0.1779 0.29862-0.38757 0.3431-0.55276 0.0635-1.1182 0.10166-1.6964 0.10166-0.21602 0-0.4384-6e-3 -0.66077-0.0191 0.0953 0.3431 0.19061 0.71796 0.31768 0.95304 0.30497 0.57183 0.88315 1.0356 0.78149 1.455-0.0953 0.41933-1.8552 0.80055-2.0014 0.49558-0.18426-0.38757 0.44475-1.1564 0.39392-1.5058-0.089-0.63535-0.41298-1.0166-0.37486-1.4613-3.1069-0.31133-5.947-1.5439-8.2406-3.4246l-7.7069 7.7069c3.7994 3.3928 8.5837 5.6992 13.87 6.4298 0.74337-0.45746 1.0547-1.2707 1.6392-0.83232 0.94033 0.7116 2.0713-0.23508 2.821-0.36215m-2.3572 14.55c-1.5312 0.11436-3.8503 0.0762-4.3967-0.29862-1.1436-0.7942-2.5033-1.5693-2.6558-2.1793-0.27956-1.0928-1.7663-1.9061-1.7663-2.929 0-1.1309 1.563-1.5058 1.15-2.6558-0.33674-0.90856 0.55276-2.0586 2.1793-2.8528-4.7715-1.1754-9.0983-3.5199-12.637-6.7157l-7.7133 7.7132c7.0906 6.5887 16.157 10.337 25.84 10.699zm0 3.8249c-9.6575-0.33039-18.756-3.8122-26.12-9.9434 0.16519 0.20332 0.31133 0.39392 0.41934 0.58453 0.50193 0.86409 2.2492 2.624 1.1373 3.3229-0.92127 0.58453-2.4461 0.19061-3.3039 0.1779-0.94033-0.0127-2.3127 1.3978-3.1196 1.5376-1.0293 0.1779-1.6202 0.0953-2.5796-0.29227-0.24144-0.0953-0.54006-0.28591-0.8768-0.52735l-1.2262 1.2262c9.3652 8.8633 21.882 14.423 35.669 14.804zm0 13.933c-14.626-0.38757-27.899-6.2837-37.817-15.693l-7.7323 7.726c12.358 11.83 28.426 18.476 45.549 18.851zm-52.62-55.665c0.15249 5.642 1.1818 11.074 2.9417 16.164 0.0635-6e-3 0.12707-6e-3 0.19061-6e-3 1.1055-0.0508 2.5796-0.0191 3.2785-0.55276 1.0738-0.82597 0.0826-3.7867 0.74972-5.0193 0.83232-1.5249 2.9036-5.14 3.5262-5.1655 0.55276-0.0254 0.52735 0.38757 0.80691 0.45746-0.33039-1.9315-0.54006-3.8884-0.60359-5.8771zm14.804-38.712c-8.8633 9.3652-14.423 21.882-14.804 35.669h10.89c0.37486-10.788 4.7144-20.586 11.608-27.975zm37.817-6.0613v-10.89c-13.787 0.38121-26.304 5.9406-35.669 14.804l7.6942 7.6942c7.3892-6.8936 17.186-11.233 27.975-11.608m0 13.927v-10.89c-9.9497 0.37486-18.991 4.3713-25.827 10.718l7.7006 7.6942c4.8541-4.3776 11.176-7.1605 18.127-7.5226m-10.407 33.502c6e-3 -0.0635 6e-3 -0.13343 0.0127-0.20331 6e-3 -0.0191 6e-3 -0.0381 6e-3 -0.0508 6e-3 -0.0572 0.0127-0.10801 0.0191-0.15884 6e-3 -0.0191 6e-3 -0.0445 6e-3 -0.0699 6e-3 -0.0318 0.0127-0.0635 0.0127-0.0953 6e-3 -0.0191 0.0127-0.0381 0.0127-0.0572s6e-3 -0.0381 6e-3 -0.0572c0.0127-0.0699 0.0318-0.13978 0.0445-0.20967 0.0127-0.0699 0.0318-0.13342 0.0508-0.19061 6e-3 -0.0191 0.0127-0.0381 0.0191-0.0572 0.0127-0.0445 0.0254-0.0826 0.0381-0.12072 6e-3 -0.0191 0.0191-0.0381 0.0254-0.0572 0.0127-0.0381 0.0318-0.0762 0.0508-0.10801 6e-3 -0.0191 0.0127-0.0318 0.0191-0.0445 0.0254-0.0445 0.0508-0.0889 0.0826-0.12707 0.0953-0.12707 0.22873-0.14613 0.38757-0.12707 0.2732 0.0381 0.60994 0.21602 0.94033 0.22873 0.23508 0.0127 0.47017-0.0572 0.67348-0.31768 0.0953-0.12072 0.1779-0.25414 0.24144-0.38757 0.0635-0.13342 0.10166-0.2605 0.10801-0.36851 0-0.0508-0.0127-0.10165-0.0318-0.13978-0.0572-0.11436-0.20967-0.15248-0.52099-0.0508-0.0635 0.0254-0.12707 0.0445-0.19061 0.0635-0.12707 0.0318-0.25414 0.0572-0.37486 0.0635-0.0635 0-0.11436 0-0.1779-0.0127-0.17155-0.0191-0.31768-0.0953-0.43204-0.25414-0.0381-0.0508-0.0699-0.10802-0.0953-0.18426-0.0381-0.0889-0.0826-0.16519-0.12707-0.23508-0.19696-0.27956-0.47652-0.41934-0.77514-0.59724-0.14613-0.0889-0.29226-0.1779-0.4384-0.30497-0.0699-0.0635-0.14613-0.12707-0.20967-0.20967-0.0572-0.0635-0.10801-0.12072-0.15884-0.1779-0.0254-0.0191-0.0445-0.0381-0.0699-0.0572-0.0318-0.0381-0.0635-0.0699-0.10166-0.10166-0.0318-0.0254-0.0572-0.0508-0.0826-0.0699-0.0318-0.0254-0.0635-0.0508-0.0953-0.0762s-0.0635-0.0445-0.0953-0.0699c-0.0254-0.0191-0.0572-0.0318-0.0826-0.0508-0.0381-0.0254-0.0699-0.0445-0.10801-0.0635l-0.0762-0.0381c-0.0381-0.0191-0.0826-0.0381-0.12072-0.0572-0.0191-6e-3 -0.0381-6e-3 -0.0572-0.0127-0.0445-0.0191-0.0953-0.0318-0.13978-0.0445-0.0127 0-0.0191 0-0.0318-6e-3 -0.36216-0.0635-0.74337 0.0254-1.1119 0.38757-6e-3 0-6e-3 6e-3 -0.0127 6e-3 -0.0572 0.0572-0.11436 0.12707-0.17155 0.19696-0.0127 6e-3 -0.0127 0.0127-0.0191 0.0191-0.0572 0.0762-0.11436 0.15248-0.17155 0.24144-6e-3 6e-3 -6e-3 0.0127-0.0127 0.0191-0.0635 0.0889-0.12072 0.18425-0.17155 0.29226-0.12072 0.21602-0.23508 0.46381-0.34309 0.74972-0.88315 2.3191-1.9124 1.6075-1.7409 2.4334 0.0191 0.0953 0.26685 0.16519 0.629 0.19061 0.14613 0.0127 0.31133 0.0191 0.48287 0.0191s0.3558 0 0.54006-0.0127c0.19061-0.0127 0.38122-0.0318 0.56547-0.0508 0.089-0.0127 0.18425-0.0254 0.2732-0.0445 0.0508-6e-3 0.10166-0.0127 0.15249-0.0254 0.0508-6e-3 0.10166-0.0191 0.15249-0.0318 0.0381-6e-3 0.0889-0.0191 0.12707-0.0254 0.0572-0.0127 0.11436-0.0318 0.16519-0.0445 0.0318-0.0127 0.0635-0.0191 0.0953-0.0318 0.0826-0.0254 0.15884-0.0508 0.22238-0.0826 0.12072-0.0572 0.24144-0.10166 0.36216-0.14613h0.0127c0.10801-0.0381 0.22238-0.0635 0.33674-0.0826 0.22873-0.0445 0.4384-0.0445 0.60359 0.0191 0.12072 0.0381 0.37486 0.14613 0.55276 0.40663 0.14613 0.20967 0.28591 0.57183 0.31768 0.86409m-7.7133 13.317 7.7069-7.7132c-0.62901-0.76243-1.1818-1.5884-1.6583-2.4716v6e-3c-0.12072 0.13978-0.22238 0.28592-0.28591 0.41934-0.15884 0.34309 0.0508 1.4931-0.42569 1.9823-0.6163 0.64171-2.2746-1.3978-2.7956-1.5693-0.7116-0.22237-1.0483 0.55912-1.0102 0.78785 0.0953 0.58453-0.0254 0.81961-0.27956 0.87044-0.2605 0.0508-1.5503-0.82597-0.9721-1.0483 0.67348-0.25414-0.1779-0.83232-0.46381-1.061-0.50193-0.38757-1.2834-0.0254-1.6456-0.54006-0.39392-0.5464-1.1309-0.94033-1.3597-1.0039-0.15249-0.0445-0.91492-0.36851-1.4105-0.10801-0.38757 0.20966-0.80691-0.21603-1.0992-0.50194-0.16519-0.15248-0.32403-0.33674-0.49558-0.51464 0.92127 4.7271 3.1069 9.003 6.1948 12.466m-11.1-21.653c-0.85138-0.089-1.7155 0.26685-2.1729 1.0102-0.32403 0.50829-0.41298 1.0865-0.30497 1.6265h3.8948c0.0381-0.73702 0.10801-1.4677 0.19696-2.1856-0.50193-0.2605-1.0992-0.40028-1.6138-0.45111m7.5544-8.2914c0.10801-0.0445 0.20967-0.089 0.31768-0.15249 1.3215-0.75608 3.0561-0.60995 3.7994-0.29227 0.95304 0.41934 2.1729 1.474 2.7257 1.8997 0.23508 0.18425 0.34945-0.15884 1.474-0.32404 0.46381-0.0699 0.57182 0.40028 1.239 0.49558 0.2732 0.0381 0.48923 0.0508 0.69254 0.0318l-6.7094-6.703c-1.366 1.5312-2.5541 3.2276-3.5389 5.0448m1.3914-7.1986-7.7006-7.7006c-6.3409 6.8365-10.344 15.878-10.712 25.827h5.3878c0.90856-1.455 0.59724-2.5605 0.90221-3.4055 0.28591-0.80691 0.76243-1.5439 1.2072-2.2682 0.40028-0.64171 0.85138-1.3597 1.6837-1.366 1.7536-6e-3 2.192-0.92762 3.3102-1.4359 1.1119-0.51464 3.0815-0.81326 2.8591-1.3978-0.15249-0.39392-4.1171 1.1436-4.1997 0.84503-0.15249-0.521 1.2517-0.47652 1.8362-1.0039 0.12072-0.11436 0.23508-0.1779 0.34309-0.23508 1.2707-2.8909 2.9925-5.5403 5.0829-7.8594m-18.705 55.397c-0.0318 0.0191-0.0699 0.0318-0.10801 0.0445 0.41298 0.47652 0.83867 0.94034 1.2707 1.3978l0.87044-0.87044c-0.81961-0.51464-1.5693-0.84503-2.0331-0.57182m2.8718-29.404c-0.63536-0.73066 0.41934-2.7956 0.57818-3.2022 0.16519-0.43205 1.1246-0.98481 1.4105-1.6202h-4.5746c0.089 2.389 0.39392 4.7398 0.88315 7.0398 1.0992 0.40027 3.2086-0.49558 1.7028-2.2174m6.4171 18.356c0 0.21602-0.0127 0.43204-0.0572 0.63535 0.56547 0.69255 1.1436 1.3724 1.7536 2.0332l7.7196-7.7196c-3.6343-4.0282-6.1693-9.0602-7.1287-14.626-0.23508 0.0572-0.4384 0.0318-0.56547-0.19696-0.15884-0.26685 0.0699-0.54641 0.40028-0.81962-0.10801-0.81961-0.19061-1.6456-0.23508-2.4842h-5.1401c0.0572 0.81326 0.38122 1.995-0.15884 2.4017-0.44475 0.33674-1.0738 0-1.474 0.0508-0.98481 0.13342-1.2072 1.3215-0.94668 2.1348 0.17155 0.54006 0.40663 0.95939 0.31133 1.5503-0.089 0.54641-0.38757 0.97845 0.48287 1.4423 0.80055 0.41299 2.0903 2.0586 1.9823 2.3381-0.13343 0.36216-0.92762-0.34309-0.97845 0.31768-0.0318 0.40663 1.1691-0.11436 1.0992 1.2517-0.0381 0.80055 0.16519 1.671 0.39392 2.2174 0.47652 1.1373 1.0229 1.887 0.9721 3.1704-0.0381 1.0674-0.22238 2.2238 0.24144 3.2276 0.47652 1.0293 1.3215 1.8616 1.3279 3.0751m26.895-40.688c0.0762 0.12071-0.7116 0.83867-1.1182 1.5312 1.258-0.47016 2.5732-0.77514 3.9138-0.90856v-10.909c-6.1122 0.34945-11.678 2.7956-15.973 6.6332l7.7006 7.7006c0.8895-0.72431 1.8489-1.3533 2.8845-1.8743 0.26685-0.13342 0.54006-0.26049 0.81326-0.37486 0.52735-0.92127 1.6773-1.9506 1.779-1.7981m-44.901 63.059 7.7323-7.7323c-1.5249-1.6011-2.9544-3.2912-4.2823-5.0575-0.59724-0.24144-1.2008-0.57182-1.6202-1.0928-0.66077-0.81961-1.0102-2.0268-1.3215-2.0268-0.31768 0-0.0254 0.76243-0.73066 0.86409-0.95939 0.13977-2.3064-2.2365-2.8337-3.1069-0.62265-1.0166-1.6456-1.0293-2.1475-1.9887-0.14613-0.27321-0.48923-1.1182-0.81326-0.6163-0.52735 0.85138-2.3445-1.8552-2.8083-1.671-0.47652 0.18426-0.0572 0.74973-0.32403 0.99116-0.52099 0.46382-2.0522-2.0713-2.624-1.8171-0.54006 0.24779-0.66077 0.57182-0.69254 1.2453-0.0318 0.6989 0.83867 2.4906 0.5337 2.6304-0.43204 0.20331-2.6431-5.4323-2.1666-5.6865 0.2732-0.14613 0.23508 0.25415 0.54006 0.0699 0.31133-0.1906-0.22238-0.57817-0.36851-1.1881-0.15249-0.64171-0.70525-0.65442-0.74972-1.3533-0.0445-0.70525 0.95304-0.47017 0.94033-0.81326-6e-3 -0.3431 0.0826-0.73067 0.36215-0.9721 0.33039-0.28591 1.1055 0.0127 1.2707-0.97845 0.13978-0.83868 0.56547-0.0572 0.65442 0.56547 0.10166 0.73066 1.9569 0.90856 2.0522 0.41298 0.0508-0.31768-0.75608-0.30497-0.75608-0.58453 0-0.5337 1.0229-0.0254 1.7218 0.0381 0.30497 0.0254 0.85138-0.46381 1.5503-0.10801 0.75608 0.39392 1.2199 0.58453 1.7218 0.66713-1.6837-5.1337-2.6622-10.591-2.8083-16.24h-10.884c0.37486 17.123 7.0207 33.191 18.851 45.549m-21.907-47.074c0-19.01 7.3956-36.876 20.821-50.301 13.425-13.431 31.291-20.821 50.301-20.821 19.016 0 36.883 7.3892 50.308 20.821 13.425 13.425 20.821 31.291 20.821 50.301 0 19.016-7.3956 36.883-20.821 50.308-13.425 13.425-31.291 20.821-50.308 20.821-19.01 0-36.876-7.3956-50.301-20.821-13.425-13.425-20.821-31.291-20.821-50.308m40.028 8.3105c0.0762-0.16519 0.59088-2.516 0.51464-3.4182-0.0826-0.8895-0.55912-1.7345-0.67983-1.6774-0.15884 0.0826 0.0762 0.62266 0.10166 1.4931 0.0445 1.2961-0.57182 2.3762-0.57182 2.8083 0 0.40028 0.38757 1.3152 0.63536 0.7942m0.36216 3.4246c0.0445-0.48287 6e-3 -1.8934-0.33039-2.1666-0.33674-0.2732-0.29226 0.24144-0.5337 0.20967-0.19061-0.0191-0.17155-0.67348-0.41298-0.67348-0.23508 0 0.0826 1.1246 0.33674 1.7726 0.25414 0.65442 0.88315 1.7218 0.94033 0.85774m14.994 0.10801c0.31133 0 0.54006-1.1182 0.34945-1.671-0.19696-0.54641-1.2135-0.13343-1.3088 0.12071-0.0826 0.2605 0.63536 1.5503 0.95939 1.5503m11.436-12.326c-1.0293-0.26686-0.81961 0.31767-1.4486 0.38756-1.042 0.11437-0.11436-0.76878-0.62901-1.1754-0.22238-0.1779-0.83867 0.7116-0.88315 1.2707-0.0254 0.26685-0.0381 1.1818 0.40663 1.2072 0.44475 0.0318 2.7638 0.29862 3.539 0.47017 0.8895 0.20331-0.0318-1.9188-0.98481-2.1602m-2.1412-1.3724c0.50829 0 0.48923-0.38122 0.78785-0.36851 0.29862 0.0127 0.0508 0.38757 0.57182 0.38757 0.51464 0 1.0547-1.3216-0.59724-1.3216-1.347 0-1.1691 1.2834-0.76243 1.3025m2.3826 12.32c-0.0826-0.31133-0.6163-0.2605-0.48287 0.0254 0.13342 0.27955-0.16519 0.56546 0.11436 0.92127 0.36216 0.38756 1.1373 0.34309 1.5312 0.0191 0.22238-0.24144 0.0826-0.70525-0.089-0.80056-0.29862-0.14613-0.99116 0.13978-1.0738-0.16519m18.114-72.037c-1.6456-0.74973-7.834-0.71796-7.6751 0.89585 0.13342 1.3724 3.5771 0.0826 4.4666 6e-3 0.89586-0.0762 4.6635-0.15249 3.2086-0.90221m-7.421 3.7359c-1.2199-0.78785-0.19696-1.8743-1.1754-2.605-0.68619-0.51464-2.605-6e-3 -3.0751 0.60359-0.82597 1.061 1.061 0.7116 1.7472 1.0166 0.76243 0.33674 2.408 1.7472 2.7003 1.4613 0.28591-0.28591-0.0635-0.34945-0.19696-0.47652m28.013 8.05c0.60994 0.22873 0.60994-0.90857-0.42569-1.7472-1.0293-0.83867-2.3953-0.43204-2.0268-0.0127 0.33674 0.36851 1.9124 1.5503 2.4525 1.76m6.5061 31.743c-0.0127 0.3431 0.9721 2.7193 1.0738 3.3674 0.10166 0.64806 0.30498 2.5923 0.82597 2.3953 0.33039-0.12707 0.29862-1.3216 0.22873-1.779-0.20967-1.3533-0.48287-2.5224-0.98481-4.0409-0.26049-0.80691-1.4041-3.4436-1.7854-3.3483-0.33674 0.0762 0.56547 1.9188 0.6989 2.516 0.0889 0.38757-0.0381 0.54641-0.0572 0.8895m-12.307-0.10166c-0.56547 0.0127-0.7116 0.62901-0.16519 0.90221 0.24144 0.12708 1.0102 0.0127 1.366-0.20966 0.37486-0.23509 0.80691-0.52735 0.72431-1.0992-0.0445-0.3431-0.85138-1.3216-0.43204-1.7028 0.45746-0.40663 0.92127 0.22873 1.366 0.0572 0.54641-0.20967 0.49558-0.521 0.50829-0.98481 0.0254-0.64171-0.23508-1.4867-0.97845-1.4867-0.55276 0-1.5122 1.4804-1.5566 1.5693-0.0762 0.16519-0.22873 0.70524 0.0127 1.258 0.33039 0.76878 0.19696 1.6646-0.84503 1.6964m9.0793 23.661c-0.65441 0.0254-1.3597 0.9721-1.1627 0.98481 0.47017 0.0254 0.83232 0.36216 1.2072 0.27956 0.69254-0.15884 0.60994-1.2898-0.0445-1.2644m-25.065-21.977c0.31133 0.16519 1.6964-0.58453 1.4359-0.78785-0.25414-0.20331-1.8743-0.95304-1.9061-0.49558-0.0508 0.74337 0.15249 1.1182 0.47017 1.2834m-0.44475 0.4511c-0.50829-0.26685-2.5859 2.2746-2.2555 2.6812 0.14613 0.16519 2.4334-2.5605 2.2555-2.6812m-14.232 32.905c0.52099-0.78784-0.78149-1.2834-1.1246 0.0826-0.31768 1.2707 0.59724 0.6989 1.1246-0.0826m-75.207-58.11s0.0699 0.0254 0.10801 6e-3c0.0191-6e-3 0.0381-0.0254 0.0572-0.0381 1.2644-0.9848 6.3282-4.9177 8.0691-6.6713 2.6304-2.2809 4.5428-5.1655 6.4807-8.0055 2.0141-2.9608 4.1743-5.7881 6.8619-8.1771 0.22238-0.20332 0.38757-0.33674 0.60994-0.5337 0.0254 6e-3 0.0826-0.22238 0.0318-0.31133-4.6254 1.2771-9.3906 3.1768-12.98 6.2774-6.6713 5.2798-8.9586 15.941-9.2254 17.396 0 0.0254-0.0127 0.0572-0.0127 0.0572m-9.613 17.714c0 1.2326-0.0254 2.2809-0.0826 2.9417v0.0572c-0.0127 0.0699 0.19061-0.0572 0.19061-0.0572l0.0508-0.0508c1.0547-1.347 4.3268-5.4006 8.8188-9.1619 2.516-2.084 5.1718-4.079 7.529-6.3345 3.2785-3.1323 5.1909-8.4185 5.7627-11.278 0.0381-0.25414 0.0826-0.4511 0.0762-0.5464-0.0635-0.0254-0.26685 0.0445-0.29227 0.0826-0.33674 0.43205-0.67348 0.87044-1.0039 1.3152-1.9124 2.5859-3.9202 4.1489-6.5506 5.8771-4.4348 2.8019-7.5481 4.924-10.058 8.3232-0.0191 0.0254-0.0381 0.0508-0.0572 0.0826-0.11436 0.20331-0.34309 0.10165-0.2732-0.11437 0.76243-2.4652 1.0865-4.0028 1.6202-6.1757 0.86409-3.5834 1.258-8.3168 2.605-11.462 0.84503-1.995 2.0586-3.6978 3.6152-5.2226 0.0191-6e-3 0.0318-0.0191 0.0381-0.0381 0.0635-0.19061 0.0318-0.33674 0.0254-0.33038-0.23508 0.0508-0.59724 0.1906-0.87044 0.32403-4.6445 2.3127-7.745 6.0486-9.8354 10.75-1.2834 2.8972-1.6265 5.9216-1.6329 8.9776-6e-3 1.0229 0.0254 2.0522 0.0762 3.0751 0.12072 2.5351 0.24144 6.2138 0.24779 8.9649m-7.0207 18.349c1.1881 3.3801 2.7702 8.3931 3.1196 9.6829 6e-3 0.0445 0.22238-0.0508 0.25414-0.15249 0.94668-3.6152 4.8796-10.655 7.3384-13.959 0.17155-0.24143 0.34945-0.47016 0.52735-0.70524 2.4461-3.2403 5.0638-6.3854 6.6903-10.147 1.1246-2.605 2.8655-8.1961 2.9798-8.7171 0-0.0191-0.0635-0.0254-0.14613-0.0127-0.0381-0.0191-0.1779-0.0127-0.28591 0.0572-0.0254 0.0127-0.0508 0.0381-0.0762 0.0572-0.0127 0.0127-0.0318 0.0318-0.0381 0.0508-1.7536 2.6939-4.7461 5.7881-6.7539 7.5226-3.2403 2.6431-5.7627 4.6508-7.7133 8.5329-0.20967 0.41298-0.45746 0.9848-0.70525 1.5884-0.59724 1.3978-1.1881 3.0624-1.1945 3.0942-0.0191 0.10801-0.20967 0.2605-0.2732 0.0572-0.0572-0.17154 0.32403-4.7398 0.3558-5.3624 0.19061-3.7105-0.52099-7.3574-1.0166-11.036-0.62265-4.6191-1.0483-8.4503 0.21602-13.889 0.0826-0.36215 0.19061-0.73066 0.29862-1.0992 0.0762-0.27321 0.14613-0.48923 0.23508-0.76879 0.0127-0.0445-0.0572-0.26049-0.13342-0.29226-4.8668 5.9088-7.618 16.729-6.4298 25.065 0.42569 2.9354 2.5097 9.7274 2.7511 10.433m7.942 35.008c6e-3 -6e-3 0.0127 0.0127 0.0191 0.0127 0.1779-0.13342 0.16519-0.1779 0.10801-0.59723-0.50829-5.0511 0.31768-9.1428 1.976-13.921 2.4779-7.1414 4.8732-14.499 5.6547-22.015 0.10166-1.0039 0.19696-2.5478 0.17155-3.018-0.0635-0.0318-0.2732 0.10165-0.28591 0.12707-1.0674 2.6812-3.5834 6.6713-5.032 8.9522-2.7765 4.3713-5.947 8.7171-6.3282 13.972-0.10166 1.3343-0.089 3.0878 0.089 4.5047 6e-3 0.0318-0.0508 0.17154-0.16519 0.13978-0.0191-6e-3 -0.0762-0.0381-0.0889-0.10166-0.33674-1.2771-0.72431-2.8146-1.2135-4.4666-2.5541-8.6663-8.6854-14.105-8.6472-26.774-0.0191-0.0572-0.16519-0.27956-0.25414-0.27956-0.13342 0.19696-0.52735 1.1182-0.85773 2.1793-5.4641 17.612 5.6293 30.256 7.8276 32.937 2.0331 2.4779 5.3307 5.9088 7.0271 8.3486m1.9315 16.475c3.6724 2.4525 9.2381 5.7373 11.195 6.9826 0.0127 6e-3 0.0318 0.0127 0.0318 0.0127s0.13342-0.23508 0.0826-0.36851c-6e-3 -0.0254-0.0127-0.0508-0.0254-0.0762-2.4398-4.8224-2.8019-10.083-3.2276-15.395-0.36851-4.6064 0.47652-10.356 0.23508-14.823-0.19696-3.7041-1.3724-7.7006-2.3127-10.884-0.12707-0.42569-0.1779-0.50193-0.18426-0.52099-0.0762 6e-3 -0.20331 0.17155-0.22873 0.24779-6e-3 0.0254 0 0.0254-6e-3 0.0572-0.48923 5.4832-2.4525 10.369-3.1577 14.848-0.83867 5.2544-0.24144 12.034 1.15 15.865 0.0826 0.22237-0.13978 0.2732-0.21602 0.15248-2.8909-4.403-9.1492-10.75-12.402-14.105-4.1489-4.3649-6.9953-8.4249-8.5646-13.444-0.0127-0.0318-0.22873-0.18426-0.2732-0.1652-0.0318 0.0508-0.0508 0.47017-0.0508 0.7116-0.12072 7.0144 2.1793 13.902 6.1439 19.626 3.1704 4.5746 7.224 8.2152 11.811 11.278m30.211 24.271c0.30497 0.0635 0.60994 0.10801 1.0801 0.19061 6e-3 0 0.0254-0.0254 0.0254-0.0381-0.0127-0.11437-0.0572-0.19061-0.0572-0.19061s-0.24779-0.2605-0.29227-0.31133c-3.2721-3.2403-5.2862-7.2304-6.8365-11.487-1.1373-3.1323-2.1856-6.3028-3.2848-9.4478-1.5566-4.4539-4.8859-11.57-8.8823-16.144-0.0127-0.0127-0.0445-0.0318-0.0508-0.0254-0.0445 0.0635-0.12072 0.19696-0.0826 0.32403 1.3343 3.9774 1.4169 8.4312 1.9823 12.555 1.6392 11.811 7.0843 17.39 7.2622 17.599 0.14613 0.16519 0.0127 0.33038-0.11436 0.22873-0.24144-0.1779-0.4384-0.32404-0.67983-0.521-3.7041-3.0624-7.4528-4.9113-11.805-6.9318-3.4818-1.6202-6.4298-3.0307-9.6066-5.2417-6.5378-4.4729-9.2064-7.9674-9.3588-8.158-0.0953-0.0763-0.24144-0.0826-0.33674-0.0445 0.44475 1.6138 1.1055 3.0497 1.8171 4.5238 2.7384 5.6674 6.9254 10.096 11.875 13.895 4.9367 3.7931 10.293 5.966 16.418 6.989 3.666 0.60994 7.2876 1.4804 10.928 2.2365m4.1616 10.985c4.4285-0.31133 8.7108-1.2707 12.98-2.4144 2.7765-0.74337 8.1898-1.9188 10.064-2.3445 0.0318-6e-3 0.0826-0.0191 0.10801-0.0254 0.0191-6e-3 0.0254-0.0127 0.0254-0.0318-0.0191-0.0381-0.0508-0.12708-0.12707-0.21603-0.0254-0.0318-0.13343-0.0762-0.19061-0.0889-2.4144-0.62265-9.0856-2.5732-13.724-7.0016-2.9671-2.7575-5.7627-5.7055-8.7298-8.463-2.389-2.2174-7.6624-6.703-8.0246-6.8238-0.0508 0.0381-0.0699 0.24779-0.0508 0.26685 0.76878 1.0356 3.5453 7.3448 5.2417 10.572 2.4525 4.6572 5.7055 8.374 10.49 10.128 0.0254 6e-3 0.0635 0.0318 0.0826 0.0508 0.10801 0.11436-0.0445 0.26049-0.38122 0.20331-0.0318-6e-3 -0.0572-6e-3 -0.0889-0.0127-5.3688-0.87044-10.623-1.1055-16.068-1.3914-4.1235-0.21602-8.374-0.48923-12.326-1.8425-2.624-0.90221-4.6572-1.7091-7.8276-4.1362-0.0254-0.0191-0.20332-0.0699-0.36215 6e-3 -6e-3 6e-3 0 0.0318 0.0127 0.0445 3.5644 5.3434 9.8099 9.8036 14.874 11.697 4.4602 1.6583 9.2318 2.1602 14.022 1.8235m104.83-145.69c2.6876 2.389 4.8414 5.2163 6.8619 8.1771 1.9378 2.84 3.8503 5.7246 6.4807 8.0055 1.7409 1.7536 6.8047 5.6865 8.0691 6.6713 0.0191 0.0127 0.0381 0.0318 0.0572 0.0381 0.0381 0.0191 0.10801-6e-3 0.10801-6e-3s-0.0127-0.0318-0.0127-0.0572c-0.26685-1.455-2.5541-12.116-9.2254-17.396-3.5898-3.1006-8.355-5.0003-12.98-6.2774-0.0508 0.0889 0 0.31768 0.0318 0.31133 0.22238 0.19696 0.38122 0.33038 0.60995 0.5337m19.232 8.876c1.563 1.5249 2.7765 3.2276 3.6215 5.2226 1.347 3.145 1.7409 7.8785 2.605 11.462 0.53371 2.1729 0.85774 3.7105 1.6202 6.1757 0.0699 0.21602-0.15884 0.31768-0.2732 0.11437-0.0191-0.0318-0.0381-0.0572-0.0572-0.0826-2.5097-3.3992-5.6229-5.5213-10.058-8.3232-2.6304-1.7282-4.6381-3.2912-6.5506-5.8771-0.33039-0.44475-0.66713-0.88314-1.0039-1.3152-0.0254-0.0381-0.22873-0.10801-0.29226-0.0826-6e-3 0.0953 0.0381 0.29226 0.0762 0.5464 0.57182 2.8591 2.4842 8.1453 5.7627 11.278 2.3572 2.2555 5.013 4.2506 7.529 6.3345 4.4856 3.7613 7.7641 7.8149 8.8188 9.1619l0.0508 0.0508s0.19696 0.12707 0.19696 0.0572c-6e-3 -0.0191-6e-3 -0.0381-6e-3 -0.0572h6e-3c-0.0635-0.66077-0.089-1.7091-0.089-2.9417 0-2.7511 0.12707-6.4298 0.24779-8.9649 0.0445-1.0229 0.0826-2.0522 0.0762-3.0751-6e-3 -3.0561-0.34945-6.0804-1.6329-8.9776-2.0903-4.7016-5.1909-8.4376-9.8354-10.75-0.27321-0.13343-0.63536-0.27321-0.87045-0.33039-6e-3 0-0.0381 0.14613 0.0254 0.33674 6e-3 0.0191 0.0191 0.0318 0.0318 0.0381m5.3688 33.75c-2.0077-1.7345-5.0003-4.8287-6.7539-7.5226-0.0127-0.0191-0.0254-0.0318-0.0381-0.0508-0.0254-0.0191-0.0508-0.0445-0.0762-0.0572-0.10801-0.0699-0.24779-0.0762-0.28591-0.0572-0.0826-0.0127-0.14614-6e-3 -0.14614 0.0127 0.11437 0.52099 1.8552 6.1122 2.9798 8.7171 1.6265 3.7613 4.2442 6.9064 6.6903 10.147 0.1779 0.23508 0.3558 0.46381 0.5337 0.70524 2.4525 3.3039 6.3854 10.344 7.332 13.959 0.0254 0.10166 0.24779 0.19696 0.25415 0.15249 0.34944-1.2898 1.9378-6.3028 3.1133-9.6829 0.24779-0.70525 2.3318-7.4972 2.7574-10.433 1.1881-8.3359-1.563-19.156-6.4235-25.065-0.0826 0.0318-0.15248 0.24779-0.13977 0.29226 0.0889 0.27956 0.15248 0.49558 0.23508 0.76879 0.10801 0.36851 0.20967 0.73066 0.29862 1.1055 1.2644 5.4323 0.83867 9.2635 0.21602 13.883-0.49558 3.6787-1.2072 7.3257-1.0166 11.036 0.0318 0.62266 0.41299 5.1909 0.35581 5.3624-0.0635 0.20332-0.24779 0.0508-0.27321-0.0572-6e-3 -0.0318-0.59724-1.6964-1.1945-3.0942-0.24779-0.60359-0.49558-1.1754-0.70525-1.5884-1.9506-3.882-4.4729-5.8898-7.7133-8.5329m9.5494 39.386c-0.0127 0.0635-0.0699 0.0953-0.089 0.10166-0.11437 0.0318-0.17155-0.10802-0.1652-0.13978 0.1779-1.4168 0.19061-3.1704 0.089-4.5047-0.38121-5.2544-3.5516-9.6003-6.3282-13.972-1.4486-2.2809-3.9583-6.271-5.032-8.9522-0.0127-0.0254-0.22237-0.15884-0.28591-0.12707-0.0318 0.47016 0.0699 2.0141 0.17155 3.0116 0.78149 7.5226 3.1768 14.88 5.6547 22.022 1.6583 4.7779 2.4843 8.8696 1.976 13.921-0.0572 0.41933-0.0699 0.46381 0.10801 0.59088 6e-3 6e-3 0.0127-0.0127 0.0191-6e-3 1.6964-2.4398 4.9939-5.8707 7.0271-8.3486 2.1983-2.6812 13.292-15.325 7.8276-32.937-0.33039-1.061-0.72431-1.9823-0.85774-2.1793-0.089 0-0.23508 0.22237-0.25414 0.27956 0.0381 12.669-6.0931 18.108-8.6536 26.774-0.48288 1.6519-0.87044 3.1895-1.2072 4.4666m11.818-3.0307c-1.5693 5.0193-4.4157 9.0793-8.5646 13.444-3.253 3.3547-9.5113 9.7019-12.402 14.105-0.0826 0.12072-0.29862 0.0699-0.21603-0.15248 1.3914-3.8312 1.9887-10.61 1.15-15.865-0.7116-4.4793-2.6685-9.3652-3.1577-14.848-6e-3 -0.0318 6e-3 -0.0318-6e-3 -0.0572-0.0254-0.0762-0.14614-0.24144-0.22873-0.24779-6e-3 0.0191-0.0572 0.0953-0.18426 0.52099-0.94033 3.1832-2.1221 7.1796-2.3127 10.884-0.24144 4.4666 0.60359 10.217 0.23508 14.823-0.42569 5.3116-0.78785 10.572-3.2276 15.395-0.0127 0.0254-0.0191 0.0508-0.0254 0.0762-0.0508 0.13343 0.0826 0.36851 0.0826 0.36851s0.0191-6e-3 0.0318-0.0127c1.9569-1.2453 7.5226-4.5301 11.195-6.9826 4.5873-3.0624 8.6409-6.703 11.811-11.278 3.9646-5.7246 6.2646-12.612 6.1439-19.626 0-0.24143-0.0191-0.66077-0.0445-0.7116-0.0508-0.0191-0.26685 0.13343-0.27956 0.1652m-7.1478 28.121c-0.14613 0.1906-2.8146 3.6851-9.3525 8.158-3.1704 2.211-6.1249 3.6216-9.6066 5.2417-4.3522 2.0204-8.1008 3.8693-11.805 6.9318-0.24144 0.19696-0.4384 0.3431-0.67983 0.521-0.13343 0.10165-0.2605-0.0635-0.11437-0.22873 0.1779-0.20967 5.6229-5.7881 7.2622-17.599 0.56547-4.1235 0.64806-8.5773 1.9887-12.555 0.0381-0.12707-0.0445-0.2605-0.0889-0.32403-6e-3 -6e-3 -0.0381 0.0127-0.0445 0.0254-4.0028 4.5746-7.332 11.691-8.8887 16.144-1.0992 3.145-2.1475 6.3155-3.2848 9.4478-1.5439 4.2569-3.5644 8.247-6.8365 11.487-0.0445 0.0508-0.29226 0.31133-0.29226 0.31133s-0.0445 0.0762-0.0572 0.19061c0 0.0127 0.0191 0.0381 0.0254 0.0381 0.47017-0.0826 0.77514-0.12707 1.0801-0.19061 3.6406-0.75608 7.2622-1.6265 10.928-2.2365 6.1312-1.0229 11.481-3.1959 16.418-6.989 4.9494-3.7994 9.1428-8.2279 11.875-13.895 0.7116-1.474 1.3787-2.91 1.8171-4.5238-0.0953-0.0381-0.24144-0.0318-0.3431 0.0445m-16.31 25.014c-3.1704 2.4271-5.2036 3.234-7.8276 4.1362-3.9456 1.3533-8.2025 1.6265-12.32 1.8425-5.4514 0.28591-10.706 0.52099-16.075 1.3914-0.0318 6e-3 -0.0572 6e-3 -0.089 0.0127-0.33674 0.0572-0.48922-0.0889-0.38121-0.20331 0.0191-0.0191 0.0572-0.0445 0.0826-0.0508 4.7843-1.7536 8.0373-5.4704 10.49-10.128 1.6964-3.2276 4.4729-9.5367 5.2417-10.572 0.0191-0.0191 0-0.22873-0.0508-0.26685-0.36215 0.12072-5.6293 4.6064-8.0246 6.8238-2.9671 2.7574-5.7627 5.7055-8.7298 8.463-4.6381 4.4284-11.309 6.379-13.724 7.0016-0.0572 0.0127-0.16519 0.0572-0.19061 0.0889-0.0762 0.089-0.10801 0.1779-0.12072 0.21603-6e-3 0.0191 0 0.0254 0.0191 0.0318 0.0254 6e-3 0.0762 0.0191 0.10801 0.0254 1.8743 0.42569 7.2876 1.6011 10.064 2.3445 4.2696 1.1436 8.5519 2.103 12.98 2.4144 4.7906 0.33674 9.5622-0.1652 14.022-1.8235 5.0638-1.8934 11.309-6.3536 14.874-11.697 0.0127-0.0127 0.0191-0.0381 0.0127-0.0445-0.15248-0.0762-0.33674-0.0254-0.36215-6e-3m-17.46 15.846c0.0953-0.0191 0.22873 0.0826 0.27321 0.13978-3.7168 3.8058-8.482 6.4171-13.057 7.7196-3.3992 0.96575-6.8174 1.1246-10.318 0.73702-5.3815-0.60359-10.128-2.7638-14.588-5.6928-2.6622-1.7536-5.3052-3.5453-7.942-5.3434-3.0307-2.0649-6.379-2.4398-9.8989-1.868-1.9061 0.20967-0.45746 1.1246-0.16519 1.2707 4.7271 2.3127 9.1809 5.0892 13.336 8.2978 2.8273 2.0776 7.8721 6.9381 7.8721 6.9381l-3.774 3.2276s-2.8782-3.2213-4.1298-4.4793c-8.2787-8.6218-15.604-12.409-17.231-13.343-0.28591-0.16519-0.55912-0.32403-0.85138-0.32403-0.28591 0-0.55912 0.15884-0.84503 0.32403-1.6265 0.93398-8.9522 4.7207-17.231 13.343-1.2517 1.258-4.1298 4.4793-4.1298 4.4793l-3.7804-3.2276s5.0511-4.8605 7.8785-6.9381c4.1552-3.2086 8.6091-5.9851 13.336-8.2978 0.29226-0.14614 1.7409-1.061-0.16519-1.2707-3.5199-0.57182-6.8682-0.19696-9.8989 1.868-2.6367 1.7981-5.2798 3.5898-7.9483 5.3434-4.4539 2.929-9.2 5.0892-14.588 5.6928-3.4945 0.38757-6.9127 0.22873-10.312-0.73702-4.5746-1.3025-9.3525-3.9265-13.069-7.7387 0.0445-0.0508 0.19061-0.13978 0.28591-0.12072 0.31133 0.13978 0.50829 0.24144 0.81326 0.40028 5.5276 2.84 11.348 3.1704 17.333 2.0204 4.0854-0.78784 7.8848-2.4207 11.684-4.0472 2.7257-1.1627 5.4196-2.4461 8.2215-3.3674 7.2749-2.4017 14.645-2.3699 22.041-0.49558 0.12707 0.0318 0.24779 0.0508 0.37486 0.0635 0.12707-0.0127 0.25414-0.0318 0.38122-0.0635 7.3956-1.8743 14.766-1.9061 22.034 0.49558 2.8083 0.92127 5.5022 2.2047 8.2279 3.3674 3.7994 1.6265 7.5989 3.2594 11.684 4.0472 5.9787 1.15 11.805 0.81961 17.333-2.0204 0.30498-0.15884 0.50194-0.2605 0.81326-0.40028"/>
 </g>
</svg>
